<mxfile host="app.diagrams.net" modified="2021-03-05T10:05:43.372Z" agent="5.0 (Windows NT 10.0; Win64; x64) AppleWebKit/537.36 (KHTML, like Gecko) Chrome/88.0.4324.190 Safari/537.36" etag="saaM7-dTdlMbv_K4dVUT" version="14.4.3" type="github">
  <diagram id="UR3f9oArF_G2FAup2GPt" name="第 1 页">
    <mxGraphModel dx="1422" dy="802" grid="1" gridSize="10" guides="1" tooltips="1" connect="1" arrows="1" fold="1" page="1" pageScale="1" pageWidth="827" pageHeight="1169" math="0" shadow="0">
      <root>
        <mxCell id="0" />
        <mxCell id="1" parent="0" />
        <mxCell id="C2qKAwBwFKPkLTs-HYhW-396" value="" style="endArrow=none;html=1;entryX=0.003;entryY=0.97;entryDx=0;entryDy=0;entryPerimeter=0;" edge="1" parent="1" target="C2qKAwBwFKPkLTs-HYhW-357">
          <mxGeometry width="50" height="50" relative="1" as="geometry">
            <mxPoint x="380" y="180" as="sourcePoint" />
            <mxPoint x="521.72" y="180.20000000000005" as="targetPoint" />
          </mxGeometry>
        </mxCell>
        <mxCell id="C2qKAwBwFKPkLTs-HYhW-149" value="" style="shape=image;verticalLabelPosition=bottom;labelBackgroundColor=#ffffff;verticalAlign=top;aspect=fixed;imageAspect=0;image=data:image/jpeg,/9j/4AAQSkZJRgABAQAAAQABAAD/2wBDAAgGBgcGBQgHBwcJCQgKDBQNDAsLDBkSEw8UHRofHh0aHBwgJC4nICIsIxwcKDcpLDAxNDQ0Hyc5PTgyPC4zNDL/2wBDAQkJCQwLDBgNDRgyIRwhMjIyMjIyMjIyMjIyMjIyMjIyMjIyMjIyMjIyMjIyMjIyMjIyMjIyMjIyMjIyMjIyMjL/wAARCALQBQADASIAAhEBAxEB/8QAHwAAAQUBAQEBAQEAAAAAAAAAAAECAwQFBgcICQoL/8QAtRAAAgEDAwIEAwUFBAQAAAF9AQIDAAQRBRIhMUEGE1FhByJxFDKBkaEII0KxwRVS0fAkM2JyggkKFhcYGRolJicoKSo0NTY3ODk6Q0RFRkdISUpTVFVWV1hZWmNkZWZnaGlqc3R1dnd4eXqDhIWGh4iJipKTlJWWl5iZmqKjpKWmp6ipqrKztLW2t7i5usLDxMXGx8jJytLT1NXW19jZ2uHi4+Tl5ufo6erx8vP09fb3+Pn6/8QAHwEAAwEBAQEBAQEBAQAAAAAAAAECAwQFBgcICQoL/8QAtREAAgECBAQDBAcFBAQAAQJ3AAECAxEEBSExBhJBUQdhcRMiMoEIFEKRobHBCSMzUvAVYnLRChYkNOEl8RcYGRomJygpKjU2Nzg5OkNERUZHSElKU1RVVldYWVpjZGVmZ2hpanN0dXZ3eHl6goOEhYaHiImKkpOUlZaXmJmaoqOkpaanqKmqsrO0tba3uLm6wsPExcbHyMnK0tPU1dbX2Nna4uPk5ebn6Onq8vP09fb3+Pn6/9oADAMBAAIRAxEAPwDyndg59KeDxTKfjjrV3IF2g8jrQBzTR1p460gY/avrg0hLA4PSkLUuQaYDlOadxjrUeQp6GnBhQA8Einq5BpgODQWBpgW4r6eJgUfFa9rrx4WdPxFc4DT1JpWuO53UF2kg3I4IqykynvzXDW9zJCwZWI9s1uWuqJIQrnB9alopM6VJMHnpVgTcDHNZEbkrlTkVYikYYB6VDLNJZQcA1JgGqqMD1xUyuAKVgHbTRkgUocU4EHjigEIrkd6tw30sONr5HoarFMjim7WHagqxvQ6pE+FkGwnvV1WV1BQgj2rlN1TRTvGQUYqfagDpx0payYNWYECRdw9RWhFdwzH5G59DTCxMBSNyKcKUjIpiMe4hKuxxXLeIIsbHC967t4AwOapT6VHOCCqkehqbWd0NvQ81Dqe9Bweld3/wjVv/AM8E/Kj/AIRm0PW2Q1fORynCijNdtJ4TtjkpFj2zVdvC0PeNx+Jo5w5TjzRiupPhWMfxyimN4VXtNKKFNByszdAb/iZY9q7NfvL9awLLQZLK7E4csAMEEVvqpJUj1rObuzaCsjcjJKKfapBUcPMa/SpKpCFooFFMAooNFABS0lFJsYlFFFMBO1JRSGkMWkNFJRcYhNBNGaaTRcBSabnmg0hNAC5o3U3NJmgY4n3pc1HmjNILj80ZNNpRTGLRQAadtNADRTgDTgnrUip7UhXIgD6U4JU3l04KBSY7kQSnBKk4pC22kAgQU4CmmSmGUU7iJeB3o3VDvpC9FwsSl8UhfioS/vTS1FwsTb8U0vUe6k3Z70rj5R5fNIWplJk0XKsSFqQNz1pg60uKLhYXdS5ptLg0XHYKUE0ClxQMOopRSgUAHFAAOKUc0AZoPyjLEAe5oAXFKOKqzapp9txNewqf94Gsu48Y6TCSqSPKf9laLFWfQ6DrSg4bFcbP49xxbWQx2Mh5rIu/GOq3LfIyQj0Wi5pyS7HpnIpjXEEY/eTxp/vMBXlE2s6jcf629mI9A2KqmZj95mb6mjnSLjh5Pc9Vm8Q6RB9++jJ9E+b+VUZfGulRgeXDPL/wEKK838w9qPNb1p+0NPq3c9Dbx6QuLfS7cD1lbd/hUM3j/VZVwktvbD0jj/xzXBFy3U0qtijnZSwtNbo6x/F9+/8ArNQunP8AstgVA3iOVs/Kzk93c1zwfil3k0uZ2tc0VKEdkbp8RX4/1Zjj91Tn8zVeXWL+44mupXX0JrMD0u/3ouVyo2NEuGOv2eW/5aV6a75b1+teTaO+3WrNv+moFeqE9quLPPxStJD800tTS1NJqzkHE0wmkJppNACk00mkJppOaQgJppoJpuaBCmmk0ZpCc0XASkJoJwKTNAhM5FIaKbQAtJmkpDQID1puaKTNAg6UhoJxTCeaYgyc0ho60h64oASg0U0nmgQZ7UmTS0wmgQpNNoJpuaBATSE0lIaAAmjNIaaTTAdmmk0Gm0AKSaaTSk0hosITNIT+dKaYTQAuabmgmkNACZpDQeaQnNUhBmkJpM80hNTYBc03cc0maTNUICeKjzTmPvTCePegBCajJ9qcxqMmnYQE0zNKaaTRYY000mlJxSE0AeVZyKcpxTKVN1QImIDDI/KkHoaUHA6U0/MfSgY/nPFJmm5kQ0/crdeKYBuz1pwx2pmMUDNFhEuDSrj0pgb1pc/nQMkFAOKarU/qODg0AOBIp4c461FzmnZoAv2+qXEBG1twHY1tWevQykLKNhrlQcGng9xRYaZ6FHMGQMrAg1IJCK4mx1Se0cclk9K6e01KC7TKNhvQ1DRaZqI5PWpMjGaphyO9ODH1qLDLi3DL3yKtJKrdeKywxqVXPTNBRoeUr8imtCy9OaqpKy4KsatRzscZXOaYDQSOtSB/fkVNhXGSOaja2PVT+FAFmDUJ4RjduX0NaMGpwyYDfI3vWDsdPvClyKAOqWRGHBBHqKdgda5qK5liHyORWhFqhxiQceoouOyNfFGKghuEkHysD9KnDA96aEKB+FLil+lGKAG4B7UpQE8gU6iiwDfLXH3RR5SH+EU/NHakMUDAxS45pM5paYAOaWkFLSGFFHakxSGOxSUUUAJRS0lAxKSnCkxQA3FIeadSGgZGetNPFSEU0rQmAykpxU03FMYdqbg08KaeIyaQEWKXaalEdPCcc0CIgp4p4SpNmKcBQBGI6fsp2QKQvRcBjSLG6qyn5uhxUwwKrSsSyEYO096UyUhpFgsBTS46VX8ykMlIdiYviml/eoC9N3H1pXHYmL00tUeaM0XHYfv4pNxpBSYpXHYcTRnigClx7UtxiDNKOlAFLg9KBWEFFO2nsKazRpzJIqD/AGjiqAUUtULjXNLteJLyPd6Kc1mz+NNNiwIo5pj7DFA1FvY6HbTgD2FcXN46uScQWUaj1c81k3HirWZm/wCPkRj0RQKLrqa+xn2PSiVT77qo9zVWfV9OtV/e3cQI7Bs15ZLeXMzZluJXPqXNQlvxpOaNY4WTPRJ/GWmwtiPzJSP7orNuPHcpb/RrMKPV2zXG7j2oJNT7Q2+qm7c+LNWm+7OIh6IKzJNRu5uZLqVz7scVTyaKTqM1jh4ok3DqeT9aTfjpTM0ZqOZs0VOKH7jQDimChTVXZVkS5o3Ypua19FfTWcw3UXmzu+EBGQBQTUajG5mAg0E1oa/FHb6u0cSKibQQqjAFZuaYoPmV0OBp2aizTgadxslDZp2aizSg0xWJN1KCajzSg07isXNOcrqlofSVf5160TnmvILVtt7bn0kX+deu7uB9K0gefjN0BNJmkJzTenerOIWkJpDTSaBATSZpCaSgYE03IoJpCaVhBmkJpCaTNMQE0hNITSZoEBNNozSUCFzSGmk0maAFzTSeaM0ZzTEITSUZpM0hMDTSaCabTAUmmk0E00miwC5pp5oJppNMkCc0maSkJoACaaTSnpTaQg60lHSkNAC5ptFITTADTelGe9ITmgANNNBNJ0oEBptFITQAp9qbzjNLnNJ2poBKQkZpSajZxuAGST0AGSaBXHEio3YDuKvRaHq904WKzkUH+KQbf51sWXgPdHJJq128W0ZCx4OavlZHtI9zkXuEU8sPzphuoyeD+VdPpPh+wkvVE1rLcw7guGYgfmK7c+DPDzLg6ZGP912H8jSlFw+IUJcz0PH/AD0Y8N+GKUmtfxPpun6Zrb2lhK8saqC4Y58t+flzjsMfnWMVpsq4pNNp22mHipKENNNKaYTTEeXkZFJyOlNDetLn0rMLDw+aDg8jNMBpwY9BTTAUE9M5pwBNMBHen5x0phYDnmgc9DzSFs0Ke4ouIkAOeacCO9M3e9LkZouAucHg09Wz0NR8UAkU7DJw3HNLngVEpJFOU0gJAM09TgUwA9qAwJouFiUGpYZnhkDIcGolGRxTwp60hnUadqX2hArcMOK1FJIrjLOZoZhg8V2drKs0Qbj8Khlx1JURieBVhIvWkUD1qVSBUlkqxKegqdIvaq4lVeSQKkW6X+ElvoKLDLKrjrUoFVVmdhwoH1qVAx+82aYiXGfemPbq3T5T7VIowKfQBSMLp/tfSmhvWr+BimGJHGCKBFdXKnKnB9RV2DUJEbDjcP1qq1qRyjfgajO5Oq4oKN+G+jkHDYPo1WllRgMnB9K5YPkVPFdzR9HLD0PNO4HTUuOayYNSRiA2UPv0rSjnVlzkEeoOaQWJaMUKytjFOxzTGN+lFOpCKQhRQKBRTAKKKKQwooo60rDDFFLRSYBgUUlLincY0ijbT6AKQXI9tJtqQCnYoHcg2Zo8vtU+BSEigLkYSlCCnbhTC2KAH7QBRkVEXNN3UXCxNvFMLYqPJozRcdhS/NMLmgjmkxSuyrCEmm5NPIpo5NTqMOaTBp+KUIc9KBkZGKTFPcBOXZV+pqrNqenW3+tvIgfZs0AWMUuKxJ/GGkxD5DJIf9lazpvHIGBbWQPu7UilCT2R1mKdtI61wE/i/VJQQhjhB/ujms2fWNRn4lvZWH1ovE1jh5s9Ne6tYlJkuI1A9WrPn8TaTBx9qDn0UZrzVpGf7zM31NMzz0qfaI3WDl1Z3k/jexQ4gt3kPqeKzpvGt44Iht4o8985rlfwoJpe0NVhF1Ne88R6rMxBu2QH+5xWdJcTTHMk0j/VjTboYkQ+qA/pUIpe0NI4eK6DsjPA/OjdmmlqTNQ5s2VOKH5zSZ7U3NJnmi5VkPzSZGcZGfSn20El3dx28Qy8hwP8a6ST+y/D4SMw/aLk8lmHIqlFsyqVFD1OYGWbavLegpZEkhkKSIUYdVYYIrq7HXNPvblY5rZYJAcxyNgjP1rNv7JtU8RyxW0seCoJbPHAocGZxxF5WkrGKaTNdCnhYxyk3d2FgAyzLxzVZbbR11hla6/0RFBA7u3pS5WX9Ypv4XcxweTUkcE1w+y3ieRvRRmuqsr63ursWq6Tst3B2yGPg/pWLPcSaNrlwtmQgLbcY4wSKtQZnHEqV0kMi0HUpZNpgaNe7PwKdqeiXWlxxyyMskbnG5exrZ8TXs8MUEMUhRZByV4Oaiu3ebwfAxO5gw/nVci7mPt6llKxV0rSYJrU31+dtunRT0f/AOtV6zvtInu0hjthExPyOBjNLJHJd+EIFtV3uoHA9qzdH0q5k1GGWeF44ozuJcEVSVuhEnzptsd4mG3WgfWMf1rINdJ4l02WSVr7egjjQDBPJ5rmicGoludGGknT0FzSg0zNKDQbj80uaSjNFwHU4GowwJ45PoKd3oEyRH2yo3ow/nXr0b5hjPqorx0nGD7165aOXsrcn/nmv8q2gefjehYzTc0hpM1oeeKTTc0hNJSEKTTaTNFACE00mlJptMAPWkNJmkpCAmm5o6UUABNNoJptMANBoNJQIDSE0GmmgQuaaT6UZpuaYATxSZOOtITTSTRcVgzSUE03NAhe1IetJmkzQAUlBNNJpiFJpuaM0hpABpM0U09KAAmk55opuaYhc0hopuaACkPWg02kAUmaM0UxBmm5xQaTtigRe0fTX1nVEskmWHgsznrgeg7mvS9K0Cw0aEraRDzCPmlYZZv8PoK8ojeSGUSwyyQyjpJGxVh+IrYj8W67EoX7dvxwN0Sn8+M/rTE1c79bG8M2+S4DAdMcUS6cpcyzz7UHXJwPzrzqXxTrki4bUH/4Aqr/ACFZlxe3V0wa5nkmYdPMcmtPaS7mXsUj0u78UaHpiCOOYSsOkduN369K5DVvG+o6irw2yizgJwdp/eEf73+GK5o4PUU1jUppdDRIbtA7U0kZpTTG60NlWGk89KaT7UppppANNNNO4+lMJNFwPK8HGckmhevNOUcYPWl3FTgjioTYiVY0YfewajZCjH09aeMEccUMMdRRcCPGeaUNS7VPQ803Bz71SYCkkmnDFIOKXg80gsHenZpmO/eigZKozVgWzkZVgahhXJFXkGFFFxFVQVOCKn8lWHBwTSOct0pVbAwTii47CeWyHBppXnpVuOQFdjdPWkaEEfLzU3EQIcVJuOM1HjBpw4qgJY26HvW7pF04JTk5rBj5NaOnMwuVAOMVLKR1sRkYD5cD61OkZbqTTImAQZqdZFFZs1HpCPep0jA6VEkmamVvSgZKB3zTlz2pqnA5pykdKYEqMw61IDUIYetPB707iJBk9+KcAKjBIp4Y+lAEmBSFAeuDTFcscMMU8HFAET2qN93g1A0EiHpke1aCkEdqXaDQBmqalSR4zmNip9qsvAjfeX8qiNsRkoePQ0FFmHUnXiVBj1Wr8N7HJjDg+3esNkZOoNNJoEdQkyv6g+hqTvXMxX88OBnzF9G6/nWnb6pG5Clip/2qANOio0l3DIwRUgII60XAKMUUUDF6UUdaSgApaSlzSYBS02ikMdRSZpM0ALmjNJSE0DHE00mkpCaQATTc5pcH0pD8v3iB9TSKsNpCKhl1Gyg/1l3Ev/AqzJ/FWkw/8tjIf9gZplJM2KWuUm8cQY/cWjsfVzxWbP4z1GUYiSGL3xmi5caU30O+IOKjeaCLmWeNB7tXmM+talcf6y8l/A4qg80jn53ZvqajnRssLN7nplz4g0q3Xm7Rm9F5rJ/4TWzjQ4t5GOemQK4XPsKXOannNo4M6ufxxduCILWOPP8Ae5rNm8UarKf+Pkp/uDFY1Jk1LqvobrCQ6liW9uZ2zLcSv9WNQkknmmA0tRzyZtGjFDixzx0pN1SQ2d1c5MFu8gHUqOBUTq0cjRupV14IPaldlqMVsBJozSGm5pXKHg0uabRxQMdmkzSZpKdxli65htX7mPB/A1BUsx/0O29RuFQ0bkoKSgnmkoAUUtIKKYHReEI0fUZmYZKxHH4msjUJXm1a6Zzk7z+hI/pU+h6kumamssgJiZSj47dOa2tT0FtRuDeWMsQEgyVOQCfUVsvhOOpOMKycjJ0rTbW+ikkubowhW2qo6sadrmmwaU0At5JQ0itk7vpx0rQsdDg0lxfapcRfIcqqnj8jjPasubULfVNeFxeK/wBk6BRycetC0J5pTqabGj4klf8AsTTef9YVLY7nbVfwzaQ3F/JJMgfyUyFbpk9/0q3L4j0tUjt0sJJVjTaiyIMDiudtr2eyuvPt3KNz+NDZNKMuVq1jqtNvNXuNRKTxbIDnO5cdPSqup6G9zq/ntcJEjkEbh6YrJuda1K8CrNdMNvdOM/Wqck0rriSWRx/tE0+ZC9hUTvc6rWxpd5ZqZL1fNiB2bGzk++Kp2WtWlvpEVpcQPI4BBBXI5/nXObCWAAJdiAAT1q+NI1DC5tJFB9RScjRUEl7zJLfV7mwllNq48pzkI3IFSXeuXt59+Ty19EGKJ9DubfyQ21mlfaEU/wA/Sr40XSYZfKuL9hN3A4FPml0E1RW5gvcTSEBpZG9ATmk2O6llRiB3ArVvLPT7DXBFMc2wGQq/Nk/4VswX2oG6Q21gI7LOBng4PfHapSb3G6yhsjkYYJLmdYIlzKxwAeK1l8M6isqCQIFPUhulO8Rj7LrSz252F1ySvFaE15O3hNZg7GRQBu61XKiZYiVrxKzaNY21wgur0FW6badq+l2NjZxukbMZCCG3ZH0rnACQSw69RXU6VJHq+ltZTMd8QGG7mmrMmq5qPM2Wbi+i0/SIrqC2jRpMBUCiuTaQySs56sc1seJbkG6itEPywr0Hr/nFYlKTReHTcebuOY8V6vpkm/SbRv8ApkK8nPSvT9BffoNkev7sCqgZY7ZGnupCcmkJpM1qeYLmm0E0hIpgJQTSGkJpCAmkJozSUAJSE0tNzigANIaUmkNAhppKUmmk0wA0hpCaQmmAGkzRmmmgkCaaTSmmZoEwzSUtNzRYYE02lJptFxBSE0GkJpiCm0UmaQBSUE80hPFABmkzikJpKBBSGjvTTTAX+VN60vakzSAQ9abTjTTTsAmaSg0hoELmkpKQ9aYC5ppNJ2ooEGc02lzTTTFYQ1GakPrTDQMaTTGPFOJph6UAN602lNIetCAYfrTDzxTj1pp+9QB5eNueQPrQaawBPBOKTJAqAuOzT1c4x1qIZNSIMnrikApwO2KaSQevFSswYAED8KgfrxTRI8HI5pOlNDevFOyDTsMkTDdKeE5piKQcirCjJGaBk0MamrRXCYqmQV5WnC42r81SBM2MHNViVzTnfeDtINQ7ScGmkBbT7op4PoaiikGMNUxQEZWgBnfmncDqOPWmYOcGpFIAxjP1pDBRhuK09NXdOBWao54Fa2lgCYN70mC3OmijIQAsTVpFAqFGRhnOKkCMQMVDNkTBlAp4kxUSx+pqQKvekMkVyT14qRcnqaiUhehqRXouFiZeKkDAc1X3j1/Sl3nsAaaEWRIO9SCRTVYbj1/SpFVe/NMCYMDTwSegpECY4YVMuBzjii4CLHITnp9KlWIgcmpIyuOeKmVS33UY/QUXAg2DvTWCirRt5iDhMfWoms5P4mP0xSuBWJU8EZFQtbxtypxV4W6L94ZNHlqOgp3Ay5Ld15HI9qgPXBFbTRDtxVZ4lY4K/jQBUhupoD8jnHoTxWlb6yvSddvuOlUHtmHKnNQFGB5FAHUxTpKu5GVh7GpQQRXJozRHcjFW9Qauw6tPEQJQJF9ehpjN+iqdvqdvOAFcK391uDVrORmkAtGaSigBaKbS0hi0UmaKAFpKSigYE4prttidu6qTTmqC6OyyuH9I2/lSGjz248T6k0jhLhgM8DFZ8mp3kvL3Mh/4FVMnJJ9TSGsnNnrQw8bbDmck5PP1NM3Ed6TNNJrNtm6hFDtxFJupua09K0pb1WublzHap3B5ajVg+WGrM/NN3A9K3kufDnmeSbZtpIAkI/8Ar07XbKKOGxhso0ZnyFK/xfjT5JGaxMb2szns0ZxWknh7UnuVjaIRqerk9KfFobm7ninuESGHBeQc5pWZr7WPcyt1BI9a3JdH06fTZrrTbqSR4Rkq/wCoxip9Gi0q7sn32oaSBcyFv50+RmbxEErnNg1JFHJPMsMMbPI3RVrp7C9tdVtru0SzSOGNMpjr0qtobCy0W91BVzMuVUnqAAKORp6gsQrPQn0a01XTLtI5U/0WRjvAOcVh6uNus3X+/VrRdTv21iCNrmRkckFWOR+VVtb41y6X/aB/MCnK1tDOk5+295FI0maCaKzsdtxaCaSloHcSjNLSdqVhlhyH0uH+8srZ/IVWzVledIf2mH8qqimSh1ISPWlUqrqzjKA/N9K7GC00WK2guVtY/LmZVUyckk/WqUW9jKrWVPc43NAq5q779Un/AHAgZW27BwPrVpPDepSRLJiIKwyAW5xS5WUqseXmZlVNFc3FsmyG4ljXH3VYgVrzeG/LspJYrxJZ4lJdF6DHan6DZaVqEG2ZGe5C5bJIAHtTSkjKVam1fc58u8/+td3YnuavaQ9zDfi4t7V7koDlQD/Ot7S7nTZdQbTre0Xy8H53GST3FZVjctpfiJ7WE4iMxQqwyMA1STM1Wi1ohp06/wBZ1G5kWFIW3ZZWOMH60p0Iw6jBa3c6J5obLKc4Ixx+NSa1dS2XiCaSCRkHykqpwG4rYns49S1aw1KLPlsNzjPp0q1FMzdSpFX7mTqGiWts8dtbXLyXcjgKjYHFXJDBo6rBbWJu7jHzNsrOF+g8XLdO2IzJ5fJ9sA1t6qdaWVf7NCmJh14z+tCgiJVanVlXUbGO80tb9bY2V3Ed2zoWxU+m6pcXWhXE07hpYchTjpgVRv7ea30svqOpzG4c4SJH4+uO9T2R0vT7F7eW+Vkl5Yjn69Kt6Ee9bUxrHUbxtRhlO64k3n5WbqO+K3J7/SXu9lzp8i3LHJBUHH61hm5s7PVUnsFLQxkEKe9aL+KpHO5bJA3q3OKmMu5rOm5JcqLM1jZW/iK028RujHBPAbjFTT22rtrDSy3Kw2obGQcDHpiuXuLuW6uTPMxLkcEdqWW7uZgBLcSMMYwxJp3Qewm1qzpNdt7C5kjnnvUQKQpVW7Uf2roUFmlqGkniU5wATXKpvJwqu30qxHpl9Mf3dpKfqMfzpcy6D+rJbyFu5oZrhngTZGei+lbPh+znguHupEZFEZxnvWY2kyxf8fFxbQkdQ0nIrWhK3CLbnXCQBjaq7cj86S3LqtcnKncwrq4+1Xs056OxIqLNddF4e06FvmjaT/ebiuf1qCK21R4oUCIAMAUSi92FCvB2hEpk16T4abd4etPZTXmma9E8JNnw9B7MwpwM8d8JvUmcUlJW55Yp5ptKSKTNAhKQ0tNoADSUUUAN+lFFNJpiFJpuaDxTc0ABptKTTSaBCUlBpO9MQEcU00vUUmKQCGkNKaaaYgpp4pxppoAQ4IpKD60hNIYGm0ppM0xBTTSk0w0XEL0ppoNNNMQUhpaaeKBhTaWmk0CAmkzSUUIQGk3UZpuaBi0lITSUAL9KaeaUnFNJpiA0hoNJQAGkNBpKAENMNPPFRnNMQhphGCTTjTDS0AaabinGkpgMOKZTjTaEwPLBICfu4NGck5qPB9aXJ9c1KEyRV9DineXIDwNw9ajV6k39ME0gFbcAcioic9anB3DrzUTLQmMQYp8YXPPFRZI604HNNgWwAmOQasR4PSqCgjHWrCvtAweaTAu7TjBWq8oI/hIp0d4ANrD8akd1ccEGkrgUwP1p6sAOtOdPSiOHeDnIxVXAEA8wEVcSQRAE8jvVRlKEYpd5bgmi4XLLSoxyFNJ8u7I6elQj2qSMHfz0qQuW49rY4Ga1tOiDNnpWckaZG0YzW1pS5yKhlI2FQADvUisw6GnImcVL5QqXI1SGLNIOoB/CpFlDdeKTyuM0hT2ppphsTAEjjn6U9VIqoAwOVNSJK69aLAW1HFSKBmq6TK2CeDVhSD3BpDH7+OnSkMr/AMKn8aUU8EAU2AiRu+DnH4Vfgj4G4lh6E1VRgOlWIpMGkB0WhaaLxmbYEjU4c55PsK6iPTrSIACFTju3Jrk9H1N7KUlQGR/vpnr7j3rr4LyC5XMcgPseDVRsRK42SxtpAQYlBPccGsfUtNFuDIMmMnHHauhrI127iWxMSuDIxGAOcU5JWFFu5y0y4ziqrM1SyzEnFVySTURNGOBJPJowKjJNLll6jj1zTuIXAppj3Z4zSO46j9KI7gdNrflRcdiNoOOlV3hZfetLcGH3CPrTGQelFwsZW0k8irMF9PBgB9yj+FualeANUDWxGcU7gasGrQucOTGffkVoKwYZVgwPcGuUZGB5FOjmlhOY3K/TvSsB1OaWsaHWuizx4/2l/wAK0YbqKdMxuD7Z5oAnpKbuooAdmg4Pem0maBjyaoa1L5Wh3bk8eWauk1k+Jn2+Hrv3XFIqG55ipyuaQ8UA8YpprmPdWwUlFFBQjHAzXRav/o/hyzgh+VHAz78ZrnjzXQ2N5ZanpS6deyCKVAArlgPoQf6VUV0OfEXsn0Ma0tYbq4WGWbyVIJ3+mK0NS0uPSbBLm2uXZy4w27IxVj+x9KtZElvNTSdFOdgI5+vJzVK91VNR1GNBE72cZwIwOW9xVpNasylPna5C/ql7cjw3Zt5zb5sFmHU8VV0azt3s7i/uQ0vknAj9as3OtaeYBaf2ezRouEEwwVrI0/VLjTWIiKvE33kccGm2EYPldkdFp00d9pV29vYC23IQMHIfg45qt4e028ggvFngaPzY8Lu655rNn8QalLKXW4WJT/CqjAqq2o3rcG+lx3AfFK6JjQqehs+HoDp+pXttdMiOIh/F/n1osr210m4udNuZfOtpGzvUccjHTNc62G5chm9WOT/OnfZ5RB532dxF0D7cAn0qeY1dL+ZnRQ3ujabN51krzE9yfu1S1jU7XUlUw2zRyBslieoqKDQtTkjDC32g9mbBqO10q4nvZLdiF8o/vGB4H+NDlpZIuMKcHzXKQoJA71uS6DbyWU01jfiZogSQAMU3RrLS9Rj8mXzPtWCWGcD8KizNHiKaV0YuRRnnGD+Vbk95pdgRDbWQdozy7L1I9TV3U7tLvw6lxaQqA0i5XH3SD/jTUDN4myvY50WV4VLCzn2KMlihFQ10uv6jc29lbWwkCyzJmbC9sdP51zPWhxSNaVV1Fdosoc6Vcj/porfzqmKtQ86feD02n9aqioNEPRGlmjiX7zsFH412esaZNeWNrbQzRRJAyks/HQdaxPD+my3V/FdYXyYmJLE9wKj8TRTw6l5szowkHyBewFbU9DkxPvTUUyx4kstskN1wxdArOvQkVNpE8zeH78NJIxUHZk521aW40hdISxu78TovOVBLH0qna6xpOnQGGG1lcN9/gAH9adjLmbjyuOxH4YYyW2ppkncgP6NS+E45k1KUvBIqmMjcVwAeKqWutNZXd1PaW6J55Hyk8Jj0pr6/qr78XATcc/KvSlddS1SqN6LcuabZ3Gn+KI0nXG/eykHqKs3Gm20Oum8nvo0UyGYLnBU+h5rnJri4un3XEzSN6k1Hwo6mhSLWHk+ps69Ppl3MLm1mMk7HD4zjFJpuvtYac9q0PmHnY2emaxQSx4yadmlzWd0aKjHlUZajsZBJqxDqN7boEju5Ag6LngVVq5arp2xFn+0GQnG1MAVKcrlz5bXaKkkrSyF5JHZm7sSc0KBgBQx+gNdrDoemRci1Dk45c7qvJDDEGEcESDHVVANa8kmcX1ymnZI4Fra4jjMjQSLGP4mXFR5z2qSa7uLh2E88sgDEYLnFRA1jsd0XdXDPNXLa+itodv2K3lfOd8o3VTzSHpVJjaueiwrEsEbRwxxllBO1cU8npUVr81nbn/pmv8qkBzXUkrbHz05PmaucRrg/4nVwT6j+VURj3rR18Y1qf3wf0p+gW8VzeSrNGrgRMQG6ZrB/EexSaVJNmv4f1c3GLO5OZFHyOerD0NZviMY1Un1UVlW8zW97FMpxsfr7ZrW8SkNfRSKchoxzTcrqxiqajVUkY+a9B8HPnQsf3ZGrz3PFd14KkzpMqf3ZTRDceM+A6fNGcVGZAKjacD0/OtzyizuppIqkL8MSFwcelSxz+ap4Ipkk9Jmm84oJ4pALxSGim5oGGaQmlzTSaYgpD0optAAeabilNIaCRtGaU00mmMKSgnNJmkIQ0hNLSGmAhppp1NpgJSZoNIaAENIaU03NIQhNJnmlptACGkoNNoAO1JRQTQIQ0004mm0wEozQabQIKSiigBDwKTNBNBoATtTc9qWkNMApKKb7UbgLSEUGkoEIc000400g0wGGmVJimmi4EbDNNxinmkNAEZFNxTz0ppFMDyQHmnYqYW6vwrYPvTDG8bYZTWd7iGhSc47UBip5pckdjSjBHIzQAocEdM0ueOuab+FLQ0AmaB+NKKdnIpjDzDjpQHNJjNSIozzxTAQZap4w+cYpyoq9KmRgRjFIBq7y2COKmGFFMIaoizg880gHyyD15qNGDE0mzcckGnbVXtQBYiQnoR+NTqvzAMPxqrGTnIP4VZTLEE9akEXYU6VtaXG27OMc1iwOAQDkGuh0sk9+PSpZcTaiQlRgdanSKQg4HStTw7pY1W+itTKYgQWLAZOB2Fel2eiadYxqsVpGSvO91DMT65NLluW5WPJPs7+hH1FRvAwOK9rlt4ZwBNFHIB03qDj865LxP4ctILKXULUeWyYLJn5Tzjj0o5WhKVzz0pik281LKyqTgYqEyDtSuXYXb6UbSDxQGz2NOGTRcCRJGHGc1ZjdCBnNVdvTBpRuHandCsaCbeoqRXANZqyYPOR9KnSTI65oGaMc+08Vehv3j6Eg+xrFWTB6VMrnHDVNxo3hqcpXmRiPTdVaW63g8/hmszzeOtIZgKWo7hdzXX/LFkz/ALQqnv1btc25PoYj/jVhpl7mmK2TxVkDoJr7OJlix/ejP9KthWPJbOagDU9WOaBlpIUxlR9akWNR3pdNspNQvY7dDjPJY9AO5rsIfDWnxAbxJIR/ebH8qVn0FzJbnIhM/dBNRSblOCMV3LaHYFSBCF9wTkfrWJrWifZIzPAGeID5s8lff6VCUuqHzpnNl29vyphY9zQ7jcaYWParQDiAetRtEpORSF/fFLvwOtO4FeSNk5xx6imK+0hgSD6irgYn+En8KY9sr87cE0rgSQatPGQHAkX361pwalbzHBYRt6NWEbV1yVIqIsVOHUg+9FwOtptc5BezQfckOPQ8itGHWI2wJl2H1HSgZpGsPxc23w9N7soraWRZF3IwYeorA8ZsF0Bge8i0Fw+JHnYNPihkuZRFCu+Q9BnFQZ4q3pMcs+qQpG7LzklewFc3U9xu0blz/hHdQVWaRYowoz80grKzXVXkrXt/eWDKeI8qw5wwrn9I+xvfLHeQecJPkX2Jq5QMKdZuPMyoWHahUeTOxGcjsozXU+bptlrQsINPjy5+Z25wfaqdrMbDxPJbW6hYppPmX0+n51Ps2tw+sp6JGTDp95NnZZznHX5Ks6TZ3k120loE8yFsHf2z7fhWz/bF43iZbRZNkIJUqO/HeqcLtH4w2xsVV5CCBWnKu5m6zkrcthiaLcale3DTXEMcqvtZR/QU6z0K2mvLq2e7YtDghkGMjHNVrq6Nl4la5HRJfmHqO9bVxDDpaX99Hg/aAPLI9D1o5YsiVScbGZFpFhPdTSRzySWUA5LHBc+lWreLTNVLWx0qS0Lf6uYDvSeGZQ1jc2iSLHdtzHmrEMOssT/aeo+RbDq0eAT9OKahHsTOU+a0mRaBI0d3PpEkSfut2XI5bkfpVKbXZZ7+NJYgLKKXhFXOdp/yataJ9ihup9ROogqSUVZfvMM9SazpXsrDVoJ7a4aeMP5jn0/ShxLSXN72uh0BMNxqP2q31zbn7sRYY+m0kGs6HTJjqWoS6g7NDCA7pETiT347dKWXVdFe6N39gka4HRiMDPr1qlFrl0l/NdBVbzgA6H7pAGKNCYQqO/KjW0ua1uLW8Njp7wYQhschjg4H161R8M2V3Hqkk8lu8cYRgd4wc8Gq8niK+3nyfKhTsiJxVZ9X1N2LfbZl3EkhTgZpXQKhV1H6nYXFjcf6QqgSkshVs5FXvC9xunlsJAGjkG5d3YisOS4mkwZpZJGHd2zW7pFzp1lb/aIkuJbyRNu1YyQD/n+VK6vodFW/suVlDWbkXerSspykf7tfoKpVPHpuoyZb7HNyc5ZcfzqvWcndm9GygkizaDdbX3tGD+oqmKu2P+rvR6wH+YqkKCupMlxPEhWOeRFPVVbANRljj52Yk+pp8EEt1cJbwLukc8CuvsNDs7JVd0E84GS7jv7Crim9jCrVhTd2chHb3UiZitp3Qd1QkUySKWJgJIZoyem5TzV281y+vZMmd4owflRGwAKksddurSZPOcz2/dZDkr9M0mk3uNTny35Qj0K8Ony3cgEQjXcFb7zY9u1ZgNd7elJtJuHjO5HhJU+ox1rghwMUTp2Fh68qjd1awZq/olut1rMMbqGQAswPQ1QrofCkOZrqf+6oQfj/APqpQV2aV5ctNs6VY4gGjWKNVPBAUV59dW7Wl5NbkfccgfSvQQeQa5PxPb+TqaTAcTJk/UVtUjZaHm4Os+ezMWlB+ZfqP50lNPGD7isVueq3oelZyB7gUq/eFRqcxxn1QU5Thq7eh85L4jzuUYuZh/00b+dNqS5BW9uFPUSN/Oo645bn0FP4EFB6Uneg9KRbZ6BYNnTLU/8ATMVMOtVNLOdItD/sCrddi2Pnanxs5HxHj+2W4OWUdBWroGnSW1pLPMNrSKcA9RUOs332DVkeO0gkcoCXdct+BzV/T9Xh1KB0C+XOg+ZM9vUVk0rnaqs/ZWS0OKf/AFjj0YilB4xTrgbbiUejmruoaaLKG2lWRn85MnPY1nqd8ZLQo9q7TwSw+x3Y9HH8q4oHNdj4HYbLxfcGnD4jHFq9NnTSwO/3XxVabTPtO0SsSF9GxmtIUpHFbnjlSOxRFCjG0dBU6xqvQYqTpTc0xAKMUGkNAxKQmimk0AHWkNHekzQIQmkNGaDQMSkoJpCaoTEzSE0ZpDSuAUlBNJTEFN/GnUlACGm0pptAAaQ0UhpgJSUUhpCENNNKTSZ4oEIaaadSGgY2kpTSdqYgNNxg06kpANNNNPNNoEN6UU4032pgJgGmmnUmKAG55opSOaSgBuKMZpxptACGjFKRR2pgMIpCOM048U00CGGmkYp/OaYetMBhptPIxzTTQhXGGmmnmmHik2M8pMsbc7MEd80olBGCeKjVQ/epPICjO78Kmwh2VK8HmmY9qcoHfrTzt9KQyLGTRgikbG73oBOOTVCDr0pMkDHenAZoK49KAE3EHpUyHPJFRY5zUi80ATq2aljDZqBOoq/CVVcnHNS2Fh3lttziq8jbGGRUjXfltwM00TLKfmWmMfEwxyMUsmxhkAZpfLG3K4IqPbjoTSAZyKsJN8oH60RxLJ8pODSeQ8Tc4I9QaBl2BgxFdHpRwRXOWsZZhtP4Vv2MRVF5IqGXE6mz1OaymWa3lMcgOQwrqbHx9eRqFuo4rj/aHyH9OK4BCAPvE1MsgHSlzWNLJ7npbePVaImOwO7tuk4/lXN6x4jvtVUxyybIM58pBgfj3Nc6J2xgHFIZCe+aTk2Plj0RM209Rmm/KOcVEXpN2e9TsBPvHrShqgz7UoagCwHo3E9OKg3EU8PmgZODkc0YGeCc1EG96cHA6kUXJJldl75HvUqzjoRg1T+0xDrIPwo+1IfuoSPXpQM0RIp6EUpwazRMDztxUy3LDHpTuBawKcuAeagW4RuoIoMn93kU9xFneBTllFU/NHcEUqYkb5XB+hpAbFrePbTJNBIY5VPBH8vpXX2Him3mXbeAQPj7y5Kk/wBK4BNnrU63MaYBIpqVhuKZ6nHdQSoGjmjZSMghhWfrl7FFpk0YYNI64VR/OuETU1QfI3P+zmoptQkk6LI31OaTn0F7JLW4s0ZLlvlAPvURRR1c/hUBkuWJO0L9TTPLdj+8nbHoBioTKsTs0YHApBcqvGFz6d6YsUH8Slz/ALRzS70jO0Jj6CncViTz2bojfgKXbK3P3fxpFLt0qRUfu1MAVG/ibNOkRNnzYP1pQAOrGlfyWHzhWx60gKb2iPyjFT+lVZI5o+qnHqOa0jJEPur+QzTDLIfuQk/UgU0wM6K5licMjlTVXxPqb3GjLCyjJcHNa8tpHJyV2t7VzniSDyrNPmyC9DZrS+NI5kGt/wAO28kKXV8YiSq7YxjqawQK0x4h1FYUijkjRVXA2pWELXuz1aqk42iamk6zqeoX6RvFD5Q5cqMECmtoFzBrn2gNCIN/mjLYx6iudjuriJ3eKeSN3OWZGxmkMkkuDLLI7e7E1pzox9hL7J0N7FDD4khvHuY9jtyAc7enpT5n0aLWTfm7cvuDbVUEdK5tUaRgqKWY9lGTTMEHFSqly3hvM3bnU9OGsQ31skrEE+YCMZ96V9etEvjdQaYvmEfeZuc+tYYqxY2U+o3XkQbQ2MkseBTVTyG8PBL3mSalqL6lKrvCsZAx8vemy6ldXNpFayODFEMKMc1ZvdBu7Gza5lkjdVIBCE5FZg60czLiqcl7uo4Ng7gSCOhFD3DyYEk0jgdmYmlglEMwkMSSgfwuMg11miJb3dh5zWVqr7yPliH9amKk9mFeooR5mrnIgM33UZj6AZqVrS6SPzZLaVE9WUivQUCqMKqgegGK4XUJ5nv7lHmkZBIcKW4HPpVODSuzGlivaSskVBTh1APSkxSgVJ1m3pun6TqEzRgXWVXcckAVrpoWlRjAtd/++xNZHhg41CYf9Mv6iunAxW8Ypq55WJqTjUsmc3rsv9mXEMdlDBCHTJKxjNU7bxDqNvMpeQTRfxIygflirPioZvLQ/wDTM/zrLsrP7V9o/ehPKjL8jOfasno9Dqw8YypXkdxbXMV7AlzA25HH4g+hrz7o7j0YitvwpdlLyW1Y/JIu9R/tCsV+JpR/00b+dVLWNxUKfs6skW9NG6S6XsbdqoirumnFxce8Df0qkKysdxv+FEVru5kIyyoAD6ZNdR/FmuD02/fTrwTDJQja49RXcQTx3MKzROGRvSuikePjYv2lzk9e0lrKU3UQzbSHtzsPoaxzyMV6MQrIUZQyMMMpGQRXK6xoDWwNxZAtF1aMdV+lTKDTujXDYpNKEi3oV2ZtBvLVuTCjBfoRXMCpLa7ntizQSFN6lW46ioxUN3Vjsp0+WTl3Cui0mf7DYWI3ANd3J7fw9K5wnFa+tObf+zbYfetoVYj0J/8A1UQ0dya8edcp2B44rH8T25l0kTKPmhbd+FayyCWNJAchlB/Sm3EIubWWFvuuhFdEtUeNB8lQ8+HSkb7uaQAqSp6qSDQx+WuW2p9Be6PRIDm2hPqi/wAqlX71QWjb7C2b1iX+VTKfmrsWx87P4jgL8Y1S6H/TVv51DVrVRt1m7H/TQ1Vrklue/R/hpjoIZLq5SCIZkboKbKpilkib7ynBrX8MwGTVjLg4iQ1n6iM6jdH/AKaGmo9Sfa3nyHY6Oc6Na/7tXaztDbdo0Htn+daBrqWx4lb+IzlvFH/IQhb1QVW0GTy9Xjy4UMCCSfarXij/AI+7c/7OKws45rCXxHqYdKVFIsXMZl1WSJOd8uBj61t+Jk2W1mB0VcVD4bsGmuPt0g+RP9XkfePrVjxSP9Ftz6MRTtpcynUSqxguhzY6V1vgVv8ASbxf9kGuSWuo8DtjUrhfWOph8Rvif4TO54zS5phOKTNdJ4w7NJmjNIaCRc000Gmk5osApNNNJSUhsWk7UUnSmIKSlNJRYdxtFLSUCuIRmm04jNIRQMSkNKaSmIbiilppoEJTafim0ANpDTsUhFAxvWkp3Sm0CGmmmpDTSKAGEUnWn0lAEdFLiigQzvRxQ5IHAzWRe312jlIoHI9cUCNVjimGeNRyea5thq04O2OQD2FPTSNTlP7xgg9S1AG8J0Y4Bp4ORVKz0wWwLPMZGPrV7AApgNxRS96TGaAExSdhS9TSUXASk4pwpMZoAQ0lOo20ARsKQ08imlaLiGGmmpdlNKUNjISKaRU22gRljtVST6AZpXFYrlaaVrbtPDWrX20w2UoQ/wATjaP1rVi8A34w11cRRDuFyxqedIdj5xx7kVIrHHNBjB6Nz7005U4NN7koeMDnOaeDxTEGRmpCoI4600Micd80i+hNDZBwRSD1p3ESbSB1ow3p+tNDNj1pQ5PtTAXNKDzxTST6UmeeaQy1ECzADFWthUYqpbqSc1dd+AD1qbAQeUueKeFC8ChjgZxTkZXGKAJoSFjHpSM4z2/ChYzjjmmugU85oAcrgHINWVCSLksQ3tVLKk4xTlAGOtIZpWxZJRtH510kLgxjnmuZswGYAkjNdBDE2BhsCs5bmkC3updx7Go1hwOWNSAAClc0JPNYDpmhZ2P8P60w4pMgdKEFiyGJHJFOH1qrvoJY/wARH0p2QFveAOcCmG5hTrIM+3NVPKUn5gT9TTgoXoAPwpMLk39oKeFikY/7uBTvtM2OI1H1qLjFOzxQA7zJX+9MV/3eKAiHlsuf9o5puaUEdBSAlUqowAKkBwKgAwcjNSZJ9qBkganq2ajRT6U/af7xFAh2/HenicDvUQiQnnk+9SquBwKAJFmDcFTTti9QSPxpoVu1KAepNK4EijH3sn8cVMJLVcEx4PvzUAZR1YU7CtjHNMCcXKHiJQR7UbpH7YquY+eMg0okmQABsgUrDuWQjd2p+wD7xH41V8/PDOwp4CkZ3bvxosIl3Rqeo/ClMrN91OPXFMB9FzTx5mOFA+tJgAaT1A/CnYJ6saaS+eXH4UnBPLlvxpoZICo+81P3wkYzn8Kg+XPCmnYfsKBC/Nu+8celSiUgcdaj8uTvilAA6kUDFDEqS5ya5/xYy/YYdpzl+fyroCsB+8K53xcVFlb7Fwu84/KpexrS/iI5QVoaXo82pOXDeXADgydfyrOBrvrGJINNt0jGF2A1EI8zPQxNZ0oXRi6pFpuiRIkNpHPNIMq0vOKyf7USYhbmytmj9ETaR9DXR63ppvrQOmPNiyV964vHY9e9XKKjsY0LVY8zep6Bp0VgtmsljEixsuQw6n6muEb/AFr/AO8f510PhS6/dz2bNyAXXP61z7f61/8AeP8AOlOzjoXh4uNSSYldF4ViGLm4PXIQfzNc4eBXX6Ftt7CG3biWRDMfoain8Rpi5NU9DQvIhc2FxC3RkNefjIyD1Br0UHBrg7+H7PqVzF2VzW9ZaHLgJe80QHpXXeGf+QT/ANtG/pXImuu8M/8AIJ/7aN/SopfEdGN/hGwPviuDv/8AkJ3Q/wCmrfzrux98VwuoD/ia3X/XVv51rU2OPA/xGQUClAp22uc9W5reGT/xNJR6xf1FdTXLeGhjV3/65H+Yrqe9dFP4TyMb/FOY8U5+1Wn/AFzP86XQbR/sN/dyLiN4mWP/AGhjrVzX7m1tprZriyW6yrbQz7QOfpzVuLUYdR0u4aBdmyFg0eMbTiocdS6dVwo6dzjbO6ezuIriIDemcA9DTS5d3kYDc7Fjj3pbO2ku547eIAyPwoNDxmKV4m++jFWx61m9rHqR7k+nHF1J/wBcm/lVMVasTi6b3jb+VQhKEguMyAeeKtafqNxps5eI7o2+9Gehq1pdvHPHeK8YZhCSpPastcFeKeq1M24zvFo72zvYNQtxPbnK9GU9VPoasg8dK4Czup7C4E8DYPRl7MPQ121new39uJoT7Mp6qfSt4TUtzy8RQdJ8y2MXXdCB3XtkuD1liA6+4/wrmhXo4OK4rXrJbPVH8vASQBwB2z1qKkLao6MJiG/ckU7SNp9RtogM7pBx9Oan1qYT61cuo+UNtB+nFWfDsedU85jhIYmYnsDjio1g0ss7T6pJIGO4iGHOfzrNHVKa9ornRaBMJtGh5yUyh/CtQHkVg+HprPE9taedt+/+9xz9MVuGumLujyMRpUZxGuW/2TWZ1Awsh8xfxrPb7tdL4rgyltdY+6ShrmnPyk1zTVpHrYWfNSR3+nHOl2p/6ZL/ACq0PvCqel/8gm0/65CrWfmrqWx41T42cNrAxrd1/v1TBrW1ixuptZnaC3lk3HP3cVY03RVglWbUpooh/Chcc/WuWSvI9inUUKSZqaDZmxsAZOJZiHb2rltR/wCQjdf9dDXXS6zpkRy14pP+yM/yrlWuLU388sluJ0ZiygnFaTSSVjnw0pOo5M6bw82dFh9mI/WtI5rkB4huYY/LtYILeP8AuhSf5mq0ms6nN968kA9E+X+VWqiSMp4WcpOSNnxDY3V3NbmCHcACCSQBVO30aCKQPqN5Aijkxq+SfrWO00r/AOslkf8A3mzTOD05rNuLdzqp0pwhy3Ox/t7S4FCJKSi9FRDgVkazrEGpQJHDGy7Wzlh1rG4PWnKpbhEZvoKPaaWQoYWMXzN6iDrXR+DDjWnHqhrIi0jUpv8AV2M5+qEfzrpfDOh6jp+pi6uo1jj2kY3AmpgnzF4icfZtXOt60lFIa6jxRc0daKKQwpDRRTEIabTjTc0gCkNLSUAJSUtFMBDTTS0GgQgpKKKAEpDS0hpgFN/ClptMAJpKcRxTaQBTTTqSmA00lLnmkJpiG0lLSUgENNNONNIpANpDTvWkI4p2AbSdadSYpANNJinYxSEcVQhtJiloqQG45pMU+kxQA3FJjipNtBWgCPbRtqTFOCE0AQ7aNlThKtQadcXABSJtp/iPSk5JAZpQ54FJsOcAZPtW8mkBCGlPsQK7XRNIsksUlW3Te45YjOaj2nYqx5vBpV7cDKW7hf7zDAq/B4adsGeYL/sqOa9BvLSML3+lZnkIG6GsvaNjUTMsPCmn5BlRpB/td66WzsLGxULb28UePRRn86rI2wcU83GKV2yuVGg83HB4rPnmyCM1G9wcdqpzTHGeKLDPlAOmORmml+CM8UKExzSlV6giuk5xqtg8VJ5nrxTFQ/eBXH1pWxjA5NO4wOHAzSoQg6UJGcZI/KkahMQ/APNAA9KYrDFOG08BqAFNMwDzT9ufekxjijYB6SbPWpI5dzfO9QYpAOc0h2LzOvTqKSN0DYzioUkxwRkVJuVqANCBwV45pWdc4IzVBXkjPAOKtR4cgnvSYwe3OC68iolkG/b3q28jwpujcg0efFcjDook/vYxSQFmzGHGa6CJ9qAVz9md8nluBgd63IoWA68Vm2aQLIlo83nrTBGMcmnDaPSg0F3k+9ALHsaXeg70ok4+UUgFUMaeAfWmB37Cje/dqBkwA7mkOB3qLco5Lc07KEdc0XAkH1oqEuwPAFLukI6qPwouDRMFU9TUgCjpUKsRwcU4EetFxWJelPGTwKhBI5zTxIR1H5Uh2JlRvUge1Sqo7kmoBLT1cnpQBOMehp4J7D86hDN6ikzzyxpAWPM9cD8aQvu7mogVB60eZg8UXCxMgxyoqQM/sKgV/Y07zCOtK47FgFj1NGOetV/tAB5YU8SoRxk0wHttPWm4HVTijJPQL+JpScdWX8KLisKJJF7g04TLkCQyD+VMyCepNLntTJJkkhI+XJqRWHYVWAx2o3yL90j6Giwy5ub6Ubm/vGqf2hh95fypRdKenX3oAucHrk1PY2K396kDXS2ytnMjdKoCaTHQD360haV/+WhH+6MUAdp/wggKfLqj89D5Wf61xfxA8Pro+mwO2qxzy+aB5BQK+COuMnjihUYDBkc/U1heKlVYICqjcW6+tTJqxrQi/aK7OZNdR4e1VHhWynIV14QnuPSuWzSbiCCpIIPBFRGXK7o9SrTVSPKz0rODWDrehLcI11aJiUcsg/i96boeuicJa3TYl6K5/irfyQeK6naaPI9/DzOAsrybTroyxgCQAqysO1RE5dj3JJNdRreii6Rrm2XE68sB/EK5UHLH61zTTjoz1aFaNRcyHovmSxxD7zsFFdJFOsfimOHOAsIiH1rH0e38/VYiR8sYMhPpioY7x21iK6B+dpw1TB2HWXNod6etcr4ngEd/HMB/rY/5V1R65rE8Twl9NjmH/LJ8H6GuqprE8rDS5aqZyp6V13hn/kEf9tG/pXI9q67w1/yCP+2jf0rCl8R6ON/hGwPviuIvhnVLr/rq3867cffFcVeDOpXX/XVv51vU2OHA/GyvircdkG0t70uBtfYFx1qDZXQXdt9l8NxRHAbcGb6msUmehUqctin4cGNXb/rk39K6bvXOaCMaof8Armf6V0fetqfwnnYz+Ic54sGZLL6N/MVU8PSBbu8RmAV7duD3Iq54q+/ZfRv6VzpOMepOAPWsp/EdmFV6VjS8MwGXWoWHSFSx/lVO8/5CF1/11b+ddXoOnNp9q0koAmmOSP7q9hXLX/Gp3X/XVv50Ne7cunUUqrS6DLXibP8AskfpUnl4FQxnbIDVr+GoRu2aXhxR9umBHBjx/KsrUrM2N/JERhM5Q+orY8PjF5Men7v+oqbVr3SrnFvOS7jjzYhnZ/jWnLdHJKo41rHL4rX8NysupGEH5XUkj3FMXSIWYbdUtPLP8TEgj6itC2uNI0UMRcefMeC0ak5/p+tKKszSvUUoNI364vxBeJeasfKOY4l2BvU5Oam1LxDcXiGGBfs8Rzkg/Mw9CazbWZbeQu0EUxIxiUZFaVJp6I58Jh5QlzyNSyt54/Dd9cRxsWlwoAHLL3/nWLsKKNyFfTIxWq/iHUzgRSxwoBgKkY4/OqV1e3d66tdTtKVGF3Y4rLTodlNT5m5Lc0/DkFxBfrcMmy2dCpdjgV0Mmo2MX+svIQfRWB/lXBMxLfeOKQEc9SacZ20Mq2FVSXNc6zUdU0i8tWt5JpSD3ROlc/E2nJI6yxTTIfukyYI/CqyRyycJBI/+6pNXofD+sTn5NPmH++Nv86JSu7jp04048ty0viWaGBIba0iijQYUElqrS6/qkvS4Ef8AuoBV6PwbrUnDJBCfR5P8Aavw+AputzqMan0jQn9TilzzIthk76HMSX13Mf3t3K31c1AcE/eJ/E13sPgjS0I8ye4k9csB/StCHw1osDDbYo2O7kt/OjlmxPFUV8KPMgee+TVqKxvpz+4sbiTPcRmvU4rW1t8+RbQxf7iAVMGNV7KT3IePS2R5tF4V1qZQTaCP3dwKuweBr9sGa5gjHfaS39K7s5oqlSXcwljZvY5OHwJbdZr+Vm/2FC1fi8HaNH96OWXHTfIf6Yrc6UvFV7OJm8VVe7KMWiaTD9zT4PxXP86uKkUfEcaKPZQKXIppPNVyJGTqye7F3HPWkzSZpM1RFxxpKQmkz60wHUCk3AdTRuFIBaQ0ZFJmgAoNJmjNMLiZoopM0AGaSiigBO9JS0dKAG4zRS0hoC4hpMU6kFMQ3pSU6kNIBDSUGimAnrSE0tIeKBjDRninU00CE6U2loNIBtNPWnU00wEPSkpcUYoENopaSgYlJinUUCGAUtKBilxQAzGaXbUm2lC0gGBeaXZmpQtSpEW4A5PApAVvLwK3dO8J398EeQC3izyz9SPYf/qrpNC8NQ2SJcXSiW4IyAwyE/8Ar10VJO4znIPClrZqWGZ5PWTt9KrzQlONmAPaurqjeWolUkDmsaqtqVF9zlpF5xXSaLIH09UAxsOKx7q2KHOKvaE21pY/xrKLsy5LQuXxIrIZ+tbt7Hujz6CubuCVJqrWdgT0JDN7mm+fmqTTds0qPk9aoC4XyOtVJ2ODUw6VXnHymmI+WeRRuB+tIWqPPzetdBgTBVoIpqh+3NO+buKAHI+D83SpW2sOKhG0ffFKzgn5c0IBVXByVpSQe2KFY9+lKQpHWgBoLAcGjcxPNDKwFIMr1oYydMgD1pjS5bpQZQ38OKZgDr0pASqcjIpyyBW5qH5OxNAXPOTQBoo6yL71IgINU4Dt61ZZ9uMmgCdlZx7U37Oijdzmp7bbKmAelRyblkK7qlgWbHb5gxxW4pdR3rHsLd0f95GuK6OJRsGQKybVzWCKhkfPJpvnEGtEwxuOVqJrJG6HFDZrYqCZyeDVa7luETckjL9K0TZFeQc1VvV2wMMj86pCKNhdXsxZnnbGcbSK24zmMF+tYenqVXB9a2UPyihgh+1ey4pQMe1AI708AGoKBRntTgp9KA23pS+YaQDgD3pwFReZ70oc+hoETKB3p2QKhD+xpDKF5J4oYFjI7U4Gruk+HdY1oB7Owk8g8+dJ8iEeoJ6/hmrGqeFtW0eSJJ4BL5udhgy+cdeMZ7+lDuugXRlhm/vGnbvUUwbh95Sp9D1FODAdSBRcB3mY6CnB27bR+FMyD0oxmgNR24ngsx+lNA56H/gRzRgjoaXcfSlYY4AgYAp2DjimebjrTTOO2TRsFxzO4/iIqF7iZRw5BoaU+mPeoWcseh+uKExMajSu43TOce9aUckqKMSH6NWdGh83NaKqcVojNsf9scH5ozj1U04X9ru2s7BvcVERUbxqwwyg/hTsCZbNzHnIBIpQ0cnVSPpVAW6oSYiVJ/Kp4pJF4YK2O44pWHcuRxGPmN8j0NSfaGTG+PH0pkcy4HFS+aD6VFyrCLcI5wAR9axPFf8Ax72/I6npW4yRyclQD7VznieMRwwhc4JqWb0f4iOcJrX11Sslo2OGhGKx66/WLE3uhW7RrmSFAwA64xzUR1uejWqKDi2clzwVJBHIIrr9A1b7ZGbac4mjHyk/xCuPLDOD16EVd0gSHWbYR53Fu3p3q4SaZNenGcNTvV+9muL120W01R9nCSjeB6HvXZgYyTgKBkknpXE63epfam7xZaNRsTH8VbVrct2efgr+00LWjxYtL2dpEiG0IsjnCgnrVJrGzjx5mqRBhziJC9XruxurfQLWFYnJkfzJEUZI9M/rWRsYyeWqEyHgKeMn0rmbPRi+duzO/t2SW1hkjbcjKMHGKi1GD7TplxFjkoSPqKh0rNtpcEd2yROgxhmHSpn1KwjU77yDB7Bs/wAq6o6xPHknGpocJiuu8N/8gcf9dGrn2trJZwn9obkYkkpEflH41s2er6fp9oLaEXE4DE7mQKefxrGn8R6WJbnTtFG8v3xXFXRA1C5z/wA9W/nWy/iYA/urM/Vn/wDrVQ/tGMuzrp1qHPJLAtz+JrabTRzYalUhJtot6PpjXEi3Ey4hU5AP8R/wrQ18409eOsg/kazDrV+4G10jHoqDFVZ7u6uVC3EpdQcgUo8qRcoVJzTZo6PaXFtfmW4iMSGMjL8ela7Xlqn37qAf9tBXES5Lckn8ai4zzSVTlLqYb2ju2dFrT2OoeRt1GFPLzkbSxPT0qvaS6LpzpOZZbiZR97y8AH2BrFynrUiW80ozFbyv/uoTUSkpO9jWFBQjy82h0b+KbbGY7aZ/qQtc3cyie6mmC48xy2PTNWY9H1WU4j026/GIir0XhLXJMf6EF/35FFKVTmVkOnTo0ndMxl5bFTA8V0Vv4F1JpAZ57eJO5Ulj+WP61qR+CLUf6y9mb/dAWnGEuwp4qn3OKDum7Y7LuGDg4yKiOB1r0SHwfpMf+sWWb/fkx/LFXYtA0aA/Lp8BP+2N386rkkY/Xaa2PLgVPQH8BUq2N5OMQ2Vw/uIya9YitraAfubeGP8A3EAqTcfWmqUupDxy6I8ri8NazLwtg4/32C/zq9F4H1dj88ltGPdz/hXohJPemnNDovqyPr8+iOKh8BSH/X36Kf8AYjz/AFq3H4G09B+9uriTPpgf0rqeaTFNUUiJYyq+piweFNFhP/HqZP8AfYmr8WladAR5VhbKR38sZq1jmk71SpxXQxdeb3Yu4jgAAegHSk3H1NFJVWRF29xSaT8aO1JmmAtFFGKVhBRS0maYxaOlNJ5pM0Eik0maTNFAwpuaWkoEITUckwjQse1S4Bo2KRgjNAFzTNEvdWj86N1gt92BJIMlh7KP8a14/BVucG5vZ5eeigKP61lWmqXtjGI4bh/LAwqMAQB7ZFPk17VXUr9qwMdQi5/PFMTRvQ+EtIizugeXPTfIePyxWH4hsdHsyiWaFLrd8yo5IA98ng/Sqct5dXDZluJH9i1QcUNDsNQEKM8040lFIYUlLSUwCm4pT1pKQgoopMmgApDRQaYAaSik60AFBNFJQMCabml+tNoEFJS0maYBTTSO20ZwT7Cq5uHzhYWP40gLBpM0gORzSUwF4pKQsB3pA+7O1WbHXCmgBTTSKmhtru4BMFncSgf3IyaiBPIZSrA4IIwQaBXG0mKdmkzSAaRxRilpCaADFGKKM0AFLTd1GRQA8U7PNR5o34oAsKRip7e4EMqSYyVOao+YM9aUS1LVwPQdP8T2Uyqk8vltjq1bkNxDcLuhlSQf7JzXkJkFAnK/dYr9DSSsNnsdRuy4PzLn615Cbycf8tpP++jTTez/APPaT/vo0pR5kCdj1C5WNgcsmfrVawKRX6gOp3ehrzU3c3/PWT/vo1d0S7ePWbVt7H5+7Vn7K2xfPfQ9YdQyEHvXK6gmyTgV1lc5q0fzmqqLUUDnXPzVJCSWAqKUfPU1uKgZoKOKimXg1KvNMl6UgPlDviniMsMgA0x+D2z7UqSMBgNiukxHBcHBqTBxgSEj3FMDZ68ml5XkflQAMSoxwaaPY4pSxYfd/KkHXBGDQMkVOKayspxuH508A9QeafwB86ZpkkPHZs0oYHhhTyqA5VcfjSYB6imNCptVgRz7GlcbjkAfQU3YSM05TjvSGIAoHzACkGM+1TBsdgaadpPAwaQD1ETLyT+dG3aOASKYFNTK+FwaAFhuGgPy1Y3tMQ3c1Hb2j3c6omOeeT2rqIPD9tOFgtJiLnGcOh2t9DTUHIhzSKuniUkCTketbseSozVBdMvbGfyJYirL/Fng1oKCowTn3rCceVm9F3JFplwZliJh27vcZpwNOz+NRc6Djry51HzWjlmcDP8ACcCnafZtO55dmHbNdFdadHdkFjjHpVq3toraMJCgVRV8xm0yha2MsJy9u7e6mtBLbnkFfY1PmlDcVDlcpIiNoD0bFM+zuOnNWQadmi47FIq+MMDQBV7PrQURhyoouKxTC+lL0HSrJhTPAIpDCf4TRdBYrA9sGnBdxGYw4B6HpUvlMO35UgUjkimCOnHj3xFtwbiBfTEK8VVTxbrsZk26g37z7x2gn88cfhWJzigDNJtsenYkLbiWYkk8kmm7h2pjKB1c/TNAZAOtSBJuPpSgmo/NQdxQJ096LhYl+Y0vIpglz0UmniQ4+6PxouMcFz97mk8tR0AFKCfUUmCe9FxWDbjsKXLYNIIwfX86XkUXCxDEpMuCK0QMiqiH950qwCa2jsZSQ4rTCgNODnvTtwPUVRJEUPakAIPIqYYpSBjjFJoENVlHbmpVYn7oqEO/I2r+VKoYEEmsHubrYm3sOtYXihxstgO+a28g9awfExH+j98A0mbUf4iMCuon8TQ21rFFZr50yqASwwo/xrm1gnf7kErD2Qmpk02/YZWzmP1XFTGfKd9anGduYtPdafesJLyxkjl/ia3bG4/Q1dtNY03Tc/Y9PlZzwTKwz/WqY0LU24MCr9ZBU8fhm/fq0K/8Dz/Snz9ieSls5aFa+1a71A7JHKRf3FGPzqC3up7PJt3CE9eM/wA62l8LEf6y7/75SpV8M24+9cyH6YFLnlLclToR0iYr6vqUjbmvZc+xx/KqbyNJIZHclzyW711H9gWSNkxtKPQuRU8dlp0ZINjGP94bv50/fe4vrFGOyOO+Q9SSfrUkcZc4SJ2P+yCa7eOG1AzFbW6+4jAq2kjquAQB9KdpEfXI9EcTFp90/AtpR9UIrqdJ+HWv6rbJcMkVnEwyouWIZh6hQCR+OK0N7N1/lXoFh4ssLi3Q3TNbzY+ZShIz7ECrhBX1MamLnb3TzHVPh9rOlxpLLLavCTtZ43PyntkEVmDw+6n5rlfwWvSvEniKC9hFlaZaMkM8pUjOOcDPNcq0ec03TS2ZmsVVa1ZjLosI+9O/4DFSf2TZfxeaw+uK0CoB5NNZV9aEkJ159ysukab2i3H3Y1IljZwEbLKAj3TNOyFPAppnOehNUkiHVm+poW93bwYBsolHqiAVrQXscuNhUfhXMG4G4BhipgcjitFGK2MnKT3OqWX3p24nvXOxX88PGdy+hrQg1KOUgHKH0NaRaIZpCio0cMAQc1IMEVotSWJigin4pCDT5RXGY4pv0p+KQjmpcR3G4pDSmmmpaHcSkJoJppNSAuaQmgmkJoGFJmjNNpDHZoFJRmgQuaM03NITxQA/dTcmm0lIBxNB5pKTOKAHUlNzRmgB2aDSE0UxhmlzTc96Qk+tAh+T60mabmjNMBc0m6kzQaQDs0meaaTRmmA7OaKbmloAXOKSkooAM0hNBpM0AFITSE0c0wDNJS0hoAM0lFJSAKKDSZoAKSl7UhNMBtJjFKTSZpAIaaFVpE8wsI8/Nt6470uaM0wOqXXPDcMSxw6SW44zCmfxJOagfxRaxAra6RGo7liB/IVzRbFNLE1SlYnlT3N+48YajLbGC3jhts8bkGWA9u1c/n1/U0maaTzSbuNKw4mkJppNJuqRjt1BNMzSZoEO3c0bqjJpN3vQA/fQW5qMnNN3ZNAEu/Hek3+9RZ9aTdQBKZOOtJ5hqPNJmmBKZKaXqMtSE0gJDIfWkL1HnNTWcMNzdKl1cC3g6s+Mn6D3oSERl/epLe48q7ibuHBrXj/4Re3+ZvtdzjorDB/SmPrOlxzKbfRYiAeDK2SKr2bsJSPVraUTWkUoOQyA/pWPqoyxqzol8b3R4ZmCgkYwowBVXUDndXNN62Nodzm5VxKeKki4NLKPmpq8VAy2rcUjvUQfAqNnzTQHy5IPQiowDmpSA3Wnqi/SugwI0DntUwIA+YUoGw0MwI6Z+lMQ0kDlQKerbqiZSOV6U1SS3PFIZZAAPSgtxTQeMdaPrQIbuPal3Fh1p64xjIxTCBuyCKBhll75FGQe+DR0NG1CfvYqgF80jjANJubsKCgHRs0LjpRYZNGz4wqg/hU0aO7YKn8BS2ttcSt+6Qtj0roPDmkXt9qkax7cKcncQDQo3diJOyF8MaTd3OtxLBpZvth/1TcKfrX0fommmKyX7TpdnaSYwUhVSP0qh4Rspbe3JuLRIZMABh3FdbWk3ye6jCnH2r5n0PMPiNo6QNDewRBVPDYHeuBzmvafHFmbvw5Lt+8h3fhXidctbWzO6guW6HUU3PNGayOklBpc1HmlB5zSCxIDTs5qLNOBpASA0oNR84pQaYiTNO3VFmnA0gJd1LuqINTs0WGKzEEYp4ORzUeadmgQ8oppDEMcGkzTs0BYY8BbODmoWtiDyuatg0uaLgU1iVTygp/bgCrXHpSGNW6ii6ArA/h9KfuQfwk/jTzAD0NNMDdsUaCG+YOy4p240wxuD900mG+lFguShmpc1GoPcmngAck0bAOi5lqxioIcNIdtWcVstjJ7jce1GMU/bRj2piGjNKE3d8e1KBUcjFRxSexUVqP2unoaablFPzKRUBYt1zSgke/1rG5oTCaKQfe609Su4HIOOmagPz9UUD1xQF2/dcj60mCdi3vY9AaMuPWq6zXKjgAj2FPFy38YI+op2BsmDN0xTxu9aiWZD0IqRZFHQZpWYXHhSfvbmHpmpVVR92D8SajWb0wKUzlaAJDFIeQoFKY8jEoVh9KhN5z900CffVbCIpLUK2YpcH0pA08f3huHqBUp2nmgOF6Gi4rAt5GOGVlPuKnWZWHykVC0ocYYAj6VAUAOU4+lNCLbMd1O5IqoGcYycgVa0RZNd1VLCz4wpeSVh8qKO/v6VaTaJbsKYwRzTGiFbutaCdOshe2l1HdW+cMR1H0xkGsy3sNQfVbO2u7Oa3gnk2ea8Z9PccGn7OWxHtYdWUjEaQxjHSuh8RaB/Y/lSwTtJBISuH+8p/rWGOe9JxaLi09imYx5y5qbaQeKbKMTJV2OAEZPSq6C6lbJHak3pnBODXQW3hy/uohJHaNsPQuQufwPasXVLBrC62XcTwNzjeMA/Q96cLidhI55YsGNzgdqvR6wUAEq/iKpQ6dezabJqNvAz2cfWUEc46kDqR7j/Gqaz78jaeuOa1vYmx1Ed2JBlGBFSecPWuagd4nypwPStCO9GAHH40e0YuU1vNpDJx1qkJQ33SCKdvPc0+dhYsGSkL1W8z3o3mp5h2Jy1JuqLdRuqbjsSFqTdUe6jdRcLEmRRmmbqbmi4Dy1IT703NJRcB+6k3UzdRu4oESbqXPvUe6jdTAfmkzTN1AakA/NJmm5pc0wHZNJmkzRmgBc0ZpuaQmgB2aKTNJmgB2aQ8U3NJmmIdmlzTM0ZoAfmjNMzRQMdmim0UAKTikopKYgo70maM0hjqKbRmncAzSZpDSCkA6kNITSZNAhaaTQaaaYxaaeKQ0E0gCmk0E02mAZpuaDSE0AJmmk8040zNAgzSE0UlABmkzRSc0ABNNpSM00ilYYhNBNJiimIQ0mTTsU3FABSZpcUYpiG80UEUGhgJmkNLijFIQlIaUikIoGej+DLktomwtkqfyq/euWJFcv4NuSsVxBn3rfmYkkmuWW5tHYz5fvGo+1SSZ3HPrUfNAhrMaYWpW4qJzSuM+aM4NJvOe9IpBxjNP8/bwa6Uc4xmOOp+lOjZycdKXMb5OOaQ8dKYxxBI4poUjrSB2B6E1MrM45T86YgBwOopGUuDk04RAnOQKUoB0NJBcjRdvGc1J8mOBzTDwaXDHqKAuI7YoiQyvgEZ96cyrg7evvTQp//VTGWGtpIx84ApmwDBzSqABimpBubcWIpDLNvI6MCD+Fd74NgkuryISTrCpG47eCfx+v864SBQrcjNd94FndtWjhUsiKMELFuLfjW1FXkjCtKyPdfDtvHBZBY3kcZ6u2a26ztLwluiZJIHUjrWjU1nebHh/gKGt2/wBq0W7hxnMTcfhXgDja7KeqkivoqcbreRfVCP0r551FDBql1Ge0hrCex1U/iK+7mjNR5oDVgdBKDS5FR5pM0DJ84pGuI48B2Az0pgar+lanLpF9HeW0cLTIcqZFziluBYGha0QSNHv8AZ/4935+nFU5EkglaGeKSKRTgpIpUj6g11Vx8Tdalj2ww2kLf3thY/qa5S5v7q/nae8naaVjks3Wm0uglfqJmlBqENTgxqQJc0uahDUu6mBMDzSEZPXFM3UoagZMDTg3vUAbFODHvUgTZpQah3UobmgRIzso+VdxpEeb+IKPpSB6UGgCYNTgahDc04NQBNkYpNoPUCmbqXNFximJT7UxrfJqQGlzTuTYjjV4jlVBFSi4xw6H8KAad161SkxOIvmo3Q/nSg571GUU0CNR0zVc5LgS1FNwKCXHTFRyGVyAI+lPmTQrWYgPoKcKiZmj5ZD+FNF0pbGCD71jY0uWcGkIz2pgk9SPzo3+9IB6MQeWNSeYh+9g1Btzzml2r3NMLEjNbk85B9qFP9x80zansaeoXtRcVh++UfwbvcUCUE4fKn3qSMlnCoGLMcBVBJP0ArRfSNTRMy6dclQMkmE4A/Kne24iiqK3cU8Q4pjRKy8ZXjsartHOD8kuR6GmFy5s7ZFIUjH3mX86pMZY/vq/17U5HRurDPvRYLlrMA/jH0pwMePl5qDKDng0vnL6UASSDMTfStr4Yuk02siPiYRoqN3AO7+uKwTKCpU96veDNUttE8TSCVNsN2vls46I2eD9K3pSMKkWavw+1mSK7m8PXkbGQSs6EnIXHJ/Wul0HXjq+savYzqm+xuSseO65I/p+tUre00TwrrV3qU15HJc6pPiFQBuiDEkgc/dyck8dvxk0vRJ9O8dane7c2t1D5iuOzFhkfoa6pNSuzk1VkaviDSm1aGCIziCGNjJJJ6AD/wDXXJ654afT5rZrBpLmK4O1QcFgcZ7de9d7exQz2M8VxnyXjYSYOPlxzWZZXFpbeG5F0u8F0trA2xmk3sCASA3/ANeseW61N+azOBg0W5n8S2ukXsb2pkDSBz1IUZ4xx14610GjaKTr8qCBprG0mMe+QjG4Djjvyau6Nr2nas+kPeFDrDJJtVVOUI4bPYZA/wAK09HNomq6vBbXUk0gmWSZG6RswPA/KhwsEal2bNcN8SI11LTItNh2m5D+Zu/uADofrn9K3JtQuNU8LzXWnnbc8gBTg7lbBGe3SqzeGLV7M20lwW1Er5hk3f0/u5os1uWmupiaPq9rpHgC30ydt155UkLRJzt3FuT7YNcjEOWP+0a6K58N6lbae97OiKFODHuy/XA4xj9awZ4pdP8AMN3BNCFOWLxkYzSsxqcSUEYo3UCCY2MF5sIt7jPlOf4sHFNGR6Vi7xNVZjg7KcqSDUyXrA4bmoM8U0gVSkJo0kuI5MYYA+9SbvesbODxUyXTJweR71SaJdzU3UbqrR3COOuDUu6iwXJN1G6o91GaQXJN3FG6o80ZoAl3Um6mFqN1FxD80meKbmlJoAXNGabmkzVCH5opuaTdxQA+lzTM0ZpgPzRmmZozQA6jNNHWjFAC0GkooEFLTHL/AMAH40ib/wCPH4UAPooopgFFFFIBaKKSmAUGikoAKSlpKQwpDyKXFFMBKSnUmKAG9aPrTsZoxQAztTcVJt5pCtMCLrSYqTaaCtAiEikxUu2kK0AQmkqYp7UhSgCEjFNIqYpSFOelAEJFJipdtGw0AQkUmKm2UmyiwEOKTGKm2H0oKUCIMcdKQip9tJ5dAyHbRtqYx0gi9aYrkOKTFWPK+tJ5YoAr4pNuRVnyx6UbKWoFYLSEY6mrPl1UmUJcL70XAXbRtqfYOlGymBqeGZPK1BhnG4V1jcqa4rSpEhv0Z3VR6k4rdufFOjWeQ90Hf+6gzXPON2axNFkz2qPymI4Fctd/EGFQwtLJmPYynArCu/G+s3OVjkjtlP8AzzUZ/M0lADvblo4F3SyKn1OKypdYsUbaLhGPoDXnM91LcMXnuHkb1Zs1X3xjufwFPkGeejNTROExuG4e4q0sCHnpTJEgXqOa1TMBQ8BGRw3pikIzyoqBtq9KYJGzgMRTAmO9fanLIwG3+dMUSPgnLVMIn6mMgetAgGDjNK0m04TBb0IphIXuPpSrOR93ANK4WAvIR86jHtSxyrkfKfxprzO3JwaaJQTjGKYEzAtyAB9Kauwffdl+lPQsQMdKlQK5w3WlcCH5G+45b6irESMBnKke9IYkU4NPVk27dmPemBNEyF1EjbUJwSO1fQ/w70S00/RUnsr/AO0LOoZlAGM/XrXz/YWIu7hE81EGedx7V774Gj07RrFLUaksjuAQgbPbnpXRSV4OxyYh6q53UIweetW6qQEOA6nINWQfWsZ7muH0iKRkEeteAeKI/K8RXqdD5hr6ArwjxxH5fiy992rKex1w+I57OKTNITTS2BWLR0ofupQ1RbqN1ICbdQHqHdRvoAn3+9Lu96r76cGpDJ91LuqvupQ1Owixvpd9Qb6N9AFjfSh6rb/el3+9KwFoPTg9Vd/FKH96QFoP707f71W30B6YFvfShqqb6cJKkC2HFODVU8z3pwkqrBcthqUMKqh6eHpWC5ZD0u+qwenBqLCLIanBqq7qcGosBY3e9OBqvmnBqdhXJ91KDUIOaXdQMlyD2o2o3VRUYNOzSEMe0jc5GV+hpv2IjpL+dThqUGmBWMTr1BOKbvjH31bNXQaCqsOVB/CgCoksGehqbOR8owKf9mhbkrg+1N+yYPySN+NGgrs6zwJPp0Oout26C9fC2xYcD1APTcePevRZpo7eFpZnVI0GWZjgCvEPKmXqAwp32qVAFZGArRTsrEuF2aGrz29zqU81nH5VuzZRMY+vHbntWd83c0vnow+Y4+tM8xWPGDWbd2VaxIrN0zxQyBhymai3t6AU7zHPc0ARm2AOY3K+xpNsqHkBh6in04ZzTuKwxXU8MCDUoWMjnaaQoD2qMxDsMfSgBzwRvtJXlfukHpWtJ4l1poIIxfOEhYEY4L47MRyR7Vi4cdDT1cg4YVpGcl1M5QjLdHZ6T49uJL2O31SGJYGBDToDwexI9K0tEvvC2nas+kaMsSS3LNK7RgbXYdt3c+lefCVeh4FG6JXDqoDjow4I/GtY1L7mUqJ2lr4ctPD2sW95czb7y5vTHaqD92Mg9u/HU9twq34V+Xxh4sT/AKbQt+atXDLqNy+s2+p3U8txNARs3t0AOcCtP4X6xc6r4y8SyXRBeXDgAYAAbGPwyBXRzqUGY+ycZKx2PgpDFZanCRjy9SnX9RVPUrqaD4q6PAh/d3FhKrj1wSRVPxj43t/DtpNbaRbiW+afE2QVVAT87Z7t6D1rcjtLTW9X0nxNaXCtDDBIo46hh+mOc1MnzPnfUb2UTTvbh7S1SRACTMinPozAH+dPvIYdQhudPuI90MkOG56g5H9KybrUY9W8L3V5BzB5p8tx0dUkA3D2ODWqZAusCPu8GR+Df/XqbBsYHi22sbbwnBHGjIkBRLYJ24wB9MA/lXAg8V3vjLa/hRMHO2dR+WRXnwkG3msqiOik7oJJ0iGTn8KnsYJdQguJ4tiwW65kkkbaMnoB6mqpdD1UH8KcJCF2gkJnIXtmsTYcMntSkd6j8ykL0tgtclyR3p6XLIcdRVcPSFuatTJcDSW6VuvFSh89KyMsOhp6TuvQ1SaZLVjVJxRuqkl2Tww/Gp1kVxkGiwifdRmo80ZpgS7qN1RZNGaQEu6k3VHk0VQh+eaUGmCnUhC5pc00UUwFzS7qbRimAu40u6kxQRQAF8delPgSa6z9mheUDuo4phUHrip47u4hjWOKVkRegFNW6g79CUaZqJAJtwuTgbmAqC4jktpvKcIWHXa2cUPPNIMPNIw92pnvTfL9kSv1DdS5pOPSl4qRiZozS0lAC0optLmgBaSk3UbqBi0UmaTcKAHUU3ePWjevqKLjsOpRTDKo7igSincrlHkUYpAweRVLbFPVsZwKuFdKDf6+Vx7cZpxi5bEy0KeOaQirb3OmRI4t7RpJW4Bk6L9BVHzTjgYptWC6HYzRj2pu8tSg+tAgK03FSZooER4pNtSUvFAEOyjZU2QO1JTEQ7KQpmpcUhxkDIGTjnpSAiKKgyxwKZFJDNkRSKxB6ZrL1rVoHkWyjh2SI2HkD8N+FVtVaG0t4rizfDkfMB3q7Cub+2jYD2qHR7uG70qKeZ2Z+hx2xVmSaHHyKR7k0lEVyPZzQUpDOueAaYZ/Y0WKHleaXbUBnbstJ9o/2TSSFcmPBpKg8/PY0ed04NKwExFGBiofOPoaQSn+6adgJSKo3kbtcRbRk1aaXAyelSIokXcJo8Y7mkxkGSOcVnXt9MuQhwOnStyztYbxrhZNStLeOFN7O7Z4/CsmxtdI1XUTDd6/b21sqF2csFJx2GetJ7Ajnppmk++7H6mqzNj7oq9f3WgRM6afcTTpn5XkXaSPXFZ5lQ8r0rM0QbpGGDgUnlBvvyN+HFJuyeKXeF6kCkA7yo8cL+dJtA7D8qYLhB0Oaa1wM/Kjk/TFMDlFliI+9xSSfZ3H3j+VVnSTHyrn8aQR3GeYTj1NDMhrxgHg5qNRn2q15JI5IU+lRqxiY4VW+tNAKgZTlWK1L5kjDBnOPTFO85WHzRgGmHYT/CKBERTnJ596OBTyARwQaTY45Ckj2qgYbSw4FKsXPvSgHoQR9aUttNAE0TGMAYFEhMhyTUfm7jnAHtilJ34AGD7UMEPyoAGOlPi3SOFRWY+1QiGUEfKcVZjVo5F5ZMnqBzTBm/o+gPqN6kLRzhW48xIt+Pwr6M8NeHrPQNKjt7eFfMx88hTDMfevDfC1zPZ3yNpt/KzryyTEIh/GvfdCvLm+0uG4uo40dx/yzbINdHK407o45+9U1NSIBWqaq6MPMxmrFc8tzqotctkFeE/EaZYvFlwGIGfWvdq+dvi6MeMH/wB3NK10ap2ZhG7iJ/1i0n2uL/nov51zbZpv1rLlNlM6X7XH/wA9BR9qj/56L+dczmjJ/vUuUfMdMLpf7w/Ol+0J/fX865nn1NJ+Jp8ocx1AnBGdw/OrVnHp85BvtSaIH+GPHH6Vx3P99qUfU/nScEHOdjeNpUZAsrm6dh3kcEfyqsJhj7y/nXL4JFAz6mhRQcx1Pnr/AHh+dHnD+8PzrmAzf3j+dJubP3j+dHKHMdT56/3l/Ol89ezD865YM2PvH86Xc394/nRyhzHVCdf7w/OlE69mH51yodv7x/Ojc398/nS5UHMdV5w/vD86d5w/vD865QFv77fnRvf++350cgcx1gmH979ad5w/vfrXJB2/vN+dL5j/AN9vzp8guc64Tj+8PzpwmH979a5ESSf3z+dOEj/32/Op5RqR1wmH94fnTxOv94fnXJJIw/jP50/e394/nRyhzHWiZf7w/OnedxhSpPbmuRDv/wA9G/OnAuf42/Oiwcx6l4c8PW2pW81/quqQ21lbgmSNHG/6nPQdPXPSqWrvoy3oXSJJzbBeTP3b274xjrXnqo5/ib86lCv/AHm/OiwXOu8xB/Gv50nnJn7w/OuRYOB/rH/OomkkBx5j/nT5Q5jtROg/iH50een94fnXGAvj77fnTTv/AOejfnS5Rcx232hP76/nThcx/wB9fzrhi0v99vzoDy/33/OnyIOY7n7VGP4h+dH2yLtIv51w+ZO7t/31QfM7SN/31RyoHI7n7ZF/fH505byM/wDLQfnXBjzR/wAtG/76p26U/wDLRv8AvqjlQuY70XUf98fnTxcp2dfzrgA0n/PRvzpQ0v8Az0f/AL6pciDmPQ1uEP8AGPzqQTIR95T+NefxrKx++351ditZG581x+NJxSHzXOoe4ikkEa2+52IAIrU1TRrbS1jh/tNJr3P76GNflj/4F3rijaS44lf86rvFPGcrI4P1pJBc6kiRe6kUnmHPIxXJH7RnmVz/AMCNM33APErfnT5QujshJH13Yp4ZeoYGuOTULuPjzCw9DVhNbkGPMTI9qfIHMdOzkfdqfSIre5vG/tW++yWsalm2LueT2WuZTXEY8ll+vNNn1vbjy8Of5UcjC50t3cWkl3I9lC8VsT+7V23Nj1PvUHmrnmuZ/tyfOQgpp1qcnO1aagwujpmZD3phwDwc1zJ12cceUtNGuzjpGKqzJudT5m0ZNavwiWSbxVrFyqYh8naxPZi2QP0NcGdenPWNcfWpLPxNqGmytLp8r2jt1MTYz9RWsOxnJcx6J4xtvI8Q3QmVSJSHQ8HINY32q4Fg+npdzx2ki7HijkKhlPUY9K5WfxNfXc5nuW82ZvvOxyTSp4hYD54fyptu90CirWaO907xNqGk6VFpltDbPZRYVVKYITOccYH6V08HxDsHYveWc0IUHDIN/Pf04rxw+Izn5Y2H1o/4SKVuka0+dvcTpx6Hs9treg694cupbwm3topWJjkfD5GSCMdc5PAzXnm9T/FXLNrTnpCmfeo5NcuiOAg+lKbuhU48mh1hcDuKb5wU8kVxL6vdtKCW+X+6O9WRrFwQPkWsrG3MdcJ0PcU7zAehrkRrdwv8K1KniCZWG9ARQ4hzHUNLioWuJs/JECPUmsX/AISEFflh+b9Kb/bc5PCLU8ocxvRyyH764+lTbqwI9XuGcAqnNbC5ZQSTzSsO5Yz6ZpQzA55FQgH1Nami6Fe65cSR2gULGMvJIxCr6DoeeKpNidiBLp16nP1qylwr9eDVGeEw3MkIkSXy2K74jlWx3B9KYA4PenzCsaueODmlBrOWWRe9Tpc5OGp7klvNKDTEcN0Ip+GFABmlzSYPpS0ALmlpBRzQIWlzio287PyqMe9V5b+K3bbISX9FFMC5nNJVaC+S4k2ojD61b2n2pgJRmjafSjaaAAGnUm0+lGDQAE0Zo2mjaaQADS5FJsNJ5betMBSwFNLineST3pDbZ6tQO4wygUwzD0qb7Kvc5o8hR2osFyv5pJ4BpfnPbAqx5Z7UGPHLcD3osFyER56mk8selOkubaEfvJ41x6sKoz+ItKtxj7QHPogzT0KXM9i6EA7U8Ia5u48ZQjK21uW934rOl8V6jMT5YCZ/uipc4o0jRqS6Hb+We4IpCqr95lH1Irz6XV9SkJElxIvrVvTrG+1K4RQk8hLBR1xkmpdZJaG8MDOTs2dvEiTPiN1Y+ikGtW20IzLvkuEiHfIzVCTSZdFligkYMSuTjsa1VnLJyc1yyxkuazVjueXUoxTi736mTNCIZnQHcAeDjrTdtXbpeQ3qKrbeK7KT54qR5OJpqlUcUR4oxT9tIa0sYDcUYxTvwNIfpQFxtB5pc1HJIsSGRzhV6mnYVwciNGdjhVHU1zPi+W6sfsvmyxLBcRCRDG2eozzWfr2vC6k2Rk+UvcGuZxLdMV/hGW5PQUWGmaEcTTus32jB6jacg1oXl2ktttSFwy9+1ZVhZloZpftMUUcQyUkON49q0EZZLbejBlI6iqQmbXhNnewlLMpXfgKB0re2ZrjNG1yDR4poZY3cu2VC1ov4zgX/AJcpal7lHQ7aTYDXN/8ACb22cfZXpp8bQA/8ekh+lOxJ03l0nlY//VXL/wDCcQ5/483pP+E2Q9LWkyuSVr2OpMYpAg7CuVPjXPSyP51GfG5Bx9j/APHqBckup12BRwBXN6d4me/n8vyAg9Sa3Wk+XKsDx2p2E00F0I3iZGkVNwxk9q5i60mzWT95qTtnsDVzWrJZoZbp5WURrwBXFJJJKSIpC7DuaT0EtzpTbaHAPnaST1G81FPDokseYIfLA6ln61zp83OWz+VMe2eVTIhDbBkioKLcn2YH9ztqWBt3f8qr2GjXmo7zbRFmQZNaCaHq9mN1zYzRoOrMOKhspMcsIIJJYn60wRKuTt5q1BGzdqRkxmkUVTgHoPypCx2HmpGjLfxBR6mo714YbJ/s+XmHRjRqBxhum/u0huv7278KjVoifkk+m6pFTJ6g/SrsjIcrwycFnB+lKIlJGx9x+tAj9qOUNAiRowg5NV2GWqXerDDAmkB29P1pgNRcGpkJ28PioyzHkgD3FOWYDhsY9aQWJcbs7iDnrio2Ta42AsPSnqQRkKasRxpwzZ+gouBEEd1+ZI1+lN2Sb8IQMd6mlZdpxUKknpQBOGuUwzjd6Gp1u5Sw3xqQKqZx/CafHubn5RTQM3dNuLPGbq1kyGG0ocD64r6O8I3E0+gwSSRCONlBjGc8e9fNdo0sbIS6MgPY19D+Bri6l0WIXEluUCjYIzzj3rqTvTsclVWkmdWq5epwu2qlvcwSylY5kdh1CnNXa55XWhtQs1dBXzz8XV/4rBj/ALNfQ1fPfxa58WSf7tJbM2e6PPCtM2inNTCcVmzVDSlKE9TQKdjmkUGwUBBSgU4A5pAHlilEdOAqQL7UDsReUKaY6slOKYVxSCxBspNoqU0wgZpiGYpcUuBRgUCE20uKULzTgAKAG7aNlDUnNADtmKXApuTTwCetOwhBjNPAFAQE9KeEpMYmKeFzTljGanSEGkMbHCDjNXobVG6g06C3HrWpb2y8VNxFdLGMDvS/Zo+mK2IrIMMAVKdNAHA5+lTzDaOektkHaqr26/3a6KaxKjpWfNakU+YVjIMYFRlKuvDjqKhaLFO4FfavcUhAz0qYxVGUp3Ajb2pq81LtpNuKYgxmlxQBzUgWgBqoDVmKIEjimolXIYgccVLYFm2gjJGVBrZt7SAqMqPpVO1g3YrqNN01ZUBxisZzsaRjczDZRbflWs24tFB9BXeJoCSLxgfU4qjf6EkSk8Mfas1VRUoHASQAE1UkjFdLe6cFJ5xWHLbEMc1vGVzNxsUCi55qNkXtVl4uuKiZMCtEySEotNKCnEc96XZkVVxEQxRgdqeUApuBTuMbsHejYKkAU0hHPFFxEW0elGB6VJtpNnNO4hmBShQacUpAoBp3AQKo7U3j0qQrTQnNFwGbaZIDtOBzVgimsoIouBSijJbL1ZAFGwg0Yx1oAd8oNC7R6UwjNNoC5L8ueKnj+6KqqKnjbnFKwFpCQ4I5PpWn9t1MxBYLdPqay42AOTXc6V4X1C+0M6tLLbWViq7hJcyFdyj+IcdPrjNKWg1uct9p13/nmlSxan4nhtZbaKYxQy/6xEwA31qUahac/v04OKX+0LT/AJ7pU81ymiqt1ragKI4sD/ZqVbvWz/BF/wB80/8AtK0/57Cj+07XtMB+FAFmGPXplBxCufVasNY68qbvMtfpWeNUtv8Anvj6Up1W2P8Ay8N+dNNrYTJ2udRiiYMq+Z0G01hyW/iV3LLdbQexatf+07bp5vNPW/hxncfyppslmF9n8S/8/jfnThbeJv8An7P54rc+3w/3j+VKL+H+8fyptsDIisfE0jY+2gf8CoksPE0f/L8rfRq2BqMI/iP5Uv8AaUJ/iP5VF5FnPn/hJwdpuZCPrV7TE1RZM3hL85JPJNaB1S3B6t+VN/tSEdM1d2ZiakNTkVY9Ok8sZyW7ms1rfxOoH+nfhnpWsupxMRjNSS6hGUGcjFF2BheT4n/5/f1pfJ8Tn/l+/WtJtThVSzMwx7VAdajKExgs3p0p3fQCFLDxS5/5CKj6tU40XxQ//MUXn/bIqsb+9mcbHRF9hzWjbwzTKPOvpcHsKNQuiEaFr4nSKTWY1L9zL0rS8T+FLjw3YJI3it7i9cAraxxk5/EH+YpqafpyY3I0h9WOavRLaR42RLx7UJSuDkji4E8Szf6uaXHqSRWvp+la0l3G93e/JnJXeTmujM6D7vH4VE8wyvPer1M+Y2g2O2aa0rDotQi4QjNHnpjr+lIoWe6MELSspIXsK5O48cS5Kw2aA9MsSa6W6mSS1kXnO30rzOQEXMnHAY1lOTWx14WnGbfMbUvinWJvuERqf7i1nPe6jdkiSeds+5qxBPGqAOTjsMVZW6XbhYXI/wB2o5pM7OSEdkZU1tKkSySsxJ6Ak1AGAPStW5We6XCxAD1Y1V/s5lUmSUAjsKh8xrFx6kSruUkCrdkpGcYB7H0pdKRZJtrY/GtsWVovzyGPPualX6lSkuglm1krqZGQr64zXoXhzVbGJVS3huZWHCmKDha4m0vtMtZVJSNiv91Old9oniGJoS1nY3DjOT5SYGPfiuqnFGTTaejZo6nYXeuSxtHZ+SiZxJI+Cfw69qWLwpIFxJdKp7bVz/WrVj4lGpXJt7ezfeBk7nxj68VriOaSGVJnUFwQNg+6Me/U1lKjTnJyMamJxFFKnblS+f8AmeeXTqqjnIzgH1qmZR61b16BdMu5bdWLhcEE+4z/AFrAe7x0Wrw6tHl7EZilzqa2aTNFrlEGXcAVnz+ILaI7UDSN7cCqlzctKn3RxzWFd3siyuiwrgdGI61vc4kkak+vXMzYMiQL/dXqa1dLupLm1C/O7L1964wWjXKFpTskz8relSxarJ4fidRMWMp49qExyikdjNfpbyiJyPMJxtBzXJ+Itfl+1zWbI0aocbT3rOt9SMs5n8zLlslmPWqfiOc3+qNck4LAbsHitOhnYZb20moTHe5iiwTvxnPGaitpoFj3u+5QD8oOCabf6ikVtFaWzbolGfcHvWWZ1hjIABJBpLQB+o3y3U2x8pEOAq1vaC6yaWQh4UkYrjZH3OTXTeEpflmjY/Lmi4EWqlo/nUkMDkEVPb3/APasSwuwSRRkk9/pRrSYjkrlxIVkDKSCOmKUhxZvMrrdNCgZiDirAgmReUOPWs2y1cW7EvGWcjG8HmtBdeg24eGVz6jFKzHaLIc0E1FLqFmz7sTJnsVpgvrRmx5pH1WspRdzrjKCiWAeafHEsjqCcAmqxubTcAk5JPqK19GED3gLMkgHQA0ldMbtJaHQWXhu3ePfBOVxzjPJrRhSS2bymYMq1Yi0+0tAlz9pK7uMFulc542v0soFtI5CZZRuZgedtdMTmlGxk+KvEi3KNp9m3yA/vJAep9BXKwSzQndG7DPX3qJuSTU8bBbaQ4JcnCgDrUyMluWI9SlU8vk+4phu3L7lfB9qpPDMg3MhA9TUZYis7jN/T/EV9p0oMMuBnJHY13Wm/Ed9QH2TUbdGU8EjvXk6yHcKuRSmMq4PIOaTQz1qTSoLpfO0/ahPIizkVyGrXo01SsqN5m7aR6GtbRtXke3R1bJXtWB47ulnktflCu2S2KmwXGtMZgCD8pGQKhliaWMrnGaoaRclk8hznb0rWFaJBc45bJ8gkH61cih4AqtJeSEjgAewpRcE89KlE2NDygF6cVXnj+UmokuHH3cH6mnvIWGGkBPoO1U7CKhMgOOtKrOv3hxSiJt+Q1Tx2kkjZLgfWkguMDqyYIphA3cVfayiCdcntVR4ihwOaYmyWJtoFTiRsfK36Zqqu7HNSAyR4ZWANSxokMTSepxTdrp0jI+tRNI7HMhOfVad9q24XacUWAvRTSFQGxn0IqKVfmJZR+FCTxlRtBLH2oUtLIF2kZ9aQEkKshDLu49K9R+HyWLvH/aF+2JMBLYE5J98dK85hjIwiDJY9DXufghfCWnafDIpsob7HzSOw3E+2a68M92cmJ2sd/ZWtvbDFvBHEPRFArQrMtL6K8RZLcM8TdJMYB+ma0gcisaiaeprhmuWyFr53+K0Eo8V3EpIKZxx2r6Ir538VaFrHiPxXqdxp1pJPEr/ADNkKBj3JrNtJXbOi12jz5smmY5qa4ieCd4ZF2uhww9DUPNRuaigU4CmZPpShm9KLDJQtSBQKrh39qdvYd6VgLKpmpkhyveqXnSDninrezDpj8qTi2O5d+z8dTUbREDrUH2yc91/Kmm5mPcflS5WF0PaM1GY6PNkPXmk3OaqwgxjpSbaXmlOcdKYDcHNOxW9pvg7VtTgWaNIkVugdq27b4Wa/cgFWtRn1krKVWMd2Ukzhse1Lsr0yP4La2ygte2Sn0yx/pVuL4KakR+91K1B/wBlCan28bXSf3P/ACJaR5RtpQtewR/BSbHz6pED7Q5/rU4+Cid9XI+kA/8AiqXtk+j+5/5C0PGwpqRRXsY+CsPfV3/8Bx/8VUg+C9qP+YrL/wB+R/8AFU1Wv9l/cwPHVU1ZjU168Pg1ZD/mJzf9+h/jVhPg9pijnUbk/RQKpOT2QXR5LDuBxzWvaRs5AAzXoy/CPTVPGpXX4qtTR/C60jPGqXOPZAKJRk+gKSOVs7IOB8hNaA0sHrGfxrqI/h/aRrj+0Ls/iKk/4QO1PXUb38GH+FZ+yn2NOaByT6MrfwAVmXmigZwfwxXoY8B6d/z+X/8A39H+FRv8PdLf715qH/f0f/E0eyn2FzxPJrnTimc4FZkluFavZm+GejN1ub//AL+r/wDE1GfhbobdbnUP+/q//E1SpzXQnnR4o6VEUzXt3/CqtA7zXx+si/8AxNPHwt8PDvdn6yD/AAqrT7BzI8KMZ7CmMMV72Phh4cHWOdvrJ/8AWp4+GfhoHm1c/WQ1N6n8v5E3R4ApBPNTKtfQCfDzwyg401T7l2/xqUeA/Da9NMT/AL7f/Gi9R/Z/FBdHgcSA1ft4xkA17kvgrw6vTS4vzb/GpB4P8Pr00uD9f8apQmHMjyjTooCy7pFXnua7rSI7JI8Ncw/99gV0lt4b0a0bMOm26n3Xd/OnT+H9JuZFklsYiy9CBt/lWc6E5di41UiskWnvGCbmIj/fFVbu30gq2+6hyO3mCtT+wdL72UR+uTS/2Hpf/QPt/wDv2Ky+qVPIr2q8ziL+00p1OLqHIHYg5rjL21t/Mby3U89q9tGj6YBj+z7X/vyv+FJ/Yulf9A2z/wC/C/4VrGhNdSZVEz5/kt1FVmhWvoj+wtI/6Bdl/wCA6f4Uf2FpH/QLsv8AwHT/AArVU5IjmPnJof8AZpBF/s19G/2Do566VY/+A6f4UDQdHHTSrEf9u6f4VXLIVz5va2c9I2/Ko2tJgeIm/KvphNJ02P7mn2q/SFR/SpUs7aP7lvEv0UCocavS39fIVz5iFnP/AM8m/KpF026f7sLflX06IYx0RR9BTti+lPlq+X9fILnzD/ZV32gf/vk0f2VeZ/1D/gpr6e2j0owKajU7oD5kGkX7cC0l/wC+DSf2FqZ6WU3/AHwa+naKrll3C58yDQNVLACwuCT0xGaD4f1cHadNu93p5Lf4V9N0VXK+4XPmj/hFPEA66NfA/wDXBv8ACj/hFtd/6A99/wB+G/wr6Xopcr7hc+Zm8L66pwdIvs+0Df4VBN4d1iAgS6ZdoT2aJh/SvqCoLi5it0LSMBUTbgr3Bas+Xzpl2vBtZh/wA1BJY3CZLQSKB6oa+gdav7UAFY0YkHmuO1NYp7Q/u19eBXKsXJvY29loeWrbSlchCRTlUqcEV1LxKW5UcH0rCv1H2s10058xk42IwARirOpavqmoWMFld30s1pbgeVCThVxwOB1x2zVdBmkkAK81pNjiZTDb0pvJqeUAMeKhLAGhAwxRik8wUhcZpiHD609eDUIcU7eKLCLMrcg+tbluu63U1z7txXQ2LbrRDTQiTy+KURCpQuafsouBAYhikMQxVjbQUx14pAVfIWlEQParIQE9Km+zrtyBQ5JFRg5bFJY8VLIoMK5HSpGgYcgUjriLFFxOLTMW9GIn+lVbSQvDzjOa0byLMbDHasqw+4w9DVJksuwOfPxXRQf6ta52L/XV0VucxLTJJwOalXGKjGKkB4poljx0pj9M+9OzTZPuGmxF6PlBTxUVucwLUlIoRwCpB7iuJ3wwTzpJjlyQPWu27HNcmbeI3Nydo8wtWVRHbhnZspm8t14WNifTFPW9mklEUcZDdgajTjWIBJ/BVwoYdejkXhXBxWSO26W5Umu7mG48ltqvnB71YuLZ4SvmzZaUdu1VdWQrq4+tal8ENrDI/wB4Lx9aaJlokzNsIBLf+SGIjGckda1L4QwW8yFeeiH2rEheWC8BTr1rpdkeradI3IePr7VKiaSk00zW0bRbebwbLIqBp5AWzXd+AnEnhMrtCsCwbArkvBMu6FrFz8vl4UV1PgrNompWMgwY3z/OuiEeqMK07xcTM8KSeV4pEZ6MHX9P/rV6FMUjHnOSPLBPXrXD+HbZLee81WZkCLPthJOMrnr+tb+u3cMstrZLeRxMZA8hLj5UFRTpuCszTHyVevFx7WZw+sy3M9zJJdAB5OR9KwmGDXQeKNRs73Wtti29Ik2s46E+1YL9eKdFWbVyMyfMoStbTYiIBB+lcZrWvrbXxt4UEhiOCT0zXa9+o/OuU8ReH7Xdc6pJKUGB8g9a2R5qZn6dealrE7QWsUScZLk/droNS8NJH4e85roy3qAHIACk+lcJFefYi4tp5FZhg4PWpobbVtRO0eekf95mIWqsJyNdLjQjo4a4kuIr1QQwjUHce1YkktxOv7tSsXq4wa14dOs9LG+YC4nGM7ulUtVuTdRbY12qOijtVk3MmRhHlQ2T3NU3kJNWCI3HB5qu8TbdwGR7VDGRl63fC8mNQdc/eFYO09609Dl8nVYjjOeKSGdPq6F4346iuHbhiPevQNSGYPrXBTxnz3HvVMkYHNTKknHv71BjFOEhU8H86QzZiuGEKq4V8cfMoNHk2cg+aEo3qnT8qhQfKKeMikO5INOgcbkBI9jyKfb6eIbhJInKupzzTEdlI21dikyCT1rOSZ0UuSTsz0C0urDWzDbLIxdQN56DpXAePLiOXxbcRxH5II1jA9MZrZtcW0Ksh8p8ZBTgjFcFM5lvZ5cnDuSM10PRGDqKTaXQ1bbTPNZfQjq3FbFrp0UDDc64HYVkwXTtHGM9BitG0lDyBScZrBt3KSDXTC1s6oowMYNck/3j9a6XVv8AUPj6VzL9TQJic5q1E2R1qnUsbgHBNNok6rw7eeW5hY8Z4qt4yP8ApdufQGqWmaglnch3xtPBPpTvE15FdvA8RJXHU0AZNrOYJ1bPeupjfKA5B+lchW9pVyJLcoScp/KhAYLYpmc9KVJVfjGaViMcACouAgRyeM1aiU8ZqBHPFTq2elO4FnK7ego8zA4qA5oBNFybE3m5703eM5NRgcZppfBxii4WJjtJ6hRU8VtEyl/N6/3jVYKrjNPUwp/rORQIc6xg7QQfpRGxjPBOKmSJZV3IAq/Wo3Qh9q8mgZOt1EiZKqhxzgdaiFxukDE4HY0xSQSCPrSMVIIK4NAy+k64yGziuq8HatoFpePNrcbMy8RLt3Ae+K4iIYxycVZLQYUKDv7k1VObhK6InBSVj6CtvH0N60aaJYzPEqj95Mhxj2xx29a9CspmntUdwAxHIFfNPhLV717yO0e/NvaKPmYDkD0FfReiahYX1jGLG5EwRRnJ+YfWuis4ygnFGNCm4TaL104jtJpG6KjE/lXl1pf3K6VdyMVUb3PJ969K1W7Sx0q5uJBuVEOR614nqV20tjIjKm3knj1z/jXl4nWNj0qC1uec37GS/nc9S5NVMVckAMjEetR7R6VtHawpLUr4pccdKn2j0pQntRcViuBTttWFiTvUgRcdKLisUsUBe+KviNPQUvlpxhRRcLFELSha0QigfdFLsT0FCY7GftpdvtWhsXHQU0oPQUXCxS2805UzIv1FWCg9KRV/eL9RSb0BKx6zos3labEPUCuksL9YyGLH8K4HT52FoMt9BWlDfuBtEgX3NcE46nXFnptpq8LqAQ3PtWrHOkgBVhz2715dZapLHMoa+UrnG0ZroF12QFQjAj+8TyaqnOVPbYznSjLY7WiuRbWWCEtM3v1p8OpyNyFlb0GDzWzxdvskfV33OrozWEusiCPddB4x2BXJqObxDblcJJKD2IizR9bVtiPYSudDmjIrmRraWilnWdi/IZ1xn6VYj1uCVVGGZ2GQo7fU1P1x/wAo3Qkb2RSZFZP9qWyITvVR7kVGdXgP3JVY+inNH1t9hewkbRdQMk0nmLnGT+RrBfU8MPl2t6sRwKYuuMW2xQfL3dmwDS+tz7FfV2dFkUbh61h/2s2OevtTTq2B1/Wn9al2F7Bm7vFJ5i+tc8+qHrmoTqbk9TUvE1B+x8zqA4Pel3r61y41Qr1Y06PX1j4ZBk9sZzQsVPsJ0ezOm3L60ZFYS6y7DKxA/higazKJQGiG30HU1Sxb+0iXRZvUVmQ6o03SAgeparAu2PATJrX61AXs5Fuiq/nSY/1f604yP/do+tQJ5GTZozVSW4deFQkY+9UBvnC58pv+BcVLxS6IpU2zQ3Um/wBqyDqMnfr/AHQKhfU7kRMVUBv7x6D8KweLm9i/Ys3t6+tLuHrXKnUryceWJzGP7y4/wpDqJtm8tBNNj7zs1WsXPsP2HmdXuHrSbwK5VdZduRkfWlbV3IxuoeJqMXsfM6ZrhF6mgXCHuK5NtRfPL0DUGH8VT7ar3H7OJ13mqe4/OjzV9R+dcoNTYfxUf2mx/iNHt6ovZLudV5yeo/OkNwg7iuV/tBz/ABUh1B/7/wCtP29UPZxOqFyjMQCOO5oNzEDzInP+1XK/2i2MFwB60w3tuGbMkjL/AHmwB+FJV6q3H7KJ14mQ9HB/GlMijuBXIR6hHjbDM6juVPNT/wBowqoUtJI/qSDR9YqB7Fdzp/NX+8PzoMqjqw/OuVkv4oxkbi59GqNrxJ12FZMnqN2Kft6g/Yo3H12BZQgR2HdgMiop9ehiUsFY+2KwZtUuomMdvEgiXoFcfrVCS8nlctJFk/7wrNynL4mPkj2NuTxIZA2Ylj9+pNZV7qcciFmkGT32nmsu5uZt/wAyrGo6KXGRVCaaSXqAQP8Aao5QTsW7rUUkGEYt6kiqyy+ZEQTn8MVVeU4wu3j0NNjlwDk5NPksFzPuRtdsetc7f/8AHxXSXn3s+tc3qBxPXRR3M57EKHFJJJxzxSK1VbksZODxXRJGcWRS8knNV2Wrwu9sexIlHGMkc1UfJJJpRBkWKMfWngA+tLtFVcRH0FHapQooKgD3p3Cwr/6sfSuj0r5rRfaueZQY+a6HRebT6GgRohadinBaUDmpAQLSFc1IQKMYpgRhcGrkEDzIduOO5qtxV2ywVIyQM9KTVy4Sa2IZoHQHLLiqjLxitK4jCzlc5A9apOtO1hSdzNuUypArCtOJZV9DXSSrkkVzq/JfSimiHsWU4mFdDaHMKmudX74PvXQWRzAtMkuDGKZLMIULHFOzxVDVmZLF3XqKYE39poOwzSHVEIIO2uNN1OT97ikFxNn7xotIaSO5i1iNIwuBx70/+2kH8IrzXULy5jcBZCM1SGoXn/PdvzqbS7lKx6wNZV2wEBrn5ZG+2SXCKc7sEVxI1G9A4uHH41KmqTov3jn3PWplGRvRlFPU7O9dPOQ8bwMnnpU1xcQ7reQyqHH3ua4VtTnc9RmojcznualQZ0OrT7nbXV1Zvemcy5VRhcdzST6xazRRwhXO05z61w5knPdqMy+r/nV+zZHt6aZ1xvWa989I1AxgKTVyLUJFt2hWSJFdsvg8t7fSuEZ5T/y0b86b+8/vt+ZpKmDxfZHpdtrE0E/mxXsUTEY4xxV+2vnYOW1ooHOXAYDNeTAOerMfqaUI59auMLdSXjJdEj1K61G0TCvqTOq9AWyKpnVrLHF0n4mvOhG59aPIf+4TSlRi+o3jqvRnoj67ZRr8lyufUGqL+JYN4VJix6YFcb9hnK58vioQfKk4AyKqNNR2MKledR3m7npKXqLaSXNxOFjQZNcfqurS3cksIlLW5PC46iqT6lczo0UkhZWGNmeKt6npo0148sTvPcdKtIzZQsrU3GoQx4273Aye1ddqVwbGIQQsQwA+YVh6MA9+W7Rrn8at6gSzZyTx3rRIzZT3luSST6mm5waanzc4pTTGY97CYJsr9xuRUCSsp9q25okmjKMOO3tWHNE0EpRh06H1qGhjiyN1FSWjLHeRNno1Vqt2KRyzqjuEYnhj0qbgzt7k77YHHUA1w9/lbuQY712wG6wUE5IGK4/V1xdE461bJRnk5FEa7pAPU00mrNnHly5+6Km5ZfHAwKeDUS1KOMUCYD61ctEaWQRpguegJqn1qaCRopUkU4KnNO1wUmtTenstWljZUgVSy7ck5x9K426sbiwl8u4UK3bB6169Zzrf6ZHcoc7159jXm3iSGVtUdid3H6U3cmKsZ+nMDIyE8npWtYuq3aF+QD0rDtJFiu42PTOK12PlT8fUVk1qaov6ziWHcEC+wrjpPvGuwvXWSwDjr3rj5z+9Ye9CBjCaQkHmmE0ZpiHoxB4NSSyl1APbpUB4707GUzznNIBAa0dJmK3ewkkOMVnCnxNsmVh2NAhAo9MUjqccdKkZAp6ikxxWaEQDINTwsxOMcU0ozfdFPSOVT2qh3LSg8EkH2pCcUwFh1609d7HaOKQhC3HBquzHdyameIqeaEjXuKdwCKYqOgIpxZX5ZcfSpEijPtT3hijHMy59KBEW1CBhyopCCBhWJpA6q/OMe9Sq7TAAINmeSRSAWBWLAY4qzJbN1GPzqMb2bZBExx3prGbOHIyO2aBiB9jAdfapZIpAoZhgGmx+Wjh34PbjOan3iYAucD0oGEGQAxziut8N+KJtHvY5UdzjoM8VyKrPKcQodnqeBVy1ZxIEiCs3rUubQ+p6Jr/jfUfEUHkzZjt8/dUYFcZNqlxMhiZiUB4GavW0O+MLK+c9VxxSXVrDgRxbA3YAVhKV2ax20MRjzUZkUdxTroGEkMMEVh3Mrlzhjj61tHUGzbEqn+JfzpfOQfxL+dcyZGB+8fzpDIx7mqsTzHT+en94UomT++v51y4kPqfzpRIw/iNHKHMdV58f/PRacLiIf8tF/OuTEjE/eP508uw/iP50OI+c6r7TH/fX86Q3cY/5aL+dcuGb1pQSTRyhznSfboh/y0WkN/COsgrngpJqwgAxkZpNWFzGt/aEDMAGOatoQWU+9YilcjCgVpwOcrzUtaDTud1YzqLUAmrHmpJwpzWfZAG2zkCpPMdWwGx71zNam6ZqQ7QM+YF+op63M6tlZivvWWJFByZTn2qRCrtkyEL296nlKudLBqKxqoM7ySHuRwKbPqt7JLuimlaT+8RgD6Vh748YMzhe+0UCe3j5WaVj6cClyhc3LaeVJfOvzLIx7sc4rTXWoFbeINg7M5BP5VzEV3CVBmlyp/hB5pz3duB+4hZyf7zUuULm5PqlpcTGUwmST/noX/pUyziEbViCFupMgrm5HwC2Y4z7tgfyqEyQOMSTO/8Au9KfIg5jpXu7N/8AWFcA4zupBqVkhC2kTue7BuBXOCewiGHjkf0zU0WrhnEUUGwNxgDJPtijlQXN0azaxHLW7SP3y9TR6sZQP3SrnsCeKzb2C7sYVkmsdinn1I+vNZ8V3Mz5+UJ2GKXIK504vT3NKbokck1ixXAOMmrSygjANHLYLlw3Jz1pPtB9aq5ozzS0Aurc4680n9ppbthYFJPU4zVUGnrj0FFkBdTXyRmSMn0A4xVqHVZZWH7gqPWsxJjG42ouT3xWnAJZCM4x9KmSHcvxahJIcCJyB3rUtp52AxEw/GsG+12LRwgnzub+FaWHxbCcDlT/AHS1Tylcra2OoWSYnBXbRK7Kp/dEj69awF8VW7TwwpG8jykAc8VuOuB8xAFFmjJw5XqjMvL66+6kQA7/ALzFUXlvQmTKo9i1XLuMSbiNo/4FWJcQkN80qn6GhIvYkMl2OfMBPclqa7u4CzsGL9FB5P8A9as2bcW4YjHvVN1cuX3sWPU5q1ETNucyxjHnwL7Cqv71gd1xDk96z0jUdQ5J70rlui7gBVKImy4wdQNtwgUD61F5rBsrJu9sdao4XPzSOTTsRlAPNKjv0ppEtmgJyR1waUSnu1ZOVjbCOT7lqnWRtuSaqwrmiJsd6PtBz96s7zSaPM9aOUGzQ+0N/epPtDdzVDzKTzOaOUVzQ88nvUJEZOSjO3u2MVWEtSRyndweaOUdzQhkWPH7sfnVr7UCm1YVHvVGESnBAB9yKtxI7/MpBPsalopMcJto4jUn35qB7tpB9zbj0XFSyGR1PzqAo6k9KzpXnkHEqmP1DdaLARSXMiE7VH4CqM5uZmyXYe2MU43kU0hSJ9wHVs8VXkuYQm5Z1Yd8GrsTdjflgzu3Fu+agmuQwwMioJr6FULGVdv1qNLiB0DqRJnkU+UVyUONmSxFLFIozyfxquZVPRQKQSASYpNAmS3ZBxiub1Ifvq6OXlPpXP6mP3oqqW4pbFFUdumKdIY4xh+tKhxUVyoYZx0rpZnEhklh7VA0q56UMh9KYUqUVYXzB6UnmAdqNtGw5p3AN+O1ODE03bU0ceRTQmgOTHxW5oLE27j3rLSIFcYrX0NApdRVEmyoPpTtpoCsPSl59RSEIV96bjjrShge9IxApgJnmp4GwwqkZ0U/McUhnGOGxRZhc1JX3PkkVWkI7VRE5JPzHikN2m4LuO49sUNML3JmFc3cxFNTbA610Z5GaxNQATUFI70A9hmxgQa3dPGYxWMCTjitvTFdlwFP5VRm2X1QVW1KIHT5eM1eSOTPCGm3dvK9pIvlnOKYXPNiSGP1qaIA4zVW7jlhnZW4wTT9PY+dyoP1qhhqUSlkYjrmqPkL2UV0V5CJoWcsqqo61iYqAuUbhNgziqm45rQu0LR5FZ2OaqOo7k8ILGr1jp97qlyLawt3nmIztXsPWpfD9naXd5i9uBDABknGSfoK9W8K6/4Q0cT21nbSgE4aUgsZP8BW8KPNqZVKnKtDy7R/D2r61eta2VrJI8YLSHGFQe5NLdaDqtqkRlhL+a20CPkg9h+Nepa34sjtrFrHwnYR6ek5L3NxtCu7ei4z+Z9e1UbPx9c6LbiODS4WuQuPNkc7R74rZUYOLbZg6ta+iOF8QeFLrwzYWUupSKl1dgutqD8yLnHPv7VgeYo6gfnXS6hHPrl9JqWr6i09zLjcx6cdAB0AHoKrrpmmxrnLyn0PANcs1H7J0xlK2phCZQalRpW/1cDt9FJrufD+k6eYwwtlJOOTzmu1s9Jt2QbLeMenyiiNNsTqWPFltb5xlbSXn/Zq3ZWc0bg3ETL9a9X1/TnstPedIhkDgYxXmb3sksp3EA98VXs3HcFLmLOoqlro08yjDgYU/U1yCn1rqtZkE3hppV+6Zgn41yucUmUja0aW1sJFurnBb+EelXvGN0s39nyIPklTzAPSucR9wAbpU2o3pu4rOInP2eLy+lSM2PD6g2sswHzNwTWhrEKQi1kRgfMXkD1rJ0qZ7bSy69CeRVq+cyaekmMEHNaREyivEjJ70ppjtiRHx97g0r8GkMQ1DPAtxHhuvY+lSmkzikwMWeB4Xww49aYpKuGHUHIroVtZLn5VjLA+1QTeGrrcDEoyexYYFTYLm5ps7XOmq5AzjtXO64hWZSR1roNItbixtjBcqAw6YOaztZtxK3LYxV9BHNxpvcDFXkTYoAqzClnEuJAxPqKsKdPPUOPxqLFXKi4qQdKsrBYythJ2U+9OnsWtwG8xWBp2EVhSg8UCm55NAHaeCr0vHcWbHIHzrVXWfD91d3Mk6lUjA6tWJ4c1D7Br0LMf3bkK30r0HV5QsLKe/FUlcUmzxuX93O2OoJxXQ6S0TyQy3A3Z45rBvhtvJl9HNX7J92m7x1Rqxnoy4m5eGOXeFUBepFcffA/aGOAAeldDbztcGTd121i6ooBjI7g0imZh60D71B6+9HemSOHWrEylVHpVbOKtzEtCpNIY14xb26EgF5eT7Cq+eKt6gwkit5R02bT7VRFPoIsSwOrZzxSpkCp3kL8nrUdQIUE04UzcKXOBTAkQrn5qGkJb5RgetR7jnipE3MOaQMMkjnrTelSNwOlRk80CHK1SAZQ8CoRzUg3gUDImjOe/4VNEiYGFZm7AU1pCox0FMVznAOBTAumdhH5arjP6Uwae6jfJMc9lApqOiFSzYz3q0upRxxkAGR/pUsBtuW3eWY9vqxq25tokHyNuHU44qrA0kr73B5qaVTIQGbCemKTAZDdrI+0KQPTFaMTsB8kP4iqUXlQnEabmNaELOcAIMk9KhjRNFHd3H3RsHck00IbKY7ph+dX472Gxi33AJA6Kq9ayJp7jXb5GgszBGvqeKyepodFFo1pfwia6SRzjgBsYri9etra2u9tsyFe4Vs4roL20kMBDyf8AfJrjrqF4ZCGB9q0gDKj8mmU9jTM1uiApaTOKAaAHDd2qQKxpEPNS556UmgBR2xT8bcetCGjduNAD1OTwKtxRFh0qCLGBVuN0wMk/SoYhkibGAzV62JymapTEGTIFXLf+D60FxOztGAtgAcmn7Q7cmqto4EK1OSpHOfwrCSN0PMSnoab5Leox9aj2jP8AF+NG0nv+tCEWo1HRnUfjUnlrj5HXJ96o+ST0xn61KLcIOZENKxRYjsriYlg8WB1JOKlW3aPrPD9ASaplwAF8zf7CoxuJ4OKAuamzfyArD1JpftEMB2kRFvbtWZsY9Xb86ZIoVTiko6hzC65qy21r5kYG89MDgVT0vxxLo9ufs0CteMOZnGcVma0+9lQnCAdPWsAsN9bwgjKUmmdhqHjXWNWg8szsjN/rXHVvb2HtUmna3csUhKKFHBJ6muYFwVX5Rj0qzYXbC7Tc3B4q5QVhKTPQoJGbacmtiytLq7UCGMvz2NYViS8SsO9df4bvZFlW1jXc7sAM8Dn1NcFS/Q6Imne6ALXT4gkoa7IG5cdTUNvoE6W7y3uEA6YP+FdvDaJEmAoLHqx6k0SW4YcqD9aylTqpXsQqq2OAOlXRDPFC7RDlWIxkeuKqqMNjvXoU0JNvIpLZYfwjpXDyW5juGBHenTk3oyr32FgjBOSK2LRc9qpW8JJHFbVrAcjirYI4zxmqxXtvM/AA/wAKy47iAoQICzN1YjrW58Q49htPc1zyahaLGqh8kdTjv/hVo64aouwXYuPENiNhjRWAUV6fKo25rx+wvI7jxFYLHn5XGT717Gy5QfSs5LUnEKzRg3rYJCkisO5hJ6Nz9a6e4s97Hjiqp00Hgr+lCaRzM5N3aFuXY56DFMNxM5BO4+2K6o6MjfwDP0qM6Fk/KKfOhWZyrtPn+LFMwx+8zfjXWHSjGOYlz61A9lCTxGQfpVKaFZnNbcjBPFRmDcc5wPWuibTowckVXkslBJVSTVXQrGEYkX+IGmjhsAmtdrJupGPwpgtDu5HFUmhWKQz1pCT71eeDFVnTBqkIhLGo5ZWWNip5AqVlpm0k0CKX2iQWrKhYPjAOOlEMk9vpbE7g46Cr4jGcmnlA2B6UwKkMl5HpLy3LZncYUHtU9ok1tpBMspLkZA9ameFJlCuSMHOB3q4FjEajJ4GMGoLTM6+R4dGSFWJc8kZ71SudVt7eL7NI5eULhiB3rYuFSVdrDNcVrZCa0ygcYFOCTZSLK3sQtTaQK2+YkFz70yS3JtGt0yM+1Z0E3l30LNggHtW7vb2/CtHFIU0Zradm1SHBCr61NGjRxqgQ4H0qZ3Ynk1E0mDxSZkO5UZIxUYf56aWZutMOfMFJoZcD/LWJqP3q1l5WszURgjNTD4glsUF60y4OFpQeaoapf+ViJAC2Mn2rqaujNDmkqIvmqK3zFvmAxVtMygFFLewGahqxpdC7zR5pqT7NNj/VOPqtAtJypcRMVHfFFxEPmHNSpOV7U3yW9KPKYdqdxFhbsgE4rovDNpf3nmyR2c7xgAlljJFYGn2yTXSJKCYyfmx6V9EeD9VshpiWojjgKDACjg0JiaPMGVkdkdSrDqCOlSW4zMMKGbtnoK6jx7Ci62jxRbd0fzHbgNXKAHPpQmSPvZrcTFIT5gHVwuAT7VRbLdqteX7VIIhjpWnMSYtwqqwd1zimeVKwZ9uWPQelbMlmkhBOcjpTksgDkZp+0tsLlMmNJVU/u8k9zUJt5TMH2AV0i23HAqGSBgaTqN7go2KIGFFY+qIEuI5COtdD5BA6Vk65bkwo44w3NJFvYgS5AAwin8K6HS2LKK5tLf5Qcit/SpVGBuFWZG/GPaicZhcexoSRfUUsjqYyOKBHlOso/wBsf5SeazY4pt/yhh9K6zUzbteMue/JFZ0iRgHC0XKMuUSNBsdjgdRVQShpdi1fuh/o74rMiTbMpxgZ5pNjiW5LVpI8KeTSp4dd5FUyjn0FX4R+9jPvXomjaFa3EqO+cY6VSJk7Hmseli3ufsEYLy92/wDrVdsI3hvmtwOF717RZeArGOV75hiQ+hzUfh/wXYTaleTMuPLcDGPXNVexne55TdXscExhK8+tVXljuAXkbYvr6V12seGbO31u93fMElIBYgDrWRrFlp9vprW9nHJPM/3jjJ456D60ApHPIqycp0p3ktnpVu1sLm2iUXFu8ZPTcMVYWJcU1ErmNPw8pWNQe3Fej6FEr7QRmvPNFGJfbNeh+HZAZhk+ldNPYxkdF4g0dLrRJYwgyFJx614Fc6GqI+FwVOPrX0xIokt3VhkFSDXnGrWcNqv7m3Trg+/NYwk2tTS1noeX6vpDNpGj6TbIoml3zuOB0/8A11xmp6Xd6VKI7qMAt0KnINdr4y1qXTvFkb25QyW8ITDL65P+Fcrq+vT6xGBcRqhU5G2iSNEZSHAFMc5NSRj9ysh6E4qJj8xqCzftBjRRj0q1uSbREA+8BgioLRcaQg9Rmo7Nv9EYehIqkxMhLbrVW7qeacxDKHHQimwp5iTJkAg5pY1zan1Q9KBElvbTXL7YkLe9aCWVrafvLp1dx0QVRsr6W0l3Jyp+8p71cubePUgbq1OJB95CaNAEm1V/uW6iNPUjmoYJZJb+DMjEFxkE1U+YEqwwR1FT2Z23kJ9HFDA6K9+S7A9sViX6lpCMHpW/qY3TJIMehrIukPnKfXigRzjD5qb3qWaMpcOh6hqaUIYDHU1LKLVhDvkLt0Wn3M5kl68CnOwtrYJj5mqmCSeaLgSjmmkfNTlFJJwoPenYRVYlbnI4IORXoU94L3RYLj+LZhvrXAT/AOvU1v6VqCW+YZz+6f7o7A0LQb1Oa1VcX0h9TmpNHYmG6jPpmpvEPlnU28v+6M1S0t/Lvzk4UqQamWrHFWNO0JRy3QEYrO1bgoPQVqY2ru98Vl6r8201mWZVJ3pT1pO9VYkdirRObcY9KrCrUfNt+FKwFZpS0QjPQHIqPpR0aihICSSRt3ymoWlkB+9Uhl2jBqNmVucVIgWV8/e5qzGGOCz5PpVZFXNWQWOMAYosBYCA/dPFSD5RgVVEu04PWpVk3VIDycmgRu5+Vfz4o3kYwuc1bgGUAk4oAhMcMWC0oLD+ECnreeUDsiBPYmp8IR0qrNFk8DigRAZGkbLtSpEGbHQUKqr359aMhfut+NFwLaQxAAbck9zT/IVSCqhfoaZCT5YIIY+9PijOS7DA7UmBIgckYYADqD1NSOCCQ2B65pFAYcYzTTGFbDH8M0txosQXSx4HQjuBWlbTWzMGaTcx5PNYgCqflZT7Vo2jnzFO1Qv0qZIo1DLHeXAt4YvkHV271avCLCMBVBb1qKS4FrD5mCzk4UZ4qK+WQ23mStlmH5VkaxMi61C4kcl3+X+6OKxL2+aZdm0Bf1FaNwjEHHNYtwGVzuGPatoollZuaYcU5jzTK1IFpw6c0zNPzmgCRSAMmjfTM0CkBMrk8VKgPbmoE4NWo2ApMCVAQORVy3/eMFVAPU1DEVxyKsJKQhRMKD1xUsBLpVVgF6DirUPVfrVS442j3q3D1X601sVE6a2wIFzVjcMcVXt2HkqDUmawZsiTd9KUNkdaiLClVgaVgFK89fypdpP0pRinA0WC4qIBUgAFRhsGl396dguSYqKReDVWbWLa3l8tySw64px1FSuVt5DTsJs5vX5Cl4sfccmsRnINa19a3F5dtM4KE9jzVY6UT95nH0FbxZlIiMhEINMiuGjkVx2Oa0k0tXABLY+tWYtIhQfLGd3Yls02xHoXhuET6cjnnAFdp4cjtLLUftNywVFU4Ldm7f1ri9Dnns9MjihhU8ckmteK7v2+9Em3uK4aj1OqOqseqWN9DfwmWAPsDFcsuM471ZOSOK89HjbUrKNU/syJkUYADY/rWZJ498RTMfKW2i9tvT866FUXLaRg6dmeoGMk8nI9K46/iKau8ZHBORWJD4s8SZPmTI2RxmNePyFVfO1a4m82S8cuTzmuSUIp3iawutzubW2GASK1oYgAOK4i1stTljBa/kX6NVxNMvf4tQk/77pWG7PqQfEMwxJbvKu7B4GeT1rzO7linmVUjCxg/Mw716bc+DrPUZhLe3UszgYBMh4FPg8CaCjZK7serk1bN6VXkVrXOL0e8hfVbOOG3VFEg5I5r2JpYlVQ8iKcdC1c/H4X0S3cPFBGrjo2ae+l2Ke/0rOQVZqrbpY2XuLbHM0YHqWFRQ3dnOxWG4ikI/usDXnOt6RLqOu21rFcyQQbsEIewxXoGm2NvYW6QwRhQBy3dj7mpaMbWL4QY6VIsYpEFS0JGTZE0Skciqr20efuDNXyKidadhxkYs9ooJIWqEkL7xkAKD0roXjz1qpLCDmhM0WpgyQ+oqs0e31rbmhHPFUZrf61aYNGTKuc1TkTqa0pUwSDVWROtaRZLKDLUdWWSoHwpwSKokYTihWOaRmUcFgD6E0vAAJIwelOwh/Xr0p0JlwG8khOxY06GCaZsRoW+laJ0TWTFvEQVfVpUH8zUsaZnu4AzjmuL8Qqx1FmWN3YrwqjNdtcWc8H/HxLED/11U/yrLuZLS3Jklnjx3JcVUFYpM4q0tLlJQ7Wkg56sCK6M8LzVe68QWCqCCZZScKqnOPrUMmt2QGACT3q7ClK5YcjGSagLqTVGXW7TJ+V+PQZqk3iKzP3Ecn2p2Mzb3CmMfmrLtdVW7nEawyDPcjpV8kBhSkgRaU8VnalyKuI3FU7/mMmojuOWxmFtoJ9K5m4mMszse5rpG5U+4rmZ0Kyv6Zrq6GQwMBXZeDZobey1C6uY1dbePcAR1zWb4TsLe6vJZrrb5cK5w3et/UfFFu3hJ9G0G1jt7eSQtczMoLynIx9AMVMmUk2Y0OvMZ3aREIZs4GOKsvrAljKAkAjtWDZwxvexrIxILc8c16H4obStK8H29hbRr9tuXO9sdFB/wDr1GtizkcpjPSmgr61AGwAKYXIOO9FhmhbSeXKGU16Z4V137DCjSwq7tjkivLra3nf51UlR1rsPDEkuo6hBYlSHJxinyNK5DkjsfFGrjU9SBQfu412qfX1rAxk1Y19Ro+tvYyjnaGGO2arxsJBlTkU+hHUkjUZ6VYCEr0psSYqwq5GKLhYrrHz0qTyyKnWLFSBR0xUjKyjFNdFwSetWjGMVWlQgmquBWZM5wKwtdhla1yEbA9BXRwvtY+1UtclZdMm2cHHXFNMTRySLLsUENmtTSop/MztOM9jWNBK5jDZOa2dMupFHU5zWqZk1qdPHDIQARUnkkD5sAfWoo5HKDJNSjJ65piaOF1cJb6nJn+I5FZcs4IwK0/FiFdVHuDWAQakoc0qsjA8jFMuFTyoSo4NQnoR61LL/wAeMR9KbQ0Xl4RD6YNek6RfC20hbtVLkgbcd/evOEGYQfau48M3MMNlHLeTArnCj0qoEzO6h8S3CaZHCunST3My8Doo+tbnhp5Wa8S5iWOUFCyenB61laVqOkiKWX7cgbYfnIA8sfU1zXhHxfZ3vjKbTdKwsJibfPO/YclgPX61TWhmtx3jDULXTvEl2k8LyA7Wyq56gcVa0nxDo6Win+yGZyvCxxBiT7mszxRfafa6uZbKU3HmIC7s24lsnJzj6VFB4qjstFkYJGj45/qaaEkzG8R3t3d3nnXsCW27lV3jOKxldCwwy/ga5ie+nvdRmuZ5nkdj95vStm2RU2471SaL5TdspNjcV12i3RjkQZ571wFzdvZ2bSRBfMxwT2pPCeszPqAWedmIPUmtIySIcbn0Za3IlsCxOSFwa4bUJLuaXBQJDvwTnOea3dHv99myg8Fc1zMsUkt9vmuiyI5IQHjNJ07XFF3seNeMLaeTxJdzn5y7YG3npWNHp11OZ41hYNCMup4Irp5j5/iBkbkC6Ip/i6aTSNZaWEITdp84xjGOP61hJ6nQtjkfs8yaekrRMI9xG7FVG5ya6SfW4ZvDxsmhILD73vnNc1jnA9aBnT2POnxA9CtV7Lhp17BulWLMYsYR/s1Fbj9/P7mrEVInMV/JH2eliz5rr2Iptx8moIfXilLBLpCemaQhV6kVLBcSWtwJEP1HrTduLkrSSjBpgbctvHqkBubfAkA+ZKzIFKXkasMEOOKLG6ktJhJGTjuPUVrXixXUK31sP3qHJWnuBfnG6F+5Ugisu9yAjD1FRJrkizFXhUrIMHHarV0u+1B/GiwGbqlrt1ONgMLKgIqutvtuPmHC80st3cXBWKTkwfcIHNTPLi3LNwSMVLQzNuZTLOT2HApgPNNf75pRSBllRxSPyhFEfIp5FNCKknMat6HFSD94oBpjjCSL6c0sRIjWkxlS7jlRwZI3XI4LDrVaM7Zgfer2pPO7o0rM3HBNUMYYVLKRuyOTEMCsq8LMCcHGavrNiIVTvZQ6cHtUFGW1NHWpGHNNxVXJH/w1YtDlSKrDpip7Y4c4pAV5ARK31puMipLnic0wUxEq24kbAYH6VJ9hVcck0kcqqfkUqPSpvPz1rMLCwwQocmME+9WvKjdeFAqurqTnNSrIF700KxWnszu3LzUtvZSOOmB709rkE4wKQSg0hkrW4UDDAn0pm5l4IpDLjvTRJGetSBMsuTipCm8fexUAx2pskjhcCkmAybahIXkjvVUPIW5FSgO7HJwPeneWR2rQCVHfA5P0q3EjSDlse1U4iAQCCattJ5CbUT5z+lSwFlzG21HyfUU6JCseXPXpTY7eZwHIGalTzEYfKGI6AmpEOjjVm+SJj/tdq0YIkUqz59hVY3F8yYBRPRVPWiFLnO6UAj0zUu3UtHS2Gnvdzi4nYbEGBH/Wk1tVWIgDHNZj6hcJEqRcMTjPpW2mlpBZ/atVk818f6gGsjWJyqqCCx6CucvJfNnduxNdVq9u0MRJjCBuQAe1clKOT9a2iS9yA0wgU9qZnNakid6O9BpB1pASCnAVFUqmmImRc1YRRmoE6VaiABycGpYE0cW7ocVYW1zyWYe9JaYknSJRl3OAK9ATw3bR2SCVQ0pGSfSspSsVGLZwU6xqQA2e9T2x+YVtXPhiLzi0cjZzVdtHktn3CQFaFK5XLY0Yf9WtOLHNRRP+7FKWOelSaEvmqBjaCfelEme1V+c0rTRxYDsAT0FAFreMUBuahDqejr+dO3oo/wBYv4mmIn3GgtxUH2iMdXTH1pPtEX/PRcfWiwFFNNhe+M0iBj2B9a1iNsZGMVWWaFWz5q/nVjzo5FAVgSaaEZ0ihnNRGMZrq7LwtDdAvPqXk4GWxHnb9eaiuNI0FJD5Oq3EsY43GILuP501IUos56NAKtxKAc1de20aLGLi4LfUDFIzaapwnmt7lqHIXKbmjSvJGBnpW7GMVzFjqkEMYgtrcu+cly3StcahdNhEtVCg/MxJJNZNXLTsM1O5DS7FPTrVWI5q4QZZ45bu1jFqjbmAGC/sT6VHNqLXlyZPssUECL+6RFClvTNHKO5NGzHof0q3HvI5bmsgS3+1gsqIzHLMFH5AY4pzR6jcxLEtz5UKDAUL+ZPrTshHWWMjfKHmIz61sRopXJc/nXi93f6laamkVnK87enY12FvZ65e2oS61R4Vb7yx/wD6qiUQ5kdm9xaIcNOmR/tUkWo2KMT9oTH1riv+EXj/AI7uY/8AAqmg8KWrNzPKfq1TZFcyOxk1zSLdS815CqDqc5qGDxLpN5HuS5jCnpuPWvP9Z8KWr3UcQnmREbLNuFdJpfhzw+1uqRLHIF9TzQ1EFJsnOq6e/iGOb7TGsUXViep9BW//AMJVpKH/AI+Q30FcnPo1jJ4kt7UQqsWASAOvFdrD4f0tXB+yp+QqJWKTIl8ZaWBgM5/Cg+NNPH3Yp2+iVrQ6VYRrhLaMf8BoupNO02DzrgRRR+pWlZmd432MhvGNqqZ+y3Bb0AqJ/FU3ljbpU7SHJ25+76ZrJ1Lx5ottIWVYmOccAE1QtPiNb3QeXZtAbaMLmnZmnLHsbUnifU2ykWkSb+xJpi61rCgiayVpD91c4x/jWnoesQavG00AyF4OR3q6fLeQy4y44zWfMluVys5tNT1iKFkktFaVjnce1YGv69rNhGs0qIqMcAKvSvRI41l+Zlyaqa1pUV1DkQltqntmkq8WyXHWxw+jahqL27XUsIeRxhC4+6PpTL7+1r+bLy7I1OQqrjNdLaafHDZMWBJJ79ql1WCO3t4JETbEy8irVWI+R2OIni1GX5TPtXpiqJ0i883zZL1yexxXU6zOmmWyzPAzKwzwK5y58S2yWhuBCSvpmtqc+fZEThYg/sVtxd7qUt65xUiaSznLXEhx05qreeKrW2tIp2UbpOgz0qpa+L4pJlQRY3HtWnKydO50MFnJCAEuHGPrVm5N3dJGs165VOAMYxTkfcit0yAcUyYlkK5x70mgM+TTlY5EjY/2mFZGoaRAzl5pOO5z0rVubiK1Xe0mfUtXO6heLdT/AGiRjFaxHJ3fxegq4xl0RLki02l6fp1j9pI+9wq+pNMjNq65WNc+uK5q+16a+uS23CD7ik8YplrqMtt88rgKT92tPZS6kc8eh0rxQkEeWOaox2FtC5ZYlJJ5JFT2t6l1HldoP1qRgal6D3GphAdqgUMxz0ppJBppLdzUsFoTK9Q3XzQtQDTbmQR2sjn+EZqUtRnP3t55Eexf9Yw/KsmJg0g38io3keV2dzliaRetdyWhi2bNlYy32YoTtVuoLYBrVn8NX9npn7qN7hF+88SkgexrC01ruW8igtXIkkYIo9zXv7SRaNoiWEKL+7TBcjlieprGejLiz59i86KcSRoxYcYCnrWiun6pJJDd3dpOI5chGZCA30rpYvDd9da0E0+DzPNfO3bwK+h4NItVS0MsEZktlATC8KfUVKbeg9j5o1vw5f6Csf2yLYXXdjuv1rCU/vQR2NfQXxK0VdVhVR98p+teAm0lstRe2lB3oep704b2E2a1ncEkIOBXReFryDT/ABXY3Vw4SJXO5j9K5SF9kwFaiyRvcwQA7SzAM56DNdfKrGF3c6LxxrVvrfiGW5tY9sSqEDHq+O9Q6BM0kLq3ODgV1HjnwhaaX4atbqwiOVx57kkkg45/nXDaHK6XpQHgjkVi0nGyNG9TrkFSrxUCk9hUqhzziucssACnhQKqM0g4ANSIJSB/hQBPjJpJAoHJFN8uRhy1RSW8hHLGnYCPChiQBVDVsSWEqj0q0beTPLNVS9tibeT5mPy00I4yyOYT9a0LKQCb8azLQEeYo7NV20BFzz3rYye52cDZjU+1WFBNVbNSYVNaCAdKaJOH8axiO8ifsRXMggiuw8dW7NFDIOmQK4sAquCKEWRP941JjNgPY0eWXbgGljjlNtIoQ7VPem2NGjEN1oD7VNZa/ZafEYp0Z3znjtUNmrC0AdSDjvWTd6ddz3LtFAzKOMiojuOSudtD8QtHtLJ4otPZmbr8vBrgZdQluNSN6fkYnO1OAKeug6lJ923YfWpo/DWpfxKqfU1o5EE4164LDgY9KiFw0zFppCST3pw8M3ectcRr+NWE8OTL1ukNTdj0Ky2Sv+8VsY7GtG2fEgyaeulNGAJLyPH0qVLOBGB+1KcVSE2il4jnlW2SOI4B5JHesKyv2s7pJlzkHkV1l1b2N1HskuBj2qhNp+h26F8s5HRR3qtRcyPWfCWrfaLFWz1UYqhqGo2VndPJc3DsxOfrVDwy8lrbxNIuzf2zVLXYYRftO0YZx0JrdT9whLW5y+jEz+J4VJyWmLE+p5ra8W6K+rTLPGxEkQxx9ayPDce/xVCc42s7fXg112rzyW1hdXMSF3VSQo6muNs6UeUXkZtsW5YFk4bHrVInLGpJpnmlaRzlmOTUQ61aJOrgGLSH/cpkS/vnPqKYl3CbWPY+dq4YDtT7edJZGVckgZNUSZt/8twrDrS3HylG70uorlwaJpYZLdfnw+BTAfK2JEkHfFOuB8obtURBe1RvSroiMlsDjgigCtFyKtWlw1vcgjlTwR61UhGKsQqWuCmO1CATUY1jnDp91uRWsrF7FSfSs+dd8Rjbt09qu2hzY7T1FFrCMtPku3JGRRO/nR8DAFJcErO20ZPoKuJAVsizI3TrtNOwIxJF+Y0J0xU0m0g+tMRRjiotYZNF0qQ4qKLOcVdt7J7lWIJUr7daaAz5I8szAdRzSI0ZX7wFWJ42RSMHNZaRZulVyVBOMikxpli+UyWse05Cday2rpzpX2ZTmXzEYenSsp9LluZ3WEAbeuTUsaM1WI7mkc5rUXw5qL5IWPaO+6s6a2lhlaNwCVOCRzRcCsaaenFTmJvSoihBqWxiKeasWgzMfpUOwjrmr1lasw80nanv3pAUbsYuKjzVrUVAuvlIxgVUAqhDlYKQKmUg00occDimFlXoazGWAQKGc44qCIvK4VBnNaS2JVQHGW74pXAzvMOanjYmrQ0mTblzgdqa1m0PABwKLgNCFjUyKqjG0Zqs28DApInZGHNILF0owXIAx9agdhUq3ShfmBY+lQvcbjwoHrRYQ3ego809QOKY0YkUlmAHpim/LjHNWgJ0uWXpgD1xVlJozhuS3eqSxkjIq5bPFbryu6Q9BjpUuwEpvXC7FBVaWNmlYKJMZpwnyCCoYnsajNuzYYHb6AUkJGiY4rdNxn3H0BqeC4RQGfc2eijtWYtvEihpCHb0rUso/MXcMbRWckWjd0yygu5RLMjPs+YDOBV+9u5YZS6RIDjjIzj6Z71iLrH2PbBEuSepzRqF4ZYdu7a561g4u5vG1jO1qdpFZmYMSetcnP8AeP1rrJdHEdi9xdXiIxHEeOa5KUZY10UyJFZ6YalfpUNbIzAdakUeopi0/f6CiwBjJ6VKqHsKjR+eRU6SgjBAFIBVDDtVmEMTzUIcE8VYtEaaaOJfvMcVLA7jwFoH2q+bUZh+6j+5kdTXot1ZK6EouKx9CMWm6ZFCnBwOPWrd1rLxgIFHJrnlTbdzqg1GJlXFm6uax9XUwwj6V1HniVeQBmszU7RZo9yj5qVnF6ibuc1EfkFP38Ux0MJ2EUwtWhJI0gxWJex3E1xmMndWmzVETgEkigRHbWJUDzpWZvY4q0YI8fNIfzqnPcBAMN19Kyr+9l3nbu2jvVJA9DdEdn/fU460u62HAYVyLXcr4GcKOgp8d86HBORVqBDkdhG9qowxy30qdpodmEJya5RLwvjnA9KuWty73KgnIHY0ez0DmOgFi+3cxIB96ctkDIE4z60h1GAx483IT7xA6VXj1SNpTIA4iA4fHX6Vz3Zvyo2bTQXuWxvAHsM1PeaN9knhhRi8kpwcjFTaHq6yzBYkY5HJPanavqjXV+p0+NpTF8zyYwBUKU3KxbhFK5qR6Mli0OH3O5GM44rrbPToZp44fNHK5JDVwN7e3JsEuQXQgcH2ot7u63xslxIrEZLbua6YYOpNbnNKvGL2PVJPDdhdXKRlgIIxiRQ3LHsKbP4S00zKtvDtSP5nG7r6f1rCjn2ogWVlBGSS3eux0S8F3ZlS2cZU+tVLL5RV3IlYpNnLRaHH5d2yxMpZtoJGAgrN8ViHS7O2S3TAK7Ae59zXY30wt7G6OeEyoHv7+9cR4qnS5tLFQckEE0/qvKr3BVuboc/p9usBE5H7xuc+lbNreFQFJrG88jjtSTX8VnbSXMrYSMZP+FYuJR1aylxkDNRvPIiF0cLj+InGK4Wy165vYnvZF22w4ijz94+5rJn1i8u7gNPIGwfugYFT7O5SaOm16O98jNuheIH77HG/3+lUfD3iNtPuGjmR0H+6TVmy1lBDtkLM/QZz/KqurXRAVURQzA5JXkfSl7KxftLHW6XrlvqPiZJwSEUDrXpMEiyAMrKQfQ18zm7nsp1aCQqwNeh+CfFc0ckcN268nABOOPWolTCMrnsKHivIPjXqUsUlnaJKwBG7aDgV6rBcpOgkibINeFfGm5L+JoIu6x0qUbysTL3dTz4SuTlmLH3NdV4XZWsLlclWzgVxytgV03hSV3aSFFySc59K7ZQSiZKTbPR/DXiKz0DRrpHf51G4e9UvDvxGCxyx3AURxguVI5fPYVzOr2Zgsw5fJcgYrklkMc2K5Fh4zOhV+VWsfSHgHW38RWV3cyMMpLt2jsO1dkEAFfN3gjxbceGNXjmVmNjOwW5j65HqB6ivo62uI7u1huYs+XKgdcjBwRkVrTw1OHQxqTcncyRbRm91BZFAiUbh+IyawPFd/b/8InG0LZZnAXH61013Axu5yfuSQ/yriNStDd6SwAzsas3Qjd6GsammpuSmyl8Hqk+1pHt8dOelfP8AqcjxWZtFJCiQlhXsunI0sUKDv8teY+Nba1t/EV3b28gkKYMm0cBjziujDxjsYVZPocnN+9jXcfu02J2QhgcEHinMQODUSsC+BXZyow5meg+HNZW5iEMhw/vUmt+II7CUWycyEfMf7tcLaXb2cokj6024uGuZ2lf7zHmsfZK5pz6F19VnvrtndiVB+VW7VR1C5eQhCeB6UttgPnIFU7lg0zAHODWqVjJsjBxzmgsc80iKWkVfU4rQ1TTksWjAZmLDJJpsEQWN41vMMk7TXVQXAmiBU5riuldBoJleN2I/dggA461jUj1NIPoajZ3Un4mnMyntTCy461zM1QFj2qrqDObGUBSSeOBVjjNXtJt1uNSiL/dTLc1OzGcNNpN7bx75YGQdcN1FUgea9G8aTCz0Z9vEkpCCvNY85rrpyujCSLdrcy2l1HcQttljbcp9K9Qh8TR3OiR+YenBx6968qHWu90m0tofADXrt+/dsR8dMHGKuotLjizq9A8Uvoz+ZBAJGYbfmNdkfEl1KiTPcnzCMhUG0CvGrO4uJVUBMYPUGvQLBkfTkZwS+O9c7gzRSRqanrRj2XN7N883QY/lXO/ETwutna2GrwxpHE+Ff1wRmsHXJ5LvxjaW7t+7UxqoHbJA/rXo/wAYpltvCVojd5wPyU0RVncUtTxm6hWGWNl4BPNTup+Ujrwa3rLwfdap4Vk1mSXCIpdIwOv+cVjxjdAD+FdUZJmDPZ9aYav8LkkByRChP1AryPSVMeqp/tcV654EuJr3wI1rA6G5UOiLIOFGeCa80sLQQeJTbSgkwswyRjOKzh9pFz6HWJGqgVOiKazdQvlsIGlbrnCr6mrFrfw/Z0eeVFdhnANYW1NOhd8hTThGq9BVf+07XGPMFU7zV0EZW3YBz/Ee1IaNUgccVGwBqjo8rSxPukLnPJzmtEjigLFOTh8VVuQGicetWrjiUGqlwCVIHehCOAjG29uF/wBs1ah/4+RUEqlNVuFPr/jU8fEq1uYvc7GwObdavKOaz9MObcD0rQFUiWYvinZ9gV3GcHgVxD3Uf9wV3HimMvo7kfw815rIxz1poRda/CnCotQTalNG+1EUL6VW2NnJptxgMue4q1FEuTJ/7UuSew9hVoa/dRx7IwiD86yMgHrR5qY61fLEnmkaB12/xgSKPoKqvqN43W4cj61XLjtTGJ/umhJCcmTNdzt1mc/jQZ5SP9Y/51Wy2elPVie1VZCuyQvIR80jH6mmgEnkk/WkJbPSk+fNAaloJlc4phYp8w7HNPTcRtzwetPngHlcHJNO+g0tTsbW+YQp83BHYVT1e9bYozyx9KbbDbaJnsKzNRuPNdQDwuc/WueTZ1Kxp+D4xJrsrFhlYWPueRXU3hHlt0Psa4HR7i703UhdQoHLIVK+xrpNQ1PNk0scbmTH3cVmWjG1bQbW/LNEgin67k4z9RXEyxSW8zxSDDqxU11cd/qkXH2ZnGT1Has3xDFvmgvFj2mRdrgD0/8A11SE0Y0MhSUDJCk81s6fKsUsiuQrHpmsNhhvpzWiz+c4fGMincSRcvMNz61kzxEAkCpRIRcBCThjge1b8uloluQx+fHbpVXuJoo2BFxphU/eU4rbs7fzNOLAfdBFYOjKyy3FueSDnFdZpUYFrcxk/MOcVURM5lYyJWz0zU8BxeIenFOnXbO4HrUYO1g3cUMB10SuX96t6dIJIG9hUV7tktVdOmORUOjP80i9qYjd0Kwi1DWUtXmihR8l5JMcD29+1a01nPpV7NDa6hG8IO0qQDz7jseK5WbT5rtm8qRFKjPzHFZ0ctxGzI0jbgeee9CaQWPS9E+H114nfN2kdvaN83nKgO/HoBitq5+Euhabau119q5GRLCwZVx6jg/zrg/DWs+LrMyPo93O0cQ3GNmDJ9Np4rUuvip4guo/s19BayRgFXUx4yemeO/0o5bu7egmiK68EWqhp7I7whwY1chiOeQD/jRo3h661ImDT7YnAJ3ysFU+249TWS3imZ5fMdjHuPIIyMd67y3+K+l2ekpbWcDL5abVt3QFWPck+mTVNX+ESXc5PWvDF9Zxbb+wuIWHKv5ZZT+I4rmLXwze6tqn2a3a3iZvumeQRgn05711z+K7q4nlmMhQyOXKxnCgk5OBXfaJd+Er3RGh1W4sr24OWleYBWx6KeDx04NS4tEq55nqnhjXtItki1DTZ1wMeai70Pp8wyK5K8iuLO7LPHJH6EgivozStH0K5tAdN1yaCObJjhhul+X2I61fbw3PIjW95fQarGf+WWoWwcAeoYHOazklsXGUup8sS3cvQPiqsshJ5PNfRur+GfCUVyTFaRRyRDD+S52scdMHI71lxWlpJFg28RUjoUFP2Teo/aW6HgitgZwD9ataaiTXL70U8cV6Z4h8H6fcxvJbWkcLHnMShefwrz8aXd6ZqAVopGXOMhDUOm1uUqiY1oUBIKA4PpTJV3QlFUDPoKusjCVsow+oqpc3BhUqgBc9M1mWY17AYnwST71BbQia4WPOCe9Wbp3kGXIPpiorWRYbqN26A0xXGv5zoSqBV9TVYR8/MealknkbgtxUQk+bJqWhI0bSaO3XhRmrB1FyewFZYYU/cSKmxRefU5j0aoRPNMfmYmoOcVNH8tMQ5gRwaZT2Oeab35OBRYQwuF6mgZapAF/hBbHpURaQNymPemBYVdq/N09KmVbbAYcN6E1WRgw5yT2phHzZJpCLxkDcLmnodvXAFVY3I6frVgSwqOFJb0zSaHYDJFn5Xb8qtW6ebzvIX1IqmsSlvMc9OijvVh5JJOIU2qKLsRLJHg/KWb1rU0u0kuZFUzbEFZlusvPmuAPT1q1DIglHX04zUSKRp3unAyoIJPu8s9UprSVmbDEgdzWpbbmbYDuOOQe1R6wkoiCIh+orI1sc3dzOVw7liBwSayJGzkmtSdGOdw4FZk20HAraNrEsrOahqR6iq0iR1FJQKq4Dl607cajpwyT0oAnjYA1taM8YvoucnPPtWEOlaejMFu8k1LGj0yC7aSREHAHWr9ycN+FYGksZLwAmt6/kiUYDjd0xmkjRkKylT1rQjYSRbfWshj8uakt7gocZ4pTjcUWV9XtDjcF6VgscV2F06TQH1ArjLr5ZmUdAawj2LGu1ZOpzvuVQSEHvV9mwDWDq8pMgWtoq5Ldh0Dvc3ixqS2OetQ30rm5ZSeB2qPTpzFdEE/Iw5OOaffSrNOWVAuBjrmtUiGyqD81Ju+agjmkHWqRJdh6VchOGHzYz3qnb8rVjJAq+hOzLst/beSYQm1B2z1NJc6tE1vHDCuI1xnisB3JkNAY1g4Js1U2drb+MLWzi8iGErH3bHJqK68Y3GowLZ26CIM3zMBgtXH9atWA23kZpRpxuN1Hax313qRGnxWp/hwT9aia/eFYhuOAOOaypptwBb1pHkLFSe3Su5Oxxs6W21m7lO4ykBeg9K6PSvGNzpltJFbpukc4DelcLBLtTHetvw7H9ouGLdF74rRydibHRf21dSaVKk0m4yPvL9z9fXtS3paTT4JjyGHWqGogQ2kinqzECreoTGPS7aNeFCgYrKTurGidjNLYrJvYJNdvRp1u2LeL5riXsD2Ue9XnmCoWPOBms/StaFsj26RguWJI9zXClqdPQ0b+GOG2FvEu2NFAUVzMC77sKfXP610sgacHLjGMk+lYETRf2kTGwKgkZHQ1fQRbU7tVjiHQt0rZ8V2v2OW3ZmTc4xtB5rmxcvBqXnRnDpyDVW6vri91HzriQu5/Qe1Q1rcq4swDXSg9KJrl4roSRthkxgih/9ch7YzTo7ebVb+Kys4fMnlbaijj8T7VUrdSUet/DXV7zU7YvPIUjQ7VTru9/pXnPxYnE3jNxuzhK9c8JeHIPDOmeRv8ANuZOZZff0HoBXifxIbd40uPpWFL4jWpscsTW34avfsV3K4XLFMCsAnmtbQIzNqIjzgEZJrqlsYReps6vrBlEKSH7pzxXOzzCSYsBgGtXUrMNps12xO5SQg9q5xZD3NRCxUma0F0A0aYyFYHHr7V9daaXOl2nmIschhTci8BTtGQPpXx3p1yltqNvcyR+akbhimcbq9+0f4iw6v4gtbq8LWlksTBUIz85HfFO4tz0e+kjS1cOwG4YFcr9ttG01UDLHGH2+YWHzt3xXA+NPGd7qWql7XdDYwArECcbvVz7n+lcvcveNbRXdzeN5j8om/hAal6spKx13jXxpbeHUj0/SGEuoBPmlByEJ7/XrXlKXIjR5biZnlkYsxY5OT/n9afqsf7wykkydyTk5rnnZmkJJzVU1ykyZpPcBwWAwKijl2sWz1qp5hERAqNJGHet+YysX5rogbV+8alWaIIMvk9+KXQreK71ELP93HermvaTbWW0wbhu7Z4qebUGjPluh5WyM8nrUCOc0iRZIFSrAewqkSxYmxPGfRhWtrl5FcTRqjbii/Me1YzDacUoptXdwRYtbf7VcpFnaDyTXWxJFbwLDECqL0GK5Swfy76NvwrrN3TgmsKppARuexqNidvSpC/oBUbBiOoFYGoxSSea0dJu0tbhi5A3DHNZwB71XviUtHcEgqMjFCV2M6fXtGi8QWShH5XlcHoa81v9KutLnMdxGRzw3Y1taV4uubKYJP8ANHnqB/SuwS50nxBbhX2BmHAzzmuiK5TGWp5Ypya6nRN8mnpG2WjUnauOBTtZ8FTWeZbItKn9w9RWz4YtpLPTVSaHEkjnO4UVHeNjTDu07s0tL0ye5tnkB2IPuDHLH/CnNNJaSIzXBYAkbc8ZqzLcyW0ErZ2gLwBXNzXpl0xJQQzK2aui7qzJxCs7o6aylsRqttNfYRPOVpHJ5xmtP453yyWekW8bArl5SfqBiuC1S6MmjpcIcspxurmtZ1m91y/+13speTYEA7AD0qai94mk7o9m+GeqRaj4YuNOdssgI571wVxG1ncz2x6o5FN+F+oTweKYrSNuLj5MfWuo+JmkR6JrMcquWWdNzEjGDnFKm7SHIu/DnX3017y1ZgkLgSM7dFxxWJLqMd54xNzE5dHkxvxgH6Vx8+oosDrG7ZYY4JFTaFfJ9stIj180c1rbqQ9rHf8AiKxNzOCzlY41yAO9UrKwjexa7mYkfdRc11HiaGJLVTEQdyYOK5uNimmoo4VTXKzXoVJrFvMVRIQpOCavSWVs2FhGdgxye9U7rUklZVRdqjir2nNGgLBgxqRl7SG2XMkQGAO1bPasbTsC6Mo/jOa1i9MCtd9UNV3XK1YuWDBfrTXAx0oBnA6mgTW3A/i5po+V1PvVjxAPJ1pTjqKrvyoPvW0TGW51mjnMBrT6CsXRXGCM9a2AaollDXUMukTqOuK8waIqVz616vqHzWEw/wBmvL5TmRh6NS5tSlFE7W8boHLcntVOe0R7qKMng96tCWEYLFvpij7RCswuJFZsdFFaRbM2hX02ziIBXPGTmn21paT5KwkBfWqsuo+dKMR8Hg7jzVprr7PZpuKqD0QdTVak6D2t7SIltiFh0AFc/M5eRieMnpVqfUJGJwoxjA9qz2Lsc8VcVYiQGnL0qMk+lPQGqIHipFKgiogDSNnNPQZbLgY7VIZgwA6VQ+al+agaZ2FuQbUH0WueYGSZEz95sZ/GtRJcaUxB/wCWZrNgAWe34wBHu/GsJHVHY1bO4RdUwo7bQa2QAymue061e4YXavhI36etb6OayuaDXjYjgkVja3ZXF1bJHFgkPnkV0cW3jPerq6es0e9dp9h1poTZ5XLol4jE7c+wFLDBLCwWeJk9Nwr0xrDafu0j6dFMmyWJXX0xTsTzHll7EUfcOD1rrLeQ3OlQyMAG2gHHerWr+DpLlS1jhW7Ix6/jVK0tbrT7MWt5C0Tqe44P0NNJg5IpaNsTxRtYffBUcV0Vsnl6lcp03JxXMO7W2t2s0fBMgBIrq3Aj1WGTPLg8VoiGzCu48Ttgc5qhLkPitqdB/aO1uhNZeoReVdOvpVMLjVDG1fjg1FpjbLpl9a0YYQlplnyjjI9jVWPaJ1ccHNTYokuI905G9hx2NUzCVlwXLZPU1fnAEwasvULhVbCnnvQ0B0umald6dAy2c/lhh8w6g1lspdi/VicmuejvJ0fcsrY9BVyHVZM/Ovy/rQ2h2NGa2eQA8cU6O0XYQU5x1qourxhhlWx7CtO0vYJzjeuewJoQEtro8Fxks8in1U1n6lbvp9z5azF1IyGIroYCETgdaw9eIDoxzTtoIZapettlgzwchh1BrXj8c+KrHch1i8GRgln3fzrI0yZngcI/CkVWv97TMCeahVGEkbdtrWoX0gjluHlUkkljya7LTW2qCzVxGmBFChcZ25Nbi6gY0xzVxk+pDidvFf2SrtlbJ+tKdQ0qQGNowRjuBXnUuqk55I981RbVJQT87fnVOaFyHoNzp2gXaBGd0HopwKqDwb4Pfl5Jmb3Y1ww1qVe+frTv7dl9cfQ1PNDsPlZ23/CFeEOysfqaF8LeDIM77QP6YYrXDHXLj/nsfzpseuEvtnJdPrRzQ7B7NnnjuOfamg96vIqBPugn3FQSIrHLcGuVM1I1YVZgQydKriMButaNlbGRvvEKOtJjJFgQLywJ9KHjxyeKtvEkY+UGqUsnPNAiCZpAp2g4qFS55NWd2aTvQkA1XZAMcUMzyHljj0qQID1qSOFdw52j1oYEAJUYAoUnqaszQxoP9YGb+6Kj8oleASaAERhVrFvbIzBt8zelVo4nZwMEA96tLaRlQXZ8/SkwuQKS7ZPSraz5ysakgDvURtyq/KGP1pyzSqMbQo9BQND4ZmLEyBic8ACtS1ikkcYAU+p7Vn2zASbmBZuwzxWxZwSllLsGHXjjFZyGjQWaGzOEJZu7nqap3eqmcsgUEdM4q7Pao0XXbmsw2ABIRsfWsoq71Nehl3zuY2I71iSHLc1011aoIyC4I9a5u4UI5A5raLIZVemZpzHmoya1TEOzRTRmlpIQuaepplPAoAenJ5rR00bbke4qgq1atAVuEOehpDR2ltcvEm5W2k96bLdOxyrFj9arqf3IH8VMU/vQvcnFNMt7Gzb30zIFbGBV1HLHNZHmxWzhZZFB+tTxalaEgmYBR1J7U5bCNoN+7f6Vyl03+kP9a2E1m1lLIpY8dcVkyyW8ly/3seuK5rO5q9iqTXMahMJrpitdlMNPjtSGDPMw4w+NtZlwuh2sI22qzTAZJaQ81rC9zORl6LpputRQykiNBuYDqaNVCrqEiIoVVwABV3R7lYrmaVhhT0A7VE5hmupZH+Y961uZmQSB3FNDqTitm2a0jkLGNTjpxkVoTahbLpKwQxRgPyzBRRdjsYltwtTMCykAEn2FXNNniiaSUKN4GF4/WrunX4ijmOxfMPOSKpSFY5RlJcgK2f8AdoCSEkBHJHoprpYdTSKGeQBPNbPzkU+x1hII8JEuWyWf1NTdgc28EsOPMidOOjKRVmywJAadq1y1zel2bNQW5PmLj1oW4PY35jnYPeppSAUJ9KqXD+XsJ60+4ZgsbEEDHcda6EzFl6FsjNdf4IFv9ouZ7mQBVwAD+NcXFIqgA+mafbedNqqx20jRqTggGruSdtrs0UmoRxQOHDvhcetXPECC1t44i4ZgB0rH8NJbnW5by6dUgsh1bu1S6xqlpcrLKr5ycIMdfepbBGa06lDzmuelt7prwtbfKx5z6VpbhztJx701LkxMSDXG9zpWxz2rXd/AxtJJ+GALBRjPtVnS5lUpz/DWdq7l9Qdj1NX9GhZkY7T8o6mq6CLu7ddOfUVCP+P0D61JECLhs1ED/py/WkMv2tsL3UIbZmKiRtpYdq9k0TQNN0ZjNbQp5xTZuI5A+teQ6apXVLd8/wAYr2K3lxEpJ7VjV1ZpDU0/NK968D8fj/iq529RXtzXOeprxHx8c+Jpfp/WikrMJ6nJs3zVr6BcLBcTucklMACsUn5zUsFy9vkpjJ9a6JK6MludHcXDzaVNF1bJOfbNcseDitRNSEenNERukcnJPpWUTk5qYqw5Fq05kVT0zzXoujWxurmGP/lmq7m+grzmz+8D74r1Lw1MIo5iOSYwKGOJmeL7aRExFnb3+lczZm5vUkdmLLCmeT0rv/GkY/sKBh3fNcfpHyaHfY7k0gZmXkheAk9hWI6cZrorG1F7Y3Mr87AQtYD/AHTWkCGVsnFIvNOCnBp0S5BNUIuWEpguI3U45rZ16feIR14rCh4ZfZhV7V33ND7LSa1DoV0xu4q3GCBWdDIA/PStWNlaIt6CtYmbM+T75pgPNObls0zoaYE8LFZ42HY116EmJTntXHKcYNdhbFWhTJOcVhVRpAeU4yW/KozxUjEdjTCARXMajM1XvgDZS/7tWMVHcrmzlH+zTW4dDiW5qW2uJ7R98MjL3wKYRSgV12ujG56T4Y8SrdwiK6ZSQOd1a13eRXAV7bB2nGQK8kjaSM/I5XPXFd14YnD2/lszZxkVnNaF05JM6TUFiks282VVwvIB5rhvLaOMoASFyQa2JWLStuYnnoTTVtzcQybcYUZNZQqWdjsrUPd5rkMsRk8IFwPlRyWPtxXKmNSM16FpTQR+BtRaf7q7sZ9ewrgV5jBrVu5xpWNDwzqI0PxBbagBkxNnBOK6v4h+J08QRRMMeZkZI9PSuDHWnSfcNJLUdyAjgfSp7CQxX8DDqG4qHaSpPpT7L/j8g/3xV3IsexL5stinmNliuTzWdcbPJaFvurzWkJFFsgJ7Cs252+awPrXO9zRLQitooppEjWEZIPJFWHCxM0UCgA8Z9amgkijg3Ip3kYGBUEOwyMSSSO/vSuOxpxARhMVdDnbWLJdfOsKIzHqSO1akN1DgB6iVWMNy40pT2FkbKk+lNDjaMmppbmzEDMwI6UG4tEiB8s5x61n9aga/VJnE+KRnU4H/AIT3qln5a0/Fama4gcDEY4xWYR8tdlKSmro46sXCVmb2htyB/s1viub0U4Za6QVoZjZ1DW8gPOVP8q8suMR3Uyk8hzXqrjKEexryXVdyarcjn79CGiNm+akmJ8kH3qsZX7Kc0pMrwEhTmtFJESixjEg570hdnOWYk/WoPLunPHFL9juW6sBTc0TyMlPvTWZV7gU0adKeslSDTP70rfhTVRC9mQmVB/EKBPGvVhVldLh7sxNSrp8A/gJpOr2D2RRN1H65pPtS9QpNaa2EA6JUotoh0jX8qXtGx+zRjm5J6RGl8+Y/dhb8q2RAv90flTxCB/CKOeXQaghlqtwdGndxgFeKrpOly8Uagq20LzWzDGX06aIdSuK5+1QR6rEno1JvQ2ijp9E/5BlxF3SUirwyKzdDkzcajDjgSbq1cVkUOjJ4q9G7REOjFSKpJVpTlRQmDOhsLmC8jCSELKB0PerX2QZ7EfSubiOCP6Vt2GoIuI7ndjs47fWtoyRnKJZe0VRwuDTDbo8ZjniWRD2YZrUCxuueWHYimMqp0U/ia0ItY4XXvAsGoJ9o0qX7POBkRMfkY/XsazLuC5tjafaoHhmTAIb/AB716MwHJC81BOkc8flzWwkX0YUgZ5pqQ23iP6moddtsCK5HRhg12Gr+DprtPOsXG4DmKQ4/I1i6lZyrpohuoDHIONrfXtViMmzj+06PIv8AEvIrLYlCjepra05GgWWMqwBHGRWLdfKef4WJqSia5PyrWNc/8fJYdRU9zes/yJye/NIsPmIOOfWk2MogZkyRT2QDpV+OwZs8dKrzwsjHIqWh3KxUIcnmoWck8dfanuDzmiNcHOKi4yW2vLq0OYp3T8c/zqxcarNdoFuNrY7gYqjKwzxSAZANPmYGhpNzHBctvfarDHPSp2kD3GQ4YHvWSFqaF9kqkngUIbN61co4wau+YSOtVLO8tERWktUkYdyxFattq2lxkGTSYpP+2xFPXoSZF5u2ErWVLJMnXgV11xqmhTkk6QI/aO5NYOoC0cF7aORFz0dt2PxoafURiPePkg1C1wSc55qO6BWXmoqluxZK90wPUmmLdlm5yPxojjEk6q3Q1WPBqeYdiXcB/wDWqKTLdBx60FxnHejbK33Rx71mIWNBuGela0MscS8d6y0glHUr+dTbGAADAn0FIdi5LeKy4UcVRkfJpypkhSefaptiIORk+9FwIY1LAnHFLUpkBHFRYyapskcpycCngy7gE+U/3j0FEa7e3NTsVCkSSYB6KBnNICr5REvUMe5FSOdoC9/SlMjqpMUf4kZxUSoRl3/E0XGTo7qAO3qelTi428bN30rPjkklfb/D9auhT5WyIY9T61LAtRyNOCXISMVBIPnIHQdKEjkwELAD0FLLbSMOWJ9AKQC2svlyFhjcPu5robZsJvlcBieFA61z1rbsQWYgBTzmtaBjKefz9KmRUdzTxJKdsjYz29BTbwwwqYo2JVhy7cH8KrIJGudsedvqTVC/ciZgzlsVnFGpDcsJCQnSsW7Qo1dHHFDZWpuboZkb7kWetc/fyNINxGB2ArSJDM1uSaZjnNKzc0lbIkWjFBoFIBVFPUdKFxTwKTAcpxVmBirAjrUC4HJq1awyXUgjhXJ7nsKQzRt5WZWeWbnoKWO4ghn8zeSw96rPbxbzErmRh3FJ/ZU5YhBn8KLoepNJf24kJYgk+tOi1aBc4QY78Vj3ltJbygSdTVi3sXeyecnao5HvVPYZ2ejyrc2zyADBHHFVL2MRXTKKh06KaHT0YsV4+6KntbQSQTXErM3ULz3rDS5oY+qyFLXaOrcVkFs1ua3Y4t4MEmR3AGabr2lwafp9t5f+t3YZh1NaRkkTJMxvMKr1p6viNm7niq8h+WttbBYvDnnsuXcZBrTmSM1FszIT8px/FxUlwxMUaKp2qO1a2mWUX2JGYZJNaPiG3jTT4o4lwM5OKj2ivYv2ehz9mcRHgnjtU0RKwNtVicc4Ga2tK09YdFJ5E1023ceoFad7BHbaO0UKBSQFzj9amVdIFSbOKEMklpJ5aMwA+YgdPrTrO3me3VlicjGOBXaTWMVn4ehtIlCvMQGI6n1q7a20cESIkYVVGAAKz+sIv2LPNLqGWGUiVCrehqXT4w93GWOEHLVs+J4P3pdR3rDtRGxzLIVTuB3raE76mUo2OhgS3v8AUfNlcR2cRBJPetG4nttWv4oIkCW6dOK5651FXiEcHyIOgFZzXUynhyK64sxaOv1KTT1nS0ssOwzucUWZGlQTXUnM0o2xoP4feua0hj9pZz1A4qaS8Y33myHdtPC9qOYXKbkWnSw6e81xKy7xlUJ7+pqlAfmAL9Peqc2pzSjDOW+tV0nkJC9B396zkykjolPoav2Fsl25VscVlQtmMfStDTLv7NcZY8Yrne5qjDvrJW8S/ZzyoIya6ORUhtQqAAEYAFc1HeG612e6bjBIrWu7o/ZUYHJPStOhJFMiRsxXqeMVDHZXAlVyny55OaqJdSm7GWAA71clkuL4+XFKQi/ePrStYCSG8UanCygmONhnnrXrmm3f2uwSTsRxXiBSSGN8ggKcZ9a9Z8MS79DgOe1YzRrA3815d410OVr979pCDIcKp6CvTA5rjvGknmSRKe1KDsxyR5qukzdWIpx0rarMX4Az0rZcHFUr9illJ78VtzMysc+7b3OOBSkYWmYqZvuiqEPtjgZ9Gr2LwnZRzeHWuAuZJB1rxy3+6frXt/w8ffoFtF6kilIcUQeKrZpfDahl5QiuD00f8Sm6HbJr1fxfbbdEkAGMc15tb2wg0iQYwWJNIbKGgL/xJrz8f5VzBXkj0NdVofGlXo9M/wAq5c8lj6mtYshohC/K2ajg5JFSA5Vs1DBw3NWQWBxVjUGLNH/u1WQ5z7VavRjyv92kwKHQ1pQEiyPvWcw+atUqFgUVURMpsOajY81KRzTGWmSOU5Sum0vLWak1zCV1mkxNHYJvUgnnBrKrsaQ3LPy+n50mR6VJsFJtFcpsQnrTZBmCQeq1MwppHyNn+7S6jexwzkb2+tAYVFcHNxJzxuNMBIrsTMGi0DXY+GjHFbx3ErAKoPHrXHW371iPSulx5FpbQr3GSKU5IIrU3YLZr+44YRoxySe1bggtLGIxwKSzdWfms+whZYC9WIg0koUnqa51FXOl1ZNWZheL0lh0+2j3FYpJCxUdyB/9euWX/V4rufiHbNFaWbA5VcD6Vw8a/JVpmbGgYYUE5janlcHNRx/Mr1aJJraMPYy57VFYjdfwD/bFXLFD9llB7rmqmmHGqWx/2xTZJ63IvlwIeuKz9xmustzuPAFaN0f9DJHUDiufeV0u0KnG0cVgzRFm6uWifZG4Azg8dDQkwVQFf5sZNU0ZTKu88ZJpmT5haMYyaTRSZtaf5hjnlIyGPB9qksXa6jZxwAcVXtb5DCbWPJbGWrMn1R9L0KYRHE7yFV9qz5Of4ka8/JszoZ0SPHmTqBnOMiojcwlAWmj49a89gvrmaZjLKzZ9TWjCWcj2qXQguhoq0u5r6nL9pkXDA4bA4qCW3eNQSOvNQ+XL5ZZcVYe9e4hC7VwBjNa0pNWSMasU1zMt6O2HArqRXIaU+2Uf71dcDnFdKORof1rzbXLcJrFxkdTXoxrhvEcYXVGI7imwRgeTTljHpUwSnLEfSmkJsgEI704QjFTCNvSp44NwyaCbspeUKPLFW2tnz0pjW7DtTVhalfywKUKBUvktSiBvSq0FdkW2jbU/kn0pRA2OlINSALTlFTeS1L5DHtTuA+z5bYejViTqF15FHGHH863baFxcIcYAOaxdQYW+v7z0DAmokb0zR0Nyus3admya3yOa5nTZVh14s33Wyv511OKgsRQAamjzimKtTRKcdKBEvKFfrVgnjpUbLlVPoadntTQmXbDVZbNwjnfCeMHtXTwG2uoRIrbgR0zXEkfNVm0u5LSUOmcZ5HrWikS0debaINkA/nULwKhzt685ptjqEV/H8pxIOqmrboygk5GK0TIaK6lRwKfLb2t9AYbuMOp7moWmt1faZApqRdrDcjhl9QadxWOf1XwhKbd30iTzPSGU4/I15XrGn6nZyyR3sEkBB/jHB+nrXu6lkIKk5ptxHBqMDW17Ck0Lfwt2+lJjTPnBVwc9TWhbSqqjIxjtXfa98MW3NcaNJlephft9K4S6tLjTZTFd28kLjswpJCuTNeEjHGKqSushNQvJuPAIFSQIZCMd6GUiu0OWAApJLcouQK6C2gihQuQM9Oe1Z1/sZiIunrScQRhtktScirIt2POOBSi1d3wqnHrUDuV9zDpSh8jkZPtU72rocEZpFgkDD5Gx9KCi9ahWUZJz71eWNSOmaoW4xz71oxcrQK5E8a7wQgGO4pW+4eKlcAimkZQ1SE2c5qabZVPrVcDIzWrqVtK0any2OOeBWckMuMeW34ioY0Nh+W6iP+0Kr3S+XcyIOgY1r6ZaLPe7Zl+4NwHqauanoMckcl0jsGHO3HWpKOdjtv3nzA5HrUsileBSebkZXioxnNZaiJ0Q45NMkUgccU9KJFyODQBAk5TPNO8zcc1EYPnzv/SrUEcaoBgk9yTQNDM88ilVju4Un8Kt/Y1K73yB6U5ohGnyoFA7U0JlJ3mI5+Ue1Rxttb271M/zGmbATTAmFz2Vf0oZnlXGKi246YAoZd3G4/hSaEOQBDVlAWU8kAd6bbWTsdzH5e5J6U6cARlVzSYxYpMzYT5iO1abwKiAzyAEj7q8msO0MguBg4rUuAEwpYmQ+pqWA8+WWWQj5FGAvrVm2Jll+UYGOg7VWMUKgZJZvWtKwk5EcI2k/eNRIuO5pW8TRWzyuuAOMmuevG3Ss7H8K19RuBOAEmKxoMAdmNc/MxYkmlFamhWnmZpN7kufc1mXEryMcn8KuTseaoP15rdEMixk0dOtPLqOB+dMzk0yRM0opKWmMcp5qdQMZquOuas26NPJtBAHcmp1EFascrQ2Yt4UALcu46n2qtNBBAow5L+mKWO6CKPlz+NJpsC/pFvIs0kzRkBRwTWrZMWdmPqao6fOPIkldwqYxg96Wy1CGJGkkfgscDFYzvfQ6I7GZroxcp+NXYVzpCD1Wql3PFe3BfbhR0zVz7bFFZxRqoZicYqulgS1ubsMZawQf7IqS0GNLc+jVatrcnTQ5HAFXdI00zWrtIdsaZOKxszW6Of1m2aRbQgf8tBUXi1VFjbgD+Kuj1PTpE0v7Sy8KeB6GqmraWJvCv2u45YLkLj+tTGWopLSx5tJ9yu21SHZ4VhVRk4FcVMMKPc16tJoc0mh2SE4lkCkJjpxWleTikzOl1Ob0+LZBErdqk1slnjjCn0A9a7S38PrA6mWMBs/lT00iG88VRF1BgtV349W7frWXO5O5sloYAsnhuLGz24WFN71PqFt9ourSzjXHmNuNdIujyXt9cXzHYkjeXHxngd6saHpiy+I7i5Zh5VomFGO9Zyu3ZGkdFc5jUYy2uQ2uMpbqC31qxPFJaQzSvGV2rwT6mup0Lw+LrVrjVrr5VeT5EYc4HT+dXPF0UB08RIo55OKrluQ5WPHp4PtBKP1PFZWqeHTZWhu4yxUdVP9K7200MuzXDgjaOPc1e1PSVl0IoO4rppuxy1NTxpeaR15xVtINt1JFj7hxTZYXD5Vc11p6GJPo6ku4A5wTVZxuvHPvU0DXEKOqJjd1NJFAyks/U1V0TYbg5FTRxkkYGT6VMllLKPlAx6mr1vZmAfMQSfSocrFJEkalUAolbEbfSpAMcVBcnFu59qzvdlGJbOQ9wwPVq15GP2K3Ge2awrd8I/u1bEhzHbr7VYipKD5vsani1B7ZSirkU2QDzKrSL8xoYF9pzPa/McmvRPBdwZdKRey8V5rbr/o1dP4Zv3tYWjBxg8VE1dFwZ6T5gAJzXF+KJPNvAPTirf9puQcsayL6Xz3LGsktSzKYcVk6wcW4HvW2y1h63wqD1rRbkMxO9SdVFNxk04jgVqQPh617H8LJfMjt4M8Bj/OvHI69U+D0jHUmBPCnpSbKW56P40tz/Yl0wXgZrylv+PFh6CvXvG8n/EjeNjtQtlz/SvIyoMRQHqMVmU0YOlMy2F6FGSxNc2Oh9jXVWoFrDeZ+6M1gWNi97OU/gBJNaozZm/wtUScPXUyeHAyYhBU/wB4mmR+F1XBklbNNzRNmYttC877I1LNntWnfWMwAOzO0Vu6bplvp4YplnbqxqxKgbgjio5x8pwrRFXwykfWrJuNygbcCuik06GV8kVE2jW7HoapVLC5Tn8A0+G2e4kCRjLE9q6OHRLUDBXNaNrYQWoPlpgmm6ouU5+30SRJkaQ8A5x610W3AqUrzSEVjKTZrFWISKTFSMtMxxUPQojYVDcN5VrNJnAVCc1O1ZmuzGHS3APLnbSW4HG9SSe5zSGlpDXUjJmnYWpNukj8eY2BW9PzqcSdkAFQxW5T7BDj7uN1RXNwTrBIPRsVMkOJ3zOtvpBYDrioomIZXHY5qHUnx4WB9SBTbCUS2kbd8c1ESpFnxpIt1oMbnqGFefpwAK7TxPI39hBMZ+bPXpXEqelCQCuRz9Kgg53D1qZxkVDajMmKtEmnY8sV7bTWZbuINQRiM7ZP61qWIxcfgay5Btum9n/rQhHrTMXsFY9Sorn522PtPXvW5E4fSoiP7grNcA28jKgODwTWbKRR8lpUZ92AOOafCwRWj6yEcUkolWJchVBzxUCk5wT19KQy7pRWK9cnsuSa5rVLma7v5EZdqoTtH1rfRHS7zGOCMGqMti97qjxR8MOWPpQh3MNYZlcbUrdsISYpGZgAoB5NWl8Mzd5R+VSjw/KP3ZlwtMakSQTQR6eweRc4rOgP7selLqelrp1r5+9nbOAOlVrN2eEE0qceW4qs7qxp2BxIfrmutjbKqfauOszifBrrrc5hU+1bmBPmuV8RRbrkHHJFdTmsTWYvNmX6UMDm47c+lTrb4GcVdjttpqf7OKCSrFADFyAKesAHHFaVvbKYhxzVlLZR/AKAuZPkr0201rLd0Q/lW6IB2UflUgh4+7RYLo50acxPCVIult6V0It2PanfZz6ZqrMLowBpffilGnID8xFdB9lOPuigWO7+AUcrFcwPsEVOFjD6Vvf2eB1jpwtAvSPH4U+VhcwlsEHQCvPvEHGtTD+6cV6+toS2An6V5F4lUrr98D1EuKJI0pkcjqZvMVu+Riu9VCURiOSoNebR/dr02zYTadayD+KJT+lZmg1UxUgG01IFo20hEoGVFNIqVBlc0EVQFdutPU5FEgpq9aVwHBmjcOjEEelbthrzMBFOM+9YJpmcHIpqTQrHaZjnXfsDZ9qBGo5Fug+lc7p2qPbuI35U10cNwk0e5D+FbJ3M2gw+PusfpTGbkfKw+tSeZNn5Y8j60m+X+K2P1FUKwRThDy3PpUGoWGn6zD5N7Asq4wCRyKkMUUpy8TZHSnLCU/1atj35pWCxzkXgHw7aTNPKJpR2jZNyj8hUdx8PtHnmM1qbi3Dc7UIIH4HpXTrJKDgpkUtxbR3kYAmkhcdNpxVRS6knlXibw1LpId4r2OaEdUxh1HuK5LOeteg+I/BmqSb3gvGuF6lXPWuBubW5spfLuoWiboM96UmUhMjGKnjnjiixtFU2cKKkhtzIcvkLU3GXIIhdShj0HStpUggjwcN+FZiH7Km4Rs2PSoZtb2Dabcj3NXG3UC5LNCSQkQHvjFQj2rOGqCRseRjPvV6KTzADjGaiTQ0OYEioxkDjNSsOKYo9aSBkU0jBCQTVHzQSfMkZfoM1aumIQ4ArKEpYkFcY96GCNCylhiuN/nDpjlTW6ssdxZyAHPyHtXI7SWyoq9bXs8A25yvpQtRowVA2+lIcDqaTDAZxUTSDPNcz3GTCUjp09aXzCR0FV1YGnkjHWmgHlvXrSpKyMCKjHParGxUXBGTQFxy3bBstyac1zJL1PHtVY53U9TSGPpDkc0A09AGbB6UxXI+q89adGpyD0p8rx52xR4x3xTQWPUGgCczzBBsH407KlCXxn1NVx5kpCgkgVI8G3gtlvQGpYh0W9pBtH0Iq2bORx5kkq59ByahgIQDrv7ADNTmVIhycyfTpSGRE+WcEnNXdNZZpmUsQoGSB3rLdixJNbmlosdsF6u3NTJFJk99JvUbkReMAKMcViS4BOK1LsLzlssOwrKlGDUxRqijOapSd6uz1TccE1uiWyDvQeaKKdibgBS4oAxQelAgHXipoXZTwxBqAdatWih5gppXAHLFiWPNSR7nzgE/QV0UNjAEBMSlvWp1hihjLBF49RT5h8py88kqJ5bZC+hqsrfNU1/JuuG5zVdKQGhaIZWIFMib/AE1AezipLKQRROx9RUdmvnapH6b80uXUpy0PXLJFbT4lI/hBIqxYuoilTGFDYqpbsVslA+8UwKuRR+Va+/U0OIuYn1qVbjSNg7YBrO1SJ5vDv2cLwq9PWtEoHtCG5BptyoOlyk9AteU5NT0OroeNhGTUYY2GCsgzXvVuUEFtIQCyINue3FcV4N8PWt5Nc3c8YYl8hWHau5eJQQqjAHStMRJuCbJpkMt001wiqO/WmWmVvLhgcYHWptgR84+bFSWcH7m4mbqxwKik3Y6UhYL0rGq9cdBU2n5w6Z4+8frVIRBbgKOgrQ09QEncjoK1QTVka+ngvCEXonFZt6PNnbfyB0FbGnRG30rLfecVmTrmVj71rE5JMzzHkbcDH0pJYFa3aPHGOKteWc9BimsDmtEQzyHVtLSz1OQgH5zk/WqghHpXaeL7VYyjcZJzXKheKu5FiERAdqRYEBzirGynBaLjsNHAFGM1Jt9qXbSY7EJWqt/8tnIfar5FZ+rfLYsaa3E0c5B90/Wthz+9hX2rHtuR+Na5/wCPqKtSRLjiWoFTzJNvrVm74kplqM3AoYi6kIRAoxkVZ0/KSkDuaic1d0mIPdqp781MtilqaQViKY6HvXRR6cAo+XNZ19b+XKQBWFykYzLXO6/xLGK60xelYuqaW91Nvx0GBWkXqEtjlO9P7VautNntZAp+f/dHSmW1v59wkJ4LHBrS6MyOOvRvhJI0euyOcCFQSXJ4rGh8PWcbZKE+xrqdCjjSfyo0EcQXooxUSnpoXFO50HjzxLDcqsFod8EK75JP757CuK05nmsmuJMgsd2K6DxLBE1siqOCeaxWVja+RGdoxjNTFlsxo4jdLLknaXOQKvWdlDaRbVT5jzVi1sxAgUcnuas+UBzihyJsQhWx0qMxSOxwOlW9uelIQQoAPFTcGVPIYfedc00pkkVcCFzjkA0pt1Xksc07iKDR4GaQCrvloz4xle9SiGBRnYOKkCnCuT0qyF46VIWBAEcJwemBRtkH/LJs+9VcViIpSFasBCeoxSmLilcZTZaiIq46GoGTFK4yseTXMeJ7ndcR2wPCLuP1NdUV+YCuC1WUzarcOTn5sVcNxSKdTWUfm38KEZBbkVYWDbo8twRy0gVfYU7Qk36pHxnaCa3RmzqhFm4V+yKTXNlzJcb/AFfNdLNJ5VpO+f4cVzkMZLDFJjR219KH8Jxgc8g1T0a4JZYif4eKjN4jaGlqATIaq2cpguIm6DoamKKZ1GoKlxppUjntXn5jaKVo26qa9BljLQCRcbBXLatbCO4WQDAbrVWJMkxsVOBUECkXAH1q6K3/AAp4RbX7l5CW2RjJwaAMe2Qi7j+tUb+MrfS59c1r7FiviqkkI5Az9a6yw0myuZ4vOChW65FFwJdPO7Q4PdBUuxRZ7VHbmtHXfsljLDbxsAzJnYB0Hb+tZk8nlWLv3xgVmxoogpLayOexwKoXSmNxs7YpI5vLTDetEkqSKzng9hTSAt28wLIBySacAsWvuBwWQE+/Wsy3mMcynsDTr0mfUWIfBwOaLBc6cSr2NNEgLsc81imJevmU0bd2Nx/OmNFnXykmmsNw61iacP3GPSrl0itCec4rMjhlwSjYyaaJkaaRv5oKiuntXYwLxmuLRbuNsg5q7FqWqRYCrwO1VoLlZ15809F/Wqd1A7EOw9sVjJr2ooMNGafJ4hdxiSI4+mKeguVl1UFO2VRXWrf+IAD61YTV7FhkuB+NBPKzStExH+NW1HNR6E9tqcb/AGd94Q9q2BprDkgilcXKURgDtT1OatG2ROuPxpCkS9xTUg5SEU8DJ6UhaMd6aZF7GquKxMMVYgIBziqPnAVNa3IEwPJ9qaYrE74VyD1FN3rmoLiUids1F53rVXCxoxSqrivDPEcvn67qbjp9obH4HFeyCY7SV+8BxXkOv6PcaZcO9wwLTMWxj3okVTMWJiRivT9Kjkj0e0SUYdUwf6V5ahMbZr1m0fzdOtnzndGp/SsmjYfilxzQOKXuMVIiRPu80uOKQcClU7lzTQDHHFQjrU8n3ag6UAKabTu1NoGMYnNN+23cBPlTOv0p71XmFCdhEx17UwP+Pkn8BT4/EGpNx9pasmQ4FNikxiq5mKxu/wBt6iet01RPrOp5+W8kHsKpBsikzVczFY0I59fuD+7mmwffFWY7HxDLjNy6jPUvWMrMp+V2X6GpFvruP7l1KP8AgVHN3YrHRQaLqshHnai6r9c1LJ4KtLw5vbySQdwRwTXODVdQH/L7L+dKNZ1Mf8vkn40+ZC5Wzo4fh94Yj+/bGQ9yzHmrA8EeGkOY7MIfVZGB/nXMp4g1ROl2x/AVKfEuqKPvxt9UpqUQcDdbwNoPOwSR+4kJ/nWfc/DXRrg5N3dD0+YHH6VTj8Xagv8ArLeJvpxUq+Mp8/NaLj2aqvF7kcrKzfCjSQcxalcr/vKD/QU1fhhEhymsOT7wf/ZVoL4xP8VkfwapU8ZQEfPZyj6VNodyuSRjS/Du5X/V6hC3+8hX/Gqj/D/V1Y7bmzYf75H9K6keLtNI/eLLH9RSp4n0hz/x8sv+8KLLuTySOKn8Aa2eAsD59JKyW+H/AIhinJNkpHtKv+NepL4h01zhb5f1qymo20gyl5C31am1caVjx+TwlrcTYOnS/wDARn+VU59C1aKTDabdD/tka9tNzG3IliI9QwpGept5i97ofM0jg8b8n0qE7cdeaYSB06+tCisjUco54p2ADz1pMAU0tk9eKBlhDipS2RVRCcgDrWrb2sZA8wgk1LaQiqBk89Kbgn7ozWqbONxtRTj3pklqIeAelJagUFilYjoB71L5RjXLMMVKWCiqrkyuNx4FOwiVGBGVpepO/g+lLEywqW4LnheOlQsWLnJ5osMl81gcKcfSpUUsN5+VPU9aqgZ60kkr8DccDgUWA0RMiD5G59RTGfc2etUFZwNxbj0q3C425b8qizGPxuOK29LiaXoxUAcmsZOea2tPyLYKgPzdc1DGiK8MYkYRbtuerd6zJehrSuFAbFUJVHNOJqZ0/JxVVxVycDNVJOhrREMrnrTRTqTFUSFHalxSYpjEqzaNtnVvSq+OaljOKTVxGtNqzqoVOgqnLqM0wKknFVmO6mkVSSHdjHOTzUiYC1GRSZ7UAWBJhcVa0c51SMe9Z2c1reHYGm1iPHRRk0hHrVhGrpGW6Ko4q1c42EDpkVShDYVF+7jmrEsuEVSRxTlsC3LW3/RBUVyM6TKv+yaninhNtjdmopGRtPlGf4a8WUffZ2x2MzwU7vayou5QHJJ9a6qd9hDDvXMeGJltYZIlQsS2SR2rT1a9QwKqkgnjFaVXdJBFWNGGWJ3zI4FWP7StYgEGcVw7XEin5WNI07nBc/rThaxvE7SJ0ubnenTrWpYxFLSUkdTkVyNnrsFnCSy84wK0LbxDI8W4kKewq4rUKmx2P2mARKhcZAxWdKwZzjpXMjUJC+dxPtXQWyO1urkHkVvY4pbjieKgdtpJPOBUzcVE/NNEnnPiK6mutVYSH5E4QD0rKUVt+JYtuqHAwDWPsPaqEAApcU5YX7kCneUcdf0oAaEFO24p6x8d6cQB/Cc1LYyDZWXrY22B963VhJGTVDVbD7XEEU4ANOL1EzkLQfdHq1ayqWukx2NTR6E8HKFmb37VKLCeP5+/riteZEFW+Xa+ajtP9d+FQTSO7ncxOPWoVa5kmSKGNmZzt4FUwNwsgYDcDWroiNNfxpCNxzyewpbbwxFGqNOWZ+pFdFpEKWkgSNAPcCsZyXQuKOiSHagUkEgdRWBqqf6URjvXTRIduaxNSh/0knHesky2jF8v2pjqQOOPetAw5phtiRTEY7WsbZOPm9aitNLtbabzljBkz941rG2xy3SmmNQcKB+NO4rEJGTmtPSCEuRVVYuM1bsRsulzSHYu68SyxAKetYyoc10OuZKxAAnNY2wd6AZGqGpPKJFWViPAVPxNOaMjrxRcCr5eBQLcuxO4gDpjvV37Oc9T+FOW1lYjbux6mi4miotsF+9nPrTXihBwSKvG0YymNm6dfmqVbW1iTARS3tSuFjK2x/wim5XP3GIrUa2aThImx600abccEqw+tFwaKgm4GIyB6UhlVjjaSfStVdNnaMbYlA9Sc06LTpoh8+zPoFzT5kKxk+UwGSMZphVvStz+zXnkDOz59KedHUDH8zUcw0jninHNV5QqjOea3prBEB4yR71QuLYKuSoHuaFK47GM3JzXm9yd13K3Ysa9JuiIYJX6bVJrzRvmLepauikZyNi+Xy/DFomMbnz/ADpvhtR9pnbHIXArob3RzfadbRLx5aAj64qtZaWdLVkZstJ8x9q1uZsTU2P2JsdM5NZds3GTWxdRedC0frVe30xtuCRSbsUk2aOkTWIs3845lY/d9KpXDKkh2ZIByKF0meOQOj9PatCCyC2zB4t8jdyannRXKzc0SRr6xjjIx61U8RxW7QrDb4Zo/vEetM0lJrVJVRiu8flSRwtE5QnPvVXQJHM+S5zwc1u6TrWoafpE+nWKKPtAKyOPvYp0lugc/KBT43jiBGUHvnmocyuRlSLRr7ymuTGBEhyWY4rVWTzgrbtoUYAqOfVYzY/Z2kXZnPB61RGpWyDG79aaYnAtyWf2m6MrzvubA+Zs1tW8Nhbw/viZWUZVSe9cydZtx90FqQ62TxHAxPsKTuw5Ui3NHvkbH3c8VH5OBVL7dqMx/dWb89Plp6xa1KOINoNFmVeJMYWLU1rZw+d4+uaj/srWG6sB+NPXw9qMoBaZh9BVEuUSQRoPvTfrQZ7eI484fnUq+EJn/wBbLIw+tXY/BkAIZwzn3NBPMY8l/bjjzAR6CoV1SBCflYjtgV1K+FLMdYRVmPRLSJdojGPpTRPMch/bTNxDaux9xTlv9Tm/1VoV+ort4tOtkIxAv5VoQ2VvgfIB9BRYfMzzwR63cLjy1ShfD+rz43OPyNenLawr0QflStEiqTsH5VVieZnnEfg25kH7yZufTirkXgiJcb5XP412G4A0hZfWgTRT0XT10OB4rbjeckk81ome4k5MpqIsPWkLcdaLMY9lY9XJpPKJGOTTS5q5ZyAfeFVFXZMir5O3op/KjYfSrszDdxUaHLdKvlJuVjGe9LHmOTcDgirTRs3RaiMTA0+RiuQyLuYksaZsWp5EIGTUGeaTTQySOuR+IkSm1tpe4OK61Kx/Flqt3pqq3QUN6FR3PIXUjNenaBJ5vh+ybOcR7fy4ri30gZzv49CK7Hw4gi0NIh/A7D8+ayZqaYoIxingUEcUhDh/SiMYyPelH8NCjDGmAjjioMc1O+cVBj5qQxT0/Cou9TgcVAwwaAAioJelWCOKglBxQBnz8GoVNTzLmq3T86oRcV/loLHNRIeKfz+FFwHZzSE0U0sBSAXNJmjNFAwB561IG4qHFPB4oEI561HnmpGx3qMjmgCVDxTsn1qJMg1KDzTAQ9OagkVD1QVZI4qF144pAVDFF/zzA+lN2JzgYqRhgkUymgGkMPuyOPxoE12n3bmUY96WmtRcLHlmQegxSgntTcAfSnZHTpSTELlj6U1getSjaozjNIo8xvb6UXEEIZjxnArTgkKgZY1UUBVoMjdBU7jNQXhAwvFMeUsCSetZy7855qePcetNWQhzZY0gBQHipMBV5NRu4JwOtK9wsCsQ+cAmnYQcn71PCqAQMFzxj0pmyOEfM+X9M0gFC78qilm7YqKWFw+2Qbamin2AhDhv71NZQchCW9frQMj8vAxnNPiBZgMUKrHrmponEeABz3NJ3EWooWDBiOlbVoSsWF++egxWfBukQHjFbNnJFZW7ttLykce1YspGbd7vMYHJI74rOlyM5rWmVmBdyMntWVPyapM16GfcVQZskitC5AArPYc9K0TJYzFHSlNMNWSKWOAOwpKTvS0CFp6D1pgqRR0oAk4AqByc9KsRxs8gUcknArbfRTa2XmyBQ5HOe1RzWKUbnM5pPwpzjDH60gFaakgK2fD80iXu1FHXJNY+K6LwnGr3EjN2700B2VtqzwvlycUk+qT3BzuO3tWZf3CjiMdO/rVm1iLQKcdaqWwi3BczEBWJq4J5BEVzwRVNPl4NWlXKfWvJrJc2h1wbsdP4TsrePSZ7mUfvCpz+FYN3IWmck/LnirFjfG3snhd8ZGKpzjKk1nI0RBCRJcjP3R1ptyDJKF/gFSWS/vGqS7i2ugx1rWC0LizPnHlqD71rWRDIDVPUIcRirelqWQAVvFEVJaF9V+YV0dpevIqIGKqoxisAoVIFa2nxkgH1q7HPc1G61E5qZ6hk6UhHI+KYM3EcnGF61zwGK63xJAJYwxIAGOveuTne3gc7pV2gZ4NO4Cg5IFPLKOxqnaanDdzrFCA2a2BEg/j/APHaVwK0ZUHLU9Y2nlwgzU6xx45TcT2qY3DQxlIo/nbgY6ipuUVBBMWPzgKDjJpTAqn5juq8LW5lTLEIv60NZAYwST71DYMoFFC4UYqJoGcEKMmtRbQNJjgAe9W47OOMEg5NNMLHFN4dkluRlwkeeRjmulsdJtrdUKxgso+9itHyUU87c+xqxbQiQDAp84uUqvDuq7p9nlg5FWvshBHy1sWVkVQDbUuQ0hI4SFAxWVqNud+dtdSttgcCqV9YlhnFSmM5QQn0pDCa2TZHPAp66cx52mnzIDnXsmc9zTDZbeGwM+tdR/Z5x92oZNPYHd2HXNLnCxgfZAgJZx+FEK4lVlU7fXFakdoruHOSvoKmNuMgLH+tNSCxW1Ms8cR24JHAqCG2dtp8tevpW3PA8nlrHEGOO5qSK0lX5pQoPpnml7TsDRlrbyqc4Uf8BqUWMkrB2JHsK3Lawe6fapHHUgdK108OOEyWP0qXMDk107Jyc/jUq2SAYfafx6V1tvoC53PkntntV6PQrVDuZAW9alSb2BtI4qPSINhICHJyWPWhLBFc7ELEdxXeLpkC/wAFSDT4P7lNc72RLaOFe3kSMny2FLFp0zjMkWB6Fq7ptOt2IJTp05qX7NEOdi/lT5anYOdHIw6bcOufLRR+dSjQppfmyAfQCurCqvTAqJ7y0iGZLmJR7uKfJIOa/Q5xfDTooKsN306UPoEh4KsfpWvL4h0eEHffw8ehzVGbxvoUR2rcmRvRFJo9jLuK77GdcaCyxkCPn6Vzt/pTRg5iJPYmtO/+J1qhK29ux9Cea5K98a3F6xO0D8KShJMtbamdf2PnI0RGA3WsSTwnapJ57qfl5xWn/aLTTjeTtzknpTdU1u0W0k2MzS4wEAzXTFNESFWeKOFWZwMisa7u0uLp2QNtHAJ71Jo1xFeXcfmjDYPyntVW98uO9mRCMBscV0RRkxDKFOT0FMGq28X8efpUM3zRMPUVz/l5PfrSlBMcZ8p0/wDwkUKj5cn61E/ic8iOKsWO3yMkVMIgOMCkqcSnVZq2niKaS8iRhhWbBq1rt1Pb6lG6nEZAJrFjjG4HAyDW5fqb3RY5erIOtNJE3ZU1l7gsskTkDHJrHH2lj80rc+9aokkuLNLdULueOK39G8NJEVmuxvfqE7CnZIOZmFpHhy51Nw8haOEdWx1rq4vCdhFtOwnHc963o1RVCooVR2AqQ9KgNTNg0OyVhsgXI9hVsaXEv/LFR+FXrMAPip3ODQIzxZInAVfpS+UqnoPyq0cGo9gJoAYEXHSnFB5e7AqQqMdKa4ymAKYEgePaMAcUhkX2qHaaMU7ASNIDUQGWpcUqkZpiY4LirluoI5FVl61ZhzmqILIXNNkTKEU9RihxlaoVzHZDuIFK0DhN2R9KlkGJDQW4pWC5UMch6VGyzYwKu5FJkZp2HczyJlOTmpYpplORn8RVz5e9ACgcAflTSBsjSSc8lcj3qxC0nmKSoA74NNzTgeatMhmgJ1LA7ajdlZiacXghtM8vK3TH8NUDMSSRWnOTyluREMRJ61nMnNTGfIIqJpVHU1MmmNJidKo6yN9lz71baeP1qlqcqvZMAe9Z2NEcU44Nbfh45tLhD/C4P6Vit99h7mtTw84E11Ge6A/kf/r1mzQ3loI5oFHekAuCFFPwCc0h+7QDmgBG9KhI+apzUZHNAABULrycVOtMcc5pDIsfLUEoOKsnpUMnQ0AZ8tVyKtSkVWJHNO4hUNPFQqwpQ+OtMCY5x0qMnJp6tkZpjDmkAo7c0uM0L0pelAxlLnilxxikAoENJpM0rU00wHqeakB5qAdakzjpSYExaomfg01mJ71Gx96YCSHNRHHUU5jmozSGN/iNBHNHfNGaAPKwC3uacIiBk09d23JGBUgA6tmkyEVznoM0obb61Zyp6cVGYxmkFxEcscDNWo4m2gtxUUWxG+5uParEkiqCWcA9gO9AAcDipEGFzxUEZZzk8CrHQUmMY4dx/Ko1R88NipCSaATQlYTAIVj2jP19ajdB1bIHrUwY4pM4wzDPtTBEcYI+lWVK7ckdKiDbjnAH0pWyRjtQMkaUHhRgUirvIIqEjBGKuW65RcYye9S9ALNu0r7YY+p4xXQ/Z4rVAu/e5GetY1qwtAZAmX6CtCwfy0eVjulf7pPaspDQy5VkJyfw9KyJupzWzc7lzuGCeTWPNnJojqbW0KFwO3rVUwqseSTk1buDioAMjmtBMosrA0m0+lXzED2pREo7U+YnlKAic/wmnrbyE9KvhQKcKTkxqJT+yOcYqxDZHGCcfhUwYipEkIqXJlKCL2nWcVoTcSYaQfd9qZrN4JLXDOT2wKh81sdaoX7l+DSSuxtpIzW60opCOaWukxCuo8JxblcL1LVy9dl4MTK/jR1EWtRh8uZR2JratYx9lU46Vm6sMz/StqzX/QVqp7EorsnzVpW0W5KrBATmrtscLXkz3OqBiXzFNRjjz8uela04xa5rN1GIHVYs+ua07j/j1xUs1TItOG64xVm9XFxF7VBpJxMxq5dxNJKhXsK1hsWipfJui+lT+H8OTnscUSxmRCoHNM8ONiV07hjWkXqTNaGtcjEhrX084hUVnTwPJdLGOrHFbEFrsmjhjzjHU9qrmMLE7dKgfpV6W3OO1VXTBIpCMPX7VrjTmCjkV4percpPLC5Y4b9K+gpEDxMp6EV5F4ktxY6uxwAH9q0iS79DL8LwOl67FcDbXdxxoyjEgLEdBXCDUpU+WHANdD4TaXUNQkknkdYYBycYyfSnNaBC99Tp4oIkwqqXlNWIbKbzfNIRVHT3q3aeVMSluiuerMetakdpcMgAiXj2rlbsa2Mc207ksW4+lPFixHXNb8OjXU4yTtUdQBVv+xmRfmdh9KhzCxy0emJktJkAdh3qb+zEb/VxlR3auoi0IyEKzttHaryeGoScsOnvS5x2OQj06NMARR/U81oRRRwrjEfPoK6xNItogSqpn6U+y0mGCTeVDOedxWp5xuxz1vp/mHdsYc9xW1BppAHFa4tE3gkZx0qyqADgU4qUtiHNLYzE04Yzimz6UHU8CtgLQQMc1t7GViPaM5waNk9BUg0celbLzQxgl5EUD1NVX1jTo87rqPg4PNZcj7lcz6Ipf2QPSo59F8yMqAKsS+JtKi63IP0rPuPHekQEjeW/EUcj7j5pdiAaKF3b4JGP+zwKrjTnWTm2YAe4qje/Em3OfIQ7RxWJP47lm5RCBVKlMpPud1FYI2FZQo6ZzWnDpdinCxKW7Fmya8hn8X3skoZXYADG0Gom8WakRhJGGaaoTE5Lue3xLa26kR+UgHXBFSSTQQgmSVE/3mxXgkuv6nKpU3T4PYGqjXl1PJ++uJGz6sa3jBrdIzaj3PeJdf0iHO++h49Dn+VZU3j3Rog2JGcg44HWvJVf5AGb8zVaeaFCcuox15q1Fi91HqMvxLsF+5btx6tWbcfE9y4EFuFHuM15k19AP4wajbUYFPAJ+lP2a7gpLsehT/EnVG/1SIo/3ayLrxrrd2hR7ghT2GRXKtqyBflQ/jVZ9UlJ4AFHsooHJo6GXXdTlGGunGPc1Va9upGy9xIT/vGsM3ly/TI/CjzLlurNT5Yi5mbDy5+9J/49UYmiU5Lj86y/LmbqTSrayN3NO8Q1LtxdwKPv59hzVb7fEOgJqNrEn7xz+FMNoqjNLmQWZHf6uscDBFzmpvCiW9wHefaWxwG7Vm6lEDbYFY8c1xa5EUjID1xTiJmrqsptNUl+xy5CHGV4qnFeyeaobkk81TVnIAyeetdDZpahFBAz35qyBrvmMjGKoiH5uFNdFG1mq5K/lVW7vrdQFgjy3rincLGdGpH8NO8vJqWLc7FmNS7OcBSSewpDIUQitawtry8tmtoE+Rjy5HStPRfDL3bLLdrti/udzXYx2sdrD5caKoHoKhyCxh6doNvp0I2rmQ9WIrQERBGBVwoAKMCi4JEKqR2p+MqOxp/HpTuCvSkUOtR+9HIq5KmV5xVOD/WirrhiuAaBFYoKQIKeQwPIpCeelMQgUGlZRs6UoxTxjBqgKZagMDUskQIJqMJ7GmBKuCKV1yoyKaqnsDT2VtvegQwIMVPFwcVEAcc1LGORVIhlxTwKDzQg4FOOKsky7jhzTcgpirFyB5h6VBxigZHj3pMVJgYpCpoAbtNSIFHU03BpCeapMRMSnYEUAZqHNOTcSMUXESMABUD8Gr0lpII9+RjGRWc5zRdDGM9U7p/3L+tWmQYJqnOhw2AelK40VDIAOtRyymSPaBUbAk8U+OOQA4XOaVyjn5BtlYe9amgw4unmPRlKgVWubGfzmKpkGrGmStBdRwMnJJ5zUsq5u55oU0dqBUDJOopoPNOHSoySDTAcaRqGJIWg/cpAKvIoekQcc08jigZXYVDIOKnYdaiccGgDPmXNUyCGrQlXrVOQfNQgIe9NLAGnEgNUTpvPWnYCdGyODUnJqkkbKTirUZbjNAElLTScmgUAHQ0dTQPelGPSgQMoxUdSnpUR9KBiA0pNMOc0vOKBBk0xiadmmMaBkbHFJmlY0wcUBYCOaB0oJooA82kyBnGAKi3E1JITIfmbAqMiMDjOe+aRAq+uaeWz9KhLYGMUm8ngUuVhoTq+zouW7Zp0UfO5+SabBHuIZquKiKMnOO1JAJuCjLDFKrhu1Mbbn37UDgcU7DJCR2o28ZpqAk1LuVevbtSAjYMBUOGI5qVm3P8AMcZpCctjtQAgO3pShyeMig4xUY+Y8GmBYRA2Mt+VXoF2gc8VSiwoyasK+75R37VLEaUBEjZf7g71u6RCg33EoCoo+XjpWDGyQxiLcGk7kVt6Owb53OVjOQvqaykikS35RdztGFGPlB64rmLhgXJFdVfoZsyMMAjjiuUugPOOKUTfoZ1196mIOKfccvinRp8orRiQ2kxUvl0qx56ilcqxGAaTBqwEpQgzgDJ9BSuFiuATTwpzVj7PKBnyHx7ipIrS4lP7u2kP1XFCEVWBC1n3D8kVtz6fdpGXmQRJ/tVgz/fPeriRJlfvS0Y5oFaozCu18F/cJ9K4o13HgiLFtLIepJxTAvaorGc8Vt26lLNFPXAqm8Ye9XPY5q+vIx2rR7EoYDgn61Yg5NQgDfVuBV3gCvJrK0mdUNhZbRGk8wj56WSHMXQZqzgYFSrEGiJ9a5r6myRl2cJjyfU1poRx61WC7OPerMS5Oa6Y7FoiVR5rr7Umh2oimeVhyz5H0pf+X2Rfardv8mB71a3FPY1xGBOJMc9qv2x/0gHuRioAuYEYcnvT4WxMlU0YGjM4xjvWazZc1dcksaoyDEpNNEsaa8y+JEGy4gkVcZ6mvTH6VxXxAtTPpolHVBVIR5hHuDAite31O6jtzBBhVPUiqFvGW4xx61oRoqAAVfK2bc6ijvfAd7FGj/askqMsSeST0r1q0sUliWRSiqeRuGTXzpb6l9gnSRX2kHOPWusT4n3J2RRKRgYAxWU6DexCqJ7nt3lIgybkKqjoFFKhtB87yr9c14tceMtTuUCs+BnOKpSa/qEuczEfSsvqzHzR7nuT6jpsecyJx71Un8S6bEVjVxnuRXhz6net/wAt2H0NQG6nflpnJ+tUsM+pPNE9yl8ZaZCMKwNUpfiBZIcIFJ+teNxszOC5JPuasKyK4ywFX7GIuZdj0+T4gogYjbk9MDOKoj4jztLsVWx9K4J7mHb9+oVuo0kDZzR7GIc3ketJ4rvJUDKevtTZNdvJhhn/AFri7TWo1gHAP1NSnxBg/KAPoM0+VDT7HQXt3dSWzqHOa4e7uLmOVo2lfP1rUfXpWGAx/KuVvp5pbhiSTVRUeoS5iw0z/wAUjfnUDSIPvMPxNZrQ3DNlc4+tOWxnYZNVeJFpFtrqEdxTDfRKMZqAaXK3VjU0elqPvE0c6FyMjbU07KaadRkI+UY/Cry6ZDjG2rMdhEigbc1Htki/ZMxvtly3TP5U8G6ZhktW6LaIdqkECDtUOqV7IxxHcuOSaZ/Zkshzk1vCJB/DTgFHal7V9B+zMEaMcjceKlTSIwegzWyzJULSAdKXtGHs0Uv7OjHGBSiyjH8NTtMKYZwO4o5mLlQ0WqDoKd5SjtTPPHrTTPjpmhXCyJPKTPSmMgB4phnJ7VG05ye1NXB2Qr4ANVZWAFOklJzk1Wck960iiGyhf5aMgVlCF3PStmYAg5qqiYet4mTKQtiDgirQXA9KlZfmzStgnOKpE2IscU4KOtOxkgDr2FbuleG7i8KvcAxxd1xyRQ3YLlHTrCe9kCQocHq2OBXb6Z4etrJQ7fvJf7zdqvWNjFaIqRRhQBWmI/l6Vg3dlpCWseTgCnTIS2MdKdDuVqe5wCSKQyk/LU3HvTjjJpAKoQYFOH3cUYFL2poAjOHFaCjcgNZwb5hWhEx8sfSnYQ1o+c5pvkgnrT3J4pMmmIb5K5p4iHakzk1IpoQCLACMU7ylUfdFSLS07AMXYOw/Ko5gpTipSB6VHIMLihIVyt3p6CmAU9Dg4q0QW0BxT9vFRo/FSBgaoRUuIhnNQbQOtXJe9VjzTERkD6UzipcZppTHSgBmOKaVqXbSFRTAhxzUkYOQOnNLgUuOaAOkktoDonmzS44+UDvXJbMVc3sU2Fjt64pu0HqKEgKZFQuMCrzoO1QOlPoBjpHuZ+BwamSNh0pwQR3EoPc8VMgI5FSVchMTHriq4sUEyyk/MDmrrbiaTPanYaIyKB0px60AVnYscv3femMMU9eBSsuRSAjxlaD9ynKOMUMOKQDE6mpD0pighvapO1AyF+pqFs9Knfg1E1AFGY1ny9TWlMOtZ0wwaAKrNjNRmYg9adICSQKiMQY8imBNHKD9aso+elVI4dpq0i7RTAk4oBANIeBSZFIB/enZqMUZ9KYh5PFRGlJOKYTSGIetJz3oJ5zRmgBpamk040wigBhOabmlcc9aZzmkMd25ozTc0maLgecFTtznFMIOKkJ3Nk0yR+CqjJoIGEehFCj5s8Uoj45ByacseDRcCZSfXipugwx5qurbWB9KXzCeWPNAiYKuc0/jHWqxfHPWhZCzYoGWWcDgZFORcgAVDz1wakjlK9Ov0qWArxBCcnn0qJj6VMqZBJoaMZyBQgK/JGKcgwKkYbcAdTSqFHJpgKoY56he1W0t5F5I2+5psWwYcjOOgqUO7nByV75qGBLax73GASM4zXYaLYrI4D5244Qd65SKcKwAHFdRo+oYACDL9zis5BHc1dXhAt8sMMB930rz25/1zfWvS7y0Z7IyGJmBXPPevN7zi5lH+1UUzqa0Muf7wqxCPkFV5j83PrViM/IK3exC3JMClwKbk1r2NnGkXmS43HkZqFFydkW3Yz7WznvbqO2t03SOcfT3NelaX4QtdOtlyFklP33YdTWDpE1vYSNImC7fxZrdh1oM++RwFXtnGa1VJrczcuYuSaVAONq/98iqtyI7VPKSBS/94jAFVr7xaiF9k6KPRRWWtxNqlvJc58uBfvyN3H0ocLAc1rMlxezSPLJ8ifdVelcrKckmtXVL3ezRxP8Au84z6ishjVIiQygUooqhBjJr0HwkpSxXPpXn68sB616R4eUJZx47ihCNUpmcGrCJTF+aXFWAvNW9hIrtxOR2FWrQ4maq5XMpNTQHbKfevKr/ABHVT2LbNg1PFJ+7PPaqRbmp4TxXOlqa3EcdamtvvDNIQKWI7XrqtoUmRyHGqP71bUYdfrVSZSt8pNXC3zp9aaCexvxf8eYpinbKhp0JzaAVXuZUjdBn5s9KswNINnmq02N9SxHMeaq3sqwxNIT0oRLBjla4Hxv4kiFkdPt0DySHDMewrqDrdvFZSvM2GAJH+FcCltbzTvO7HLN0PNXEUjm45niQ5Q/lToxfXbn7LayyY6lV4Fdnb2tluDE/hWotxY28PyRbiOgzV85HKzjLTw1d7/N1GQIgGfLQ5Ofc0Jp62shu9jmLPGa6aaZ7ubAwEHpVqO0juLRhtHpik52HyXOU/tFf4VJFMOpHsMfhV660NbeXccYPQUxbFB2pKqh8jM838x6c0z7TO5wATWulnGDkrUgtY/7tL2o+RmPH9oY/xZ9qtpBctjdnn3rTSGMdFFShRnpUuoUoGctpIcZJqWKwZmGf1rQFSIcYqHNlcosFmqLVkQqtIrDHWhpOOvFTzMdhHVccVX8tSTwKV5lH8VQtcDoMn6UtR2JdqL2AoLKBxVU3I/8ArVE1wx6ACnqBbMoz1ppkqmZGPeml2z96jlHcvCXHenG5HrWfknvS8GjkFzF/7Uo70n2rPTNUlIFO3j0pqIuYtG6bsTTTcMar+ZTTIKOUOYsNK571GXJP3qhMnFIZOKfKLmJsY5JpMqO9QGQ03zR+NUok8xOXAppkzxUBkz3pvmY71SgS5k+8461E7+9QmQ+tML5q+Um5IzkiombPWkJphNVYi4jnNRYAp7GoWaqQA55qS2tbi9mEUCFieuOgq7p2iT6g25gUjHc967HTtNgsYwsaAHuaVyRmjeGrWzVZZ8Sz+p7VvhUQYVQBUMZwKkzUvUrYlQgGrKn5appyanDYHWlyjuSI3zU6RhsqBD61IGBOKaQmyuTTc08gE0scYZwCeKfKBHk0Zq5JEqrlRxUBUZp2FciHNaMX+rA9KqiNR3q1FkR07CuO70mKXd60vykUAIAc08U0U4DNMCVRxTuopEFSAUWC5DjmmSLlam79KYxwOadhFPbzT1XmgkZoBx1qiCyi8U/aMVHG2RUvamIr3APYmq2GFXZFyCaqnNMCPkU0tzzUu2msuaLjGZopdlAU0AG3NAU5peQfWnK/tTESLGNm49fSoyp7VJ5nGKazD1ouBCUqB1bPFWiwxUbEGm2MyZ1P2pcjqKmjXjpRdKPNVj9KchG3FIaCRCDwOozUZQnoMfWpmOFUZ5xzUTNTYIhYcnFIKcTyaaOtYvc0HZp3UUwn5acv3RSGJznjpTjSU6gCLnPSn0hoFMCNwc1CfvEVO455qButICvKKzp+K0pehrOuOKAKjDIoC0pp6rxTAaoGakHSm7cGnCgQ4jNMxTx0pDwc0DEoJpTTDQIWmmlpD696BjTSU45pnPekAHNNNO5pCODTAhYVHgg1M1RGpGNBooHNFHUDzlh+FKPlGcc04DPU01wAODVWMhNwH1pfvVGqlznFPbCjAH40aFDiABzUJO7gUHc55qQIABxRsIckagAsSakVVGGAFKik/fHFHPfFSwHEZpyrx2qMEk1NgDg9aBibwDipAwI5qEjnjrUhIjjBPL+lIAKEnjqelAh2/exU8Y+QHHJqJyW+TtTAmQDbn+EUB2dgBkCm4JjC9qfGozSAnUB3VBwe7V0Xhq2e41aO3jYpEOW+lYMe1F46+tdDoN4LZJHVQDjlsc4rOTurFrRnfa7PbWmluGucKBgV4/cuJJ5HHRjmtjWtQlu28snCDsKwmNRThY3lK6KNwf3gHvViNhsqvMPnzUW8jvWrVyEzRDovzE9Kjk1SVnwpwPSs55WHc1CZmq6cbMicrm2uqsoxz+dI+pyN6/nWMJTS+ca25iDYsitxdeZdvtgUjdyeas674rN7b/YbNTHajg9s1zbyM3GeKaE4zWUi0xdxY5NIetSeUwHSoznPIoJCikNNzTEWIOZkHqa9I0rEUCKfQV53pqedqMKds5NejQ4QqB0FNAa0RzIOMCrYIC1RtnDMeRgetJd6jHaxnAy2cCm2JInZvmxSo37wVn2TvJCJXOWPU1ajYmda8yqryOqBbJ+Y1YhPIB71m3V0sG4ZBcDpVbTb0zXwllfCL2PpWcVqWjom4FRiTD88AUybU7cRsFXJ9a5671GaYlRwtdBaNPUNWBukgg59WrRt3JRS7cnmuKDmOTf1Na9rfSOMsxHoAelUiZM706hb2tod7ncozgVhrfi4ma4c4LHgVivM8owzkj0JrPu9Q+zsqDlielWkjFnaf2vIw2I2B0pS7zwPvYkYzyaw7KaMxJlwSRk806XX4bS3uCp3lVIUZHJqrIRyt20z300YlIXdyDzT4gV4LZqobtQDI33ic1ENQYn5QKn0KsuptIR6n86srKoHNYKXrnrST3sxQKhwT3qXcfuo3fPCg471Nb3zW6BQTgVziXEiqBuOe59anglkZ+WNJodzXmuGnm3tTciq4NKWPrUWKLG8UnmAVXBpd3FMCfzx2FKJ/QVWBOcU8UhFgTMaVWYnrUSmpAwosMn3NjGaaSemTTd2Ka7cUrCEbAqMkU12phb3p2AVmGKYXpC1MJpgLuNJuNNpuTVCJg1G6og1G45poRLvpd9Rbh603eKBE+/3pM1B5nrQZcCnYRKXxTTIB3quZs96jLHFUoicidpvemGWoC2abkmtFFIzbbJzLmjfmoM4pRTsIkzThTAaeOlFhAaYacT61ZstOn1CQLGpC5+8aQFNY3mkEcalnJxgV0Wl+HAmya6Xc/Xb2Fbmm6JDpyZA3SEcsa0NlJsCtBCIxhQAB6VNtp4XFO2nHSkAicVIKaqnPSpcVVgLVjGryHcAcDvRKoWRgOlPsvlnFS3EYE7cUAVFGKUd6l2e1Iq/MaaApnIanIST1qby/ak8vnpQIuPGVtQzNk+gqoVBNXXB+yfhVTaQeRTQBsq1CMrioQMgYFTw5z0pkoDHg9KPKNTMpNKqEnpSGQCMg1IAR1qcR+tL5XoKYDIzxUgxSiM46UeWe2aBDStMdMg1IUYUhGAcimDKZX2pAuTUrY30ADNVYkci+1T7aYnIqQZx0oERyKSKqlccVeIz2quyjNMZXxSYqbaO9G0HtQBBgelJipSlJsxSAj4o4p5GO1GB6U7gR0hGal4oIGOKBkBWoypqyVFRmgChdD5AT0BzTFHQ+tS6gp+xS49Kjj/1a/SgaHSL+73elVSeavOhe2bbzg1VPGcKKbGiIZJ5oAwxpxznJpFxk1kyhccUidMU6hRSAMc0tKOtFMYw9aMU49aSkAxhwaruKtNUDCgZUl71n3HetKVetULlTzQIoA1KnSosfNUqHGKYhSKMU8803vRYBcYFBoHWgmkAhPFMNKajJNMY6lNNFOoAbmmd6eaYaAFIppFLk0hNADWqFqlb1qI9alsY2il7+1BoA82UufvHFBOe9JuyaUKCaNTOxIhJGBT5AqjbnNNB2jio2Y55pajHKoB6VKFRRuc89hUSMQQaVmyMmjcCRpQB3pobJAHJqINk9KlXAHHWqsBIvHanZwOtRZpQfWkA8HLdKdwDk9aRMngHikJG7A5FIZOrYUFiB+NHmKo3FTnsKjHT7oNNbexyVP5UMCwZVC98miOQ9fWoo4y2NwNWWiITOAM9BQBKh3nHatuzLG2Cj7nU1hW4cusaDLGukhAtrRsAE7eKzY0zGu5y0xUJj3qo5/Ors1uVcljz1wKqsgGeKFI25SpIAarOh7CtDyg30qWNI0YFhnFCkDgzOmsZEiDHAzyAapGIjrW3MpmJLMfwqJLKNj82SPrVpkOJlLA7nC1Ktg56n8hW9GkcYGFHFK0oH3Rg0OQuQwxYjsGJqRLVkIOw5FaLPuOe9RFsZJNLmHyFcwb+NpHrVe6gWMVeRwx4qO5iMp/Ckpag46GOetKkbNnAq39j+bk4qYRpGNorS5KiJpZW1ufOcE46V09veTTDeSQK5uMAsBjitiO4woUAURl3DlZppdyL8oYD1NMkuDJgbuM85qiZM0hbNEpoagzfgvN7JEuAo9K0HuUtxvJywHGK5aK5Mf3Qc+tJNcylCSTXJKN2apWLzXTTzSSE9TxSrIU4ViPpWVaOfJxnvVtW4o5bFpmkLj90E3VG0gJ61VU5p/eqHzEpZe9IbtYFLZ6Cm/KByRVS9KiE80IlsnTWDKcA8+1Zd1PI10ZCeajsPvk+9ExzLitESatre3CR/fOT+lROuR9eTTIPu1OBmk2Ig8oHGc09YVFWFVR1pZcLEcdaXMPlIlQdhTxF7VHafNk5rTRKTkCjcpFdhAIqWJQDROmJVqSJfmFJPQdrMnHNOpwQ4o24rNs0SG4pQKMUgBzSuOw7ilBFN2mlCn0oFYfupwbFR7TmngHFO4WHB/U0xm5pSvNNJxTFYYxqMtTm70zANMQjGoy3NPI7Gk2j0pgN3UoGaXHFAoEBGKb1pxGaOlUIYVzTTgUryKo61VeUseKtK4m0ibzFB9frUTPnmoyaTPHFaKNjJyHlqTNNA7mlqibiE00tQTTetAh+aepzUYToTUo4oAkXFPX5iFUEk8ACrFhptzqEoSJCBnliOBXbaT4Zis0DOoeQ9SRWbkOxz2l+HZJyJLlcL1C12FrYx20QSNQF+lXlssY2jAqYQYHSp5h2KXk+opDHjtV4R+1L5WR0pBYztmT0pwTjpVswY7Ugh9qu5JWCc1J5ftUwiI7U9Y89adwFs48Tqe1WLojzzS2yASDipryEeZ060XApgA0BMdql8g9s0nluDyOKpMBixjuKj2ANmrtuivMqseKfeQIsvyimIYE3QZquUGelXQQLfaOtRbQTTQmEVuGTJUdKREAYYHFX4EAgYkdsVVxhqYg2+1OAFOHNKFpDEAGKcBQFp2KAEApaUUYp2AaaYwqUim7RTEVGQbuRTfLHap5BhsUwimIEBAqQE9xQtSYFIQw8ioGXmrLKPSoWQk8UxkW2jGKspaSsNx6VA+AcYxRYlDMUmKeCvY0uKCiHHPSgqfSpcZoIpgQrFuOMUrptOKlHBpG+Y0hFYr60wgVYZahZaYyrOm5GHqKqW7brdD3Awavuucj2qhAu1WTP3WIoGhysVJHY1WMvzEADqe1WyADUD481sAetO4EDMSeRSrSyk4HGB0pqkZrORSHn7tKOelHalHQVIxD9+nd6a3Dil70xiHrSdjT8U00hDTUbDmpCKawzQMrSDg1RuBWjIOoqhOODQBlsMOaVetLLw5pF60wJGptOIyOKTpTELTCaf1pjjmpGRs+KYH560khxUecHrRcZYBp2eKiU1KOaAENNp2KQ0CEzmmNUjdM1G1AxhNRnqaeRUZHNIYUdqBQeaYjzNeTUmMEjvSqFQYA5oeXHCgUmQIXAHNR5LvzQFZzg9fSpkhxyxwPegAGAKYWJ+lOIUng5FKTwFHShKwDURmPtVlVULnB+tNVsAClJJ4z8tFxCd6XIPTrQR7c0gBJxQUPUYPXilwM0mCBwKVFLHkUhEqY5z0FPz5jeijoB2prhR9O1KjEey9/rQMlO1F6c0m+SVgq84qMtkVJbfKxPUnvRYRowxCKMAHMhFb1tChh+Y7VUfMzD+lY1iV5mflRwPrWm0pkgycj2rGV7lIoXW3ccdKz3Byc1anY7jxVRiehqEdQnSjOTSHNA4pjAkmmNJtp9RsuT0qkSxrTkDKioRI7Hk1MY/amlQBmrIbGBj601yxPepQAeBS7RTBiQL83NWGAApkYANSkcVLCxVkHOMU0qMVK45qM9OapCI04c1cVveqWcPUoc8UmhppF0OKeHGKpBzTvMqbFcxbDgd6ZNP+6IFV99MeQAU0iblm3lwgqysxNZ0cmF4qZZaHEEzRWWnmY4rOE1PEvvS5R3LbTN0zVW4fcpyaY0me9QSvxinyi5h0DhVPPWhmBeqqPtGKkVgWFOwrmpAflAqZn2qTUFvytPnIWFjU2GC3JJxU5VpIzyayfNIbitOznDDB/KlJaFQd2T2ceFPFacSVBCyoOBVhJRnNc7ubJJEN5GRtf8KbD/AKxR61LeSqYlx3NRQf6xD71a2JluagiG0Z60nkqKQze9NMprM0sL5YB60m1aiMhJo3kjrQDQ84B4ppYCmhs0jDmmIcHDelKT71HmnLTELuxQcGmPmgGqsSKQMVGeKkBz1pjLimFiMnmmk8040xhzTQh45FIB60gYAdaYZgTxTSZLa6khOKrySnGBTic1Ew4rWMTKU30ITkmm1KVNNxitLGdxuMik6UpcCos807CJAc0pFNQFjxVhYjjmgCAITTggUVOVAFWtO0q61Sby7aMkd27Ck3YLFAAlgqrlj0A711Gi+EZrsLLd5jjP/LMjmur0DwbDp+1px5kx5JNdbHZKnAXisJVG9EWomFZaNBZxhI0AA6ECtFLbAAArTFvjtTvI9qi5XKZog56Upg9q1BbjPSl8jAqrhYyvs/tR5HtWn5Ao8jFFwsZZt80wwYPStYwjiomjA7VVyWjO8j2pRDjtV7YfSk8uquKxXSPBBqWZdzA1KI6d5VArFcRil8rI6GrIj9qnSL5RxTuFjMFvhwR8p9aLoEMApya0JIvaqrpzTuKxR3MBginoQanKA9qb5GT6VSEWoRutziqpGHI96sRl4Yzg1Bn5ufWmA4Cn4oGMcUtABjNAFLSigQm2lxxSjFNJFUA0nFRtIB1BqTjvTWAI6UCsQM240mDSsvPFM+bPFFwJV61KOKgVz3FS7x2NNIQ49KjxzUgp0aKx+Y0wYLOVGM1BJhzkgVLNGiklTUJNAkRtEM8HFM2MMkGpSaTdzxQUR7ivVc0nmKevH1qQ/SmsoPalcVhMg9CPzoKnFN8oA5pSSo9frTCw0k4xiozTy/qKYTnpQMiYVnKpWacf7Wa0yMmqMv8Ax+Sj1ANAIiIJzUOCJs+2KnbOcChIt2fWmh2K05zF9DUKdBVu6jC279zVOM8Cpmholp2cCkBpTUjGyfwmnDkc0hwRRSGOHSkYYp3amt0oAaabkGkPIqqZtkmKALEgrPuBwavK4kTIqpcjGaAMuZRvNRjrU03XNQZpgTDpmmkUqn5aQ1Vrkhg0jZxSk0MOKTKKsgGai71YkGahI5qGUgTip1NQqKlXp0poTH01ulOPamn6UCGnkUxqUnnmmE0ANY1GetPOKYeuallBQKSjrTBnm2GPXgU4IMZJp3BGQaQkA460zMeowMjrTiMrycD61HvCimk+Y3cUrAAyx+Q/LTwvze1PWIKAgxn0qcKsSBm60MBgjIUMeB2zQNucdTUbyNI+4k/nTlPPWhIRIFYn2p6qFUc5Pem7htB7U0tg4xzRYCTBPSnYCL70kXJ54A6mkZWeQKvSgYN8wz+lJGryyBVxj61K8SoOTz6ZpyKVXC8EnmlcLEq2wI+XhQMk04BUUhepqTl14GEFEaIH3E8ClcCeyjbYGYfKOg9a0kZgmTVQSpHBvIwB2qxbjzovNOQnYZ61ky1uUZWyeTULdallOWJx3qLFSdKGEUhp5FRnrQMKcAKSngcVaRDGHgVVkfnFTzNgc1RdizdaaRLZOh96cWqsGIGKXdVWJuW4myasEcVUt+WAq3g4qHoUmVpT81MOMU6XmSmn7tUiSAn56eD0qJiN+aXdVCJw1G6og1LuoC5LuFRu2aQtmmMeKAbJUbipFYetVlPFPB5piRY3+lP31XBp+aQ7jyx9aidsg0EmmHrQA3FSQ/fFMPNPiOGFPQEa9v8AdxUlyubc/SorarNwP9Dc9xWRa2MdTmpoZNjdeKrrTh61bJRuQ3AK8GpxMaxoJCpq4JM81i4m8ZFqSTIqxAeVNZ4arkTfKKVhN6l4tSF6hEme9IW96zsbXJWalVsCos5Wm98Zp2ETBqk4YVAppwbnFFguO6GnBuaOCKZ7YpITHnkU0cCkBpxqkSxMmjdnrTCduagmuVQcHmqV2JtIsMVxVWW4VOByaqSXTv0NMVix6VooGUqnYmMjMaemeM0xR7VKisTWuxk3clUcUhXNOVDTtny00BXaoHJqyyVH5LOcAUxFXaSakSHdVxLPHU5NSeVtFFwIViVBwKcASwVRknoBV/T9LutTnEdvGSD/ABnoK9M8O+B7bT40nuF8yXrk881jKohqJyGg+CLnUWjmvFKRE/6vufrXpmn6Ha6dEscMSqAOwrWjgARVVNqjoAKmWFj2/OsHNtmqiVVtxnOKcYwvJq15GRzR5Bz35pFWKmFpwUEZqw1vxUDRsnTiqTAUJ7UbPalRwThuKlwKdxEJSmFfSrBWmEc0xFUoaYVq2VzzUbKM9KpEsrbcdqNoqYr1pmKoQxRg0+gLzUmzimIiPXipUkYdRTcYNOVsUAOkO4EmqTrVppMjAqEj2qkSQbaUJUuKeqg1QhoX5KjaJT1FWcACo2FFwsQeXjpS7cdakx60hFMLEfFHSlIpuDigQGkIxSbqC1MQ3JNFBPFJ1oAjYU0DNPbNNxQIABSkelCinUwGYcdOlTQt84BA/Km4qa3KKx3DNUiWNusBgATnHeqpqxcsrP8ALVUg9qJDiOxSGkBI4IpQ1SUH4U2n8YzScA0gGc+lJzmpM8U01VhEZXNRlOCampGPFAypIrIMqfwqlKCLlWPUritFxkVRvfkeBz0BwaoENxSxyBJFJ6ZxUshQhcelQyOoUjimhjLoFt6KMjvWYnBI9K6WzVZId2ATjqawLtPKunHvmlIEIp6VJUK84qXtWZQnal7CmJyKeKQDh0prdKVeBTW+6aQDKyNSyrbh2Na1Z2pr8v1pgQWF7ubbngdferk4yTXN28phuiueM10KOHiHPNAGfOKrE1euU+U1SZTimIcje9OJFQqD3p4poB1KTxSCl9qQEbdahIwanfrURpFDQOalApg6inrQIWigj8vSkNO4DWHeq7HnpVhqgf71JjRETzRmkYYNFQUAozg0UU0xHnjLkdhTQoOAOvvT8qBgk5phYdBTMxCgzgH8aUYUZpHYAADrQgLnnpQIlQgEN3pW3Ocs3FJwKQ5JGOlAxdoHSnrt6mojIc4FPgjMjHcSB1oAkZ8j29KFQnn+I1I6oMqo6dqYDt4JpASkqBtX8akjwoz3NVogWPJq1HHubn7o60gJY4Qv76VcjtnpUZZQScc06e53YXPQYGKgU7zg9KLBctqxZMLmkV8HFSoQIAF4qoihnAOStCQFglriUKG+QdB6Vsea3kgBQsajGAKyEkTzQEG1f51tImbf5iqoByfes5lw3M1xnNNC8VKe/FNPSstzqWiIXzTAp6kVMUyaULjiqSAiC96U8CpMVG3eqRMijct81VuTViflqg4HStEzJiH3pRQTmkp2Ey1bZMmBV9vumqFlzIavnpUtDTM+U4kNJ1Wmyn98frTwPlp2Eyq33qBSvw1IOlUkSO4pc03vS5osMXJzTWPFLmmtQhMVTing96iXrUo602gQ8GnZplGaRQuaSjFBFCE2FPi/1i0ynxj5xQwNW36irVx/x5v9KqwDDVanP+iv9KzaLRiCnigLg1Iq80xApI5qxG5zTFXipFUikUTq1XIz+6qiDjtViN2K4qR3JYpDmpsnFRRxnqaspFnGah2NERqxp+MmpRGAadtUVIyIZpQCWqcBQO1KWUCgY0KacI80gl9BTfPA70WuK5KIwOTTJHWNfeo2nZhwarSkkEVpGn3M5TSIp7lmJAqoQWPOaseSWOcU8Qgdq2SSMXJsqrCSeasJEoFTCOnhABQIjVOKlVQBSZ7CnKM0wHrmnYpUQ1KI8ii4EHl5PSpViAAxTwhH0q3Y2FzqVwIbWMuehPYUnJJaglcosQvbJ6YFdToHge61V45bwGOA4Plgcn612Hh7wHb2TJPdfvZ8DJI6V28VukS7UXArCdboi1HuZGnaBaadGqRxr8vtWssIAHFThBS4rHVl3SIxHgU7bT6Q0JBcbtpCKfSHpVBciZaaUBGCKlJFMJpoZXaAdVHNRfPHxVs9aYwBGDyKYiESKaU801o8DimBitUhMfTGGKeHVuhpHp3EyIr3pu0Zp5NAU1SENC4pxHFPAAHWmk8VZJGRRs4px60lNIGREU2pDTDTJG5FOFNxSg4FAh+3IppGKlQ5HYVG/U00MbTTSEGjHFAhp4ppPFONNNMRGQaayE1MKXApoCrh09KQSA9RirDKKiZR6ZoEMLAmm5pGTHSmbiKBkgpwNRhxnrT/AEoEOJppNFJTuKwhpM80pNMJNOwATSGjk0hFADWPNJ5lP20YpWC4BuKaWzSmm460DEJo3D8aTBFNOc0xA1Z+on/Rs+jA1dfIqjffNbSL3xTGQBjUTqSc5p8bBokb1FDDjNK4y/pxbyyCe1Z2rALc7geo5p4meOMFCRzg1WvFZot5OT1qm7oCKM8Cpc8VViboKsA1mMVeCacDTR1pwPNIY5elI1GMGg80gIyOap3y7lPFXjVa5X5DTA5G5BS4DDrWpaXPyjmqd6o82oYpvL+lMRtzOGH1qowyaZHeRsMNwaessbH71AxNh9KTYQelSh0IxkUblz1FAiPpRzTyKaRQMib1phFSkUwjNKwDcc04UmKUUAFBOaKaTzQMQnNRvzUh7UxhzQIhZabg1KRTKm1yhppKcaYetFgPOc92pM5HpSFg3SnxQljzTRmII2JHeplXb1qQIFHXmmMcnApCEPpSPnAAp6pgbjSHk0FEYXn3qzCSFx+tRYAXP51IvAo3AVmAPXmhUMh4I/GmqhclsVNGfKByOe3tRcRIkewjnilkm2javSoWlYk5PWmqCSM96LASAAjcwzUsYVlyfkHrimMM/KOnerCZkYKq8Dt6UmBYRCYsgVRjMrttCE84yOwrZSLEWO3em2sBklPRYk68UrgRWtjuwz59hW5PGgtFbGUUYJ/vNVRZPNnCRr071avS21YU42jr6e9ZSLhuZB60hUU9gAcUw8VB2IQ4pgOTQSTSgYqgBiFGaiboTTZpBuAoPKVSRnJlCY/OaiJp8n3qYRxWq2MmN70UuKCKBMs2R/eYrQP3TWdZf633rSYYQn2pDRkTH9+frUy/cqCX/Wmp0IEfNMRWfhjTQcUhJJNGDTRI6lHemgE9KXaaYC5FIec0YxzTsZ4pgNUVIPSm47UoFJgOpe9AHFKKBi9aTGaXpR1FK4WGjOakjwGFM2nOcHFSKhpMC/bSZcDvV6TJgas20UiQE9BWgWJXFRJlpGeqk1KsferKxjPSlCe1TzFcpEqe1SCOpRHkVIq47VPMXykSx+tTIFx0p2zIpAuDRcdiwhGKcH9KjTpTwtSMeGJ70jMemaVcChsDk0AOHSmvIqLliBiq0t2FBC9apNLI/UnmrVNvUhzSLj3YIISkR2YjJqtGhJFXIojWiikYym2Sr0o2HPNSIntUvl+tMRXCelLtxUjkA471GTmgBCcCmcmnYzTlT1pgNC1Mic0qx81OqgUybkkagDpUuFUZxT7S2mvZfKto2kf27V33hzwKo23N987/AN3sKznNRKSbOa0LwneaxIryI0duT9Cwr1TSPDtppcSrHGu4DHStK2t47aMJGoCjHAFWK5ZScmaWsAWnAUmaM0kIU0dKTdSFs9DVBYXFJSA0E07DA0lBamluOKYxCaYTzSmmE07BcCTmjNNPXOaQGhCuKajZAwPFPNNNUIrvERkg0zzSOGH41ZJFRsgYYxTSFcapDYwaf0FQ+W0Zz1HtSlietUhDi1NzTQe9FUIUtSEk0mKCKaEJTSKdRVCG0lOpKYhw6cUjGkBoNCAbTTT6bTAYaaRTyfam8UAMpc0nTNNLd6aAXNNJpM8U05x1oENY0ynEc803FMRGRnt+VG1lPFP6UDmkA3eR1p24GlIBphTNMQuKXtUW1hyKdvx96hAOxQaaGB704imAlFGDS9BQAwjmkp1IaAExg0xsUrNUZNAxj96pzoSjfSrjEdKhcZBFIEZFufkA9OKm68VDDgNJ7MabcXBQAIBuzzmgZIzKoKMcA02RleMqPSo3T7RGGA5p1uN1vgjkcGncCjG2Gq0pziq8ibJyO1SqeKkZL0NA+9SDilH3vpSGPPSlPSm5pR0oENqKb7lTVDMPkNIZzV+MPWea0tS7msovTAczYphfnrzSMcjNQPIQeKALiSv/AHjU6zEjOTWWspzVmKXsaaYrF5JXUcMcVMk248iqampUOGoAuHpUbCpNwK0w0DGfzpQMikxzThUgJTcU8ikNMCM9aQ804jNNx0FIewxsUw9eKlZaYRxQAw9KYwqXtUbcUMDzhUVTk81Mny0eUVGe1GPypmYrHI4pBgU5VPtj1pjDqO3ekApbjimg0mKWgbAAs3XAqUDJxTeiZp0Z70xFhRtXpULtknnpT9xIxmmlfl2g8UgGxqXbnpU4G5/kHC8UsaDbg1JIFiXavJ6mkmMZwD7VYik2qEXq3U1UUGQ9wAecVdhO0F+hHahgWZpWEaxA898d6esnlHyEbIHU1RaYANI33j0p9tl0MvqaloDYt2EQLdWPStCFC0W/O49zWRaqSAW5YnCitXUJhbacLdT8x7VlIuG5jTuPNbDh/wDaHQ1CWyaYTTd2KEjpuS5FNZuM5qMtUUr/AC4ppDbIy2Zfxqwf9XmqiglxU8r/ACYBqzJ6lNuWNNIqTbRsqrk2IsYoNS7QKTA9KLhYksx+9rSf/Vn6VQtRh81blkURtz2pMZkvzITSufkAobk8Uixs5x0Hc1SM2MApwHFOCKOnSl59KdgExilzQFpdtDHYbij6U8rRtzSuOwzGTT1XkUoU09FOaLhYdsGM00L7VMBTgopXKsV9hzThHU4TNPCH0pNi5SJQPugVMkO7tTAh81Rjqa0kjwOlS5DjEiiixVjbxQq81IRWbd2aqNhqr04qTYKbnBqQc1LKEVRSlcHijoadjNIocvI6UmOaVKHHejqJirUnHfiq/mhe9QSTuwwDVxi2Q5pFmS4CjjrVR53c0zaTT1jrZQSMXNsjCZNSpFUqpjtUiJ+FVcgEjGKsIlNVakDelIZKMAZpGbPApoyetP20hkZGabtqUrSbeaEIj2+gqULSgVJDDLcTCKFC7k447U9ldkke4Lx3rd0LwxeaxIrkGOA9yv3q6Lw54JZmW4vQGYcqvYV6FZ2sdioWMDH0xWE6vRFxiU9C8MWmlQKFjG71I5P41v4AGB0pE+YA07Fc7beppZIUClpKTmmA6m5pM+tITVBYOtKDTC1JnmiwyXdTSaaWFJvpoAJpN1NJJzVaZnUjaeKokslsVGz81HHMGwGODTuOadhCls0maKKoQUUUUJANIoGKDSH2qhA3OaiIFPJFRk4qkIYQR9KQGn80jevemkJhmjOaaeKTdwKdhDqSkDc0hNNAGaKbkUZqhDs0uaZmjNACk80hPpSYyaXGKYDDzmoX3A8GpmphoERBwfvUcHpSsuahIKng/SkBJikPFM8w9CKXcD3pjDGabzTsmmmgQ3FAp1LinYQmKTFOxS4oERkUxlzUppppgRlOetJlh3zT+KQn0pANMg75FG4YzmkYbhzULJjODTBEhfFMMtRM5UdM0BweuM+lK47D9570hIppOaDxQMQ4pjHFOPFRtTEZUmEvZV9TnFNMSs240XQIv1Y8A08etIYRrtIA6U1BtuZk6A4f86kBpQv7zcfTFNCKN0gSVSM4IpsfSrF7yowOhqtGaTKRMDxQp5pF60uMdakZJS0nUUozQISmSjKGpKa3Q0DOb1NCUJHasBjhq6q+jUggiuamjAY4oEQ5NRFWzUtApjI1TmpkBUihTipUx3oAcJAvWpY54mYBXGfrULoNtZF2hUmgk6oZ20wkgVyVtqt5b5VZSy9MNzWpFroI/fR49SDQM2A1OBqlb6jaXH3ZgD6NxV1AGGQc0DY4dKQ04ClZakCPGKb1p+Pem0DG4prLUmCaNtAEJU0xhVkrUTIKLBc88zu4P3RTXIHFJuwCOMU0ZZ+elUQSjG3JqJiC3tTz09qbx0pXBDSpxSAEdakZh0WlUD8aLgKi5HNOYgY5FKOvNRnlyaL3AlGAKQZLe9IORUq/u1LdWPai4DsiIHc3zdhUQJx1qNjlx6k1M2ANvfvSsAK21cdPpT/NwvOajUMzBVBNSLESfm6dhQBH80jjPQmtqNI1RF/hX9aqRQiMbmH+FT20glmAH3RUtgatomxhN3X7vtTNSJWD5j856j0p4cs6qp4zzTdSVfILk9uBWciobmKTk0hPFKelNNCOgCcCo2OacT2puAetMQgGDmg80oHNOxxTAi20hFSY5NIRRcBmM9qUpipFHekNO4hqZQ8U6QnFApCMilcLEG0Uu4Km1fxp5Q+lMC5NUmS0IFpcVKFo2UXHykYWnBM1Isf51IEHpUuQcpAI6d5VTheaXb7Ucw+UhEfanCP2qZU708JzRcOUiCU9Y81Js9qeq44xUXLsRhKeEHFSheM0AYNJsdiERE3AbsKuA8DimBfSpFFLmGoirTu1KFpSvNIoYcU5TmmMpJqRFpbCF5pVNJJIqDg1We4J+7xVKLZMnYsPOsf1qB5y574qvyxqREya1UEtzJ1Gx4yaeqZpyJUyrVEasjVBTwtSbacFwKAGhKeoxSZpcUALkk09RSAVKq0MBVFSAcUiipAOlIYwrTeB1qdUeZxHEpdycACus0Hwc0rrPdc9wpHSolNRQkrnO6Zod1qkmEUrH0yRXpWh+FrXT41woJx6VsWOmQWiBY1A/DFaATFYOo5GigLEoUBQKlKZ6UxQQamQEnpUGgsZKY4OKt4zHnPFRhMrjOPpSF/LOM8elNEPXYUjBo4oLA8g03dQwEbrUZanOajNVYYFqaWppNN5p2EO3Uu7FA607Ap2QriZOKYy5zmpKawqkiSq8PcUiSlTtYk1YIpjxK/19adgHAhhkcijFVxvhb2qZJFcdefSqsIdSkYpAc0pYYpoBlHSjdTSRTsIaaYTTjTD1NVYQuaaW9KTrS7e9OwhpNMbJ9KeR2pMUxFcs6MQckdqerhulPIz1qJoz1UnNFgJAKOBUIkZeG6etPDBhwaEgH5oFIKWmAmaXNJjNABFAhDTTTiPWkxziqAjOc0wipSOaYRzSAjKg9ajeMjJWrG3FIRxQBWyw6ilDKe9SnFRMgJyBTQhxFFMBcHB6U/igBw5pccZpBUsUTysETkk0gsV24plXLq2+zL85+fOCMdKp5oCwnApDjNGaaaYAajbmnU08UARHntTGUHtTzxSE80iiLayjKn8KXfgfNTzTG96LiELg9KYTSso96YQw6dKEwM7UOJozSj7opNQyyqTwQ1Lj5QaYBjmpohuVh6VGBxmiNtshHY00JiToCjDrWahw2D1rVYqDjFZbrsuWHPWkxkq9aeegqMHmnZ7VJQ9TxTs5pi9KAeRQIfSUuaaaBla5jR1IZcg1zl7pTjLQPuX+63WuncbgRVCQDGDTRLOQkSSJtrqVPvSAZrp5IkkBV1DA+oqm2lRl8xsV9jQ0CZkhaeAoxk1sRaUrj5jg02XQ5eqn8KaQrmd8pHWsu9QnOK2JdPuYckoSPWs+5hcjkEH0NAXOexhqlJ+WlmjKuT2puflpoVyvIc9amtr+6g/1c7j2JyKhk4zUQamx3Oht/E1xEB50ay+44NasHiLT7lQrMYpPR64ssMU0EVA7noSyxSANHIrA9MGgnFcHFcSxHKSMv0NX4dauosbsP8AWgZ1wNLWFBr8RC+aCpPX2rUivYZkBSRSfTNIZYNRnHfpT8+tI2CKGB5gOScA4qQAYoVDjNKQB/vdqRFhpPAzQCo6D86TqaAuOtGgxyfez60/rTADnj8KdyvJoEOJP40wcHNPZgq56n0qIE9MUFE64xTicjLGmL/KpYgN+9hkDoKLCGnbCNw5lPT2FFum9+eg6050BYsasW+FIbbnHNAFkQmCDoPMkHOewpiRKzhfWlaTJJJ5qEyeh5pASXkoH7pTwOtFmjMdqD61EIzITkkKOc+taVkiwxFzwT0pMCxbHdOIx1XrU2rSAQbO9RwBYtiKDuPLHNQ6ozd+rcispblQ3M0DJpDT6aRVHQMxz9KRqfjApuAetO6E0IBTiOKUCg1N7jSEA74puOakxxSYpNjsAHGRSbKkxxijGKaAjxQRxTytCrzTFYjKcUxIvmzVnZxShKEwaIsDFAXJ6VJjk09EpX7jsMEdO2VJt9qcF4qXLsNIhC47U4LzmpAlPCUuYLDAtOVRmnheakRRSbGkMCAc07aPSpCMDimYJNCZVrC7Rik21IF5xinFMCi4hij1qQLxSBc1JGMdaTKQKuOtP20juqLkmqst0eg6etCi2JySJ5HRByarvcY4U1XZ2Y5NIFJ7VrGHcwlU7Dy5brSBc09UNSrHitNiNWRrHU6pjFKFzUqpgUmAqrUoWkGFoLZNMBxIFNIJoAp2KAExTwOKAKVVoEOAqRRSYqSKKSaQJEpdj2FJuwCggDJrR03SbjU5MRqyp/eIrZ0PwhNcSo9yOOuyvR9N0aCyi2pGF+grCdXsVGNzB0TwvDZxhnjBfqSRXTRwrGuFGB6Va8oAcU3ZzWLu9zRKwIvAqQYpAtKV/wD10x3HhlFKHBOADUYQ0+MYamFywhPemTDf0HNToowOBUTgbs0yVuU1lKHacipt2RnNJNGHXI4NVQ7Rtgnj0oGWyfemk0gcFcg00mqSsAGgUhoFNEj+9OqHdT99NCHZxUbNk4pSSajYHtimICaUMBUZz3pKoQ9ip61WlVlO5elS0fhQIEclBkjnrTu3Wk20mcU0hXFoPSjNJVAJSNzSmmk9qokTGKTdThSbc0wG0gFSYpuKYDcUmKdigigRG6gjkVE0RAypxVgikxTC5WEnY8VKCCODTnjU9qhZDHyDSAl6UZ9KiWYHqDmn7welMAJpCeM0daQikAlIeopdtIRTAaTTTn1p2CfWkxQA0ikpxpDQA3FJilJoNACAVpaNsN6ocZHb61m1e0uZYbxSwOD6UXGkLrZ/0+QA5FZLVta3aqk3no+4OM49KxGNEQkIaWmk5oHTmmSGKawp1IRmkBCetMNPb6U00ihtNNONNPSgBpHGaaRTiabQBUvo91s5x05qKH54VNXJU3QsPaqVrxFj0piHMNtMABOe9Pfk0gGDQBFM7I4z0qpcFfMDDqRWp5YkUcZNVby3xDuA6HmqaAqKalHSoh0qVDx0qChy96TuKVetIetIB4oOMGmg5NDCi4Efeq86DmrH8VNkXIppiZmsCOMUw+3WrEi4bioyFJ5q7kD4JFDYbNaEfKgoc1ld6uwSYAGaGFizgOdrAGmGyt5vvIpJpxIJyKVG5xU3HY5jWvDQVN9uOCM4Arjp4Ht5DG4wRXrT4dSp6VyOu6eGDHbzVJEHEyjjiqxJBq7cIY3Kt1FU360NFoTNAPPpTc0uaQyQGnZzxUQp4NAD84pQxHKsVPtTC1IDTYtjSt9XvINv70sB2atSDxBG4xNEyn1WubU81Ip4qGNMzjJimnkZzzTygpNoovqAgGTTtpPAFKAvTGalUELjGKQCEcZxgVGfmNPYHOAeKbtIoEMIJODT1TFAUA+tOwc8nigYo4qVDkY7VERTwu1Bk80PQBTyQMjHpUgcjhagIyalTAHNCAGYt16VPbQ+YTu4UVEVHbrVkkQRbQfmPpQxjblkV0ii6DqaurNv2qOAKyUUls+laEHAyRz61D1A2bNlUGVxnArMupGnd5Sp5PANWw3nAIq4X0BqO9ASJUFZvcqG5nGmnNPxSGmbjaMUHsBTgvNFwQAUmOakIoAouVYYetOCnFCr83SpguRUsCLFG3npUm3ml20XGR7DTkj71JjpTwKTYWItnzUu3HapNtBHFK47EJQbqkRehxShaeop3Cw0rzxTguBTtvNOxxSuMjAyelOxRg0/bSGNA5pydaUDinouOaQhjcUIOelP2ZOTT1UA0xgi9zSkZ4FKWCjkgVXkuVAO00KLYm0ifKqpyRVWS5A4H51VkuSx4/nUO4tW0afcxlV7Fh5i9IOetMRc1YSPNaWsZXbGqualVM05UxUqr6UrjsNCVIq805Vp3QUgADA5pd1NxmngYpoAHNOAoAp6rxQABadtzTgtPC0CGbKcBipI0eVwkSl3JwABmuu0HwdLcMs1yT67MVDmkCRhaXoV1qbgquI/71egaF4YhtEUlcsO5HNdJpmiRWkY+QA4rQMIV8gVzzk2aqJBbWyxDAUVdCcUqKAOBTxUWL2IipphGKs4qNlqhEQ4p4GaQJTxwKYDSOKVBg0p6U3dRYCwsgXvUbtk9aiLe9NJpisPLcYqGRQw96XOe9L2oSAqK7Rt7elWFcOMimSKGBGOag+aNuKoRbyaMkjimq4dcinUyBCOM96TNOI96T2p2HcN2KQNmkIzTTmiwrjzg03bTQSKXcccVWoC7aCKQMSKM5poTFpDR1pMVRIw/L2pQwpSKYw44pq4gJyabR0pOppgSDpQKQVNCoaRQfWgREwIFN61cvAqBVFUicU0AtFIKUDIqgEwKQ04D2p2KLiITk9BSFT+NTFaaQKAK7RKw9PeoWVozxytXCKYRQBXWVW9j6GpKJIVPPQ1D88Z55FICehcbhmo1fdT6QwbAPFRMealZD1NRMCDQhDT/kUlLjmk9aYxDSZpcelIVoENLZqxbSKjgtVfFAoGWLqdpCVB+X0qkRUpNMIpoRCy4PFAzQeCe9Az6cUCDjNNY0pHoaawwKAQ1vu1H1qXcMc0wqO1IoYV9KafpUuKQgGgCA9KQ1Iy4phGKAI2Pyn6Vn2+FkkQdAa0WGazIsreTK31H0piJZDhhzSCllGcZoXkCkMnhyDwOtLcJviZT3FMWUIMnoKlYe/UVdyTDxhiKkjIz0ouF2TuCMdxTFPIrNlEgPNKeKZnmnHpQMUUrdKQUN0pARHhqcOmKaaVaAIZ4xVVhx7/AFq+67s1RmQjkGqT0JaIH3KeRT43KsDmmgsODyKAMmrEaSPlRQSVOcVXhboDV3aD3qbDuMWUE4NQX9ss8RIHNTMi596QD+HNO5J55rVgYmLKv1rnW616Xq1oHUrjrXn+o2ZtpiOce9O4Io80UmOcUUWKHA8U/vUYpw6UrCFJoB4ptLTQMcDzUimoakU+9SwK5FMPtUjDAphwq7jU7gCgjk81IpOKhDFqk3dKNBjxjuPrTGOaVmCjHWoVYlutAEyDuacMEnmo2fjaKcPbpQA7vmnkcVGDk1ITgAd6TGM6GnKzFqaemTTlbHQUnoBOoGcmnlflLnqRxUUAM8wQHqcVbutmcIMAcH607gVF4cCrwJCKF+8TxVJOXLHkg1agJeUE9jmob0A17ZQgyfwqvfAAAsfmY5xVmE7vmYZArOuXMshY8DsKzZpDchxSEc4qQYNMx81F0bWEVakC09VwpJoFLmRSiNIpduFJpQMmnlaLodiJVxUwXihRUh6YxUMaRDtwaUDnFSbcUqqM9KdwGbacqnNSAc9KXGKVx2GYxSFT6U+lxTBjNh9KeBgdKDSg54zSvqOwEcUdRSnpQKAsG2lwBTmXApO4oCwAU4c9KaxAGTUJnC5weaEmwukWC20c1G9wqDPB9qpSXLGoCxY1qqZjKquhPLcFhUGWJ5owTzTwtapJGLk2NC809I6kVBUgWmIREqdVpqrUijFSxocBTgcU3dxxRSuMfuOacOaRRTwMUXAUCnAUgp4GaLgAFSKPagLU8UEkjbY1LNTYmR9OK0tO0e61CQKiFU7sa39D8IyzMJblTnsteiaVokVpGpCisZ1OxUYmDoHhKK1w5XJ9T1rsrazigUbV5FTKoUYFKDWF7s0SHgUFc0oFLVWC5GD2p1NK88UoPFAx2aSkzSZosIDTSaUmmsfzpjGk0maCaZnjk0CFLUmaaTSbqaTELmlzTM5oBpoQ8mo3XeMUv1ozVEsgVjE3tVhXDjIpjIGGDUHMT9adgLRNGaYHDDinUCuLmkNL1oxTsA0Uu00uKcM1SEN20baUnHeml6ZIYpDTSTTSxpgx+cU1iKZ36mg8iqQhG6UwHnrTz0puOaYhwbmpoGZW3AdDUHSpYyAtFgJJ3LtyagPSnMcmmk00AAc0uMUA0u6gAFLTc0uaAJQuUquR1qdJVCkHrULEc0AM70lKaYaBCkU0gN1FOpAKYCLEMehqPmNhu5qakIBxmpsBO8sT242jB7g9apNzSyR7vunFQlzGMMM4oGOxmkxzzShgw4NNY4piFppOKOaRvu0AMJFMLU6mmgBN1FNPFANAClaTjNKTxSE0wEIwaaaccU0/WgQwoOtMKsKkpvWgZGWx14pu7mnsMjkVEy+hNIBzHioiaCxAwaMikAxuuKzZfk1Ie6itI1l35xfREdCAKYEs4OKiSUKMk4xUsj5Q1XMaumPXigolSQSnaDkHjNX1QJGB6VlQr5BAJzz1rVlOYwVNNEMzdQUBlYd6pqau3gLRbvSqANJlEmeaeDUQNOBqRjycUZytR04NxQAh5NApCeaFOaQh2eMVBJCxyQCRU3Q05bp7f5kAYejVQMzXGDio+hrcS8sp+JY/Lc+vSmulk4xhSPXNWiTKjb5qto+BUhs7ctkPimmAx8ZDe4pBcXcCKQqc5HSkxUqDikDKVxF5in1rk9ZsA6Elea7zygRkis7UbFZYyQufWmB5DIjRyMjDkGm10WtaQyOZEx71z1DGFOzmm9KM0JgKc0A9qQk4ooTAXPPFPB4qInFPU0bgj//Z;" vertex="1" parent="1">
          <mxGeometry x="67" y="100" width="210" height="118.13" as="geometry" />
        </mxCell>
        <mxCell id="C2qKAwBwFKPkLTs-HYhW-293" value="" style="group" vertex="1" connectable="0" parent="1">
          <mxGeometry x="140" y="80" width="260" height="100" as="geometry" />
        </mxCell>
        <mxCell id="C2qKAwBwFKPkLTs-HYhW-2" value="" style="shape=table;html=1;whiteSpace=wrap;startSize=0;container=1;collapsible=0;childLayout=tableLayout;" vertex="1" parent="C2qKAwBwFKPkLTs-HYhW-293">
          <mxGeometry x="160" y="0.010000000000005116" width="100" height="99.99" as="geometry" />
        </mxCell>
        <mxCell id="C2qKAwBwFKPkLTs-HYhW-119" style="shape=partialRectangle;html=1;whiteSpace=wrap;collapsible=0;dropTarget=0;pointerEvents=0;fillColor=none;top=0;left=0;bottom=0;right=0;points=[[0,0.5],[1,0.5]];portConstraint=eastwest;" vertex="1" parent="C2qKAwBwFKPkLTs-HYhW-2">
          <mxGeometry width="100" height="15" as="geometry" />
        </mxCell>
        <mxCell id="C2qKAwBwFKPkLTs-HYhW-134" style="shape=partialRectangle;html=1;whiteSpace=wrap;connectable=0;fillColor=none;top=0;left=0;bottom=0;right=0;overflow=hidden;" vertex="1" parent="C2qKAwBwFKPkLTs-HYhW-119">
          <mxGeometry width="14" height="15" as="geometry" />
        </mxCell>
        <mxCell id="C2qKAwBwFKPkLTs-HYhW-120" style="shape=partialRectangle;html=1;whiteSpace=wrap;connectable=0;fillColor=none;top=0;left=0;bottom=0;right=0;overflow=hidden;" vertex="1" parent="C2qKAwBwFKPkLTs-HYhW-119">
          <mxGeometry x="14" width="15" height="15" as="geometry" />
        </mxCell>
        <mxCell id="C2qKAwBwFKPkLTs-HYhW-121" style="shape=partialRectangle;html=1;whiteSpace=wrap;connectable=0;fillColor=none;top=0;left=0;bottom=0;right=0;overflow=hidden;" vertex="1" parent="C2qKAwBwFKPkLTs-HYhW-119">
          <mxGeometry x="29" width="14" height="15" as="geometry" />
        </mxCell>
        <mxCell id="C2qKAwBwFKPkLTs-HYhW-122" style="shape=partialRectangle;html=1;whiteSpace=wrap;connectable=0;fillColor=none;top=0;left=0;bottom=0;right=0;overflow=hidden;" vertex="1" parent="C2qKAwBwFKPkLTs-HYhW-119">
          <mxGeometry x="43" width="16" height="15" as="geometry" />
        </mxCell>
        <mxCell id="C2qKAwBwFKPkLTs-HYhW-123" style="shape=partialRectangle;html=1;whiteSpace=wrap;connectable=0;fillColor=none;top=0;left=0;bottom=0;right=0;overflow=hidden;" vertex="1" parent="C2qKAwBwFKPkLTs-HYhW-119">
          <mxGeometry x="59" width="12" height="15" as="geometry" />
        </mxCell>
        <mxCell id="C2qKAwBwFKPkLTs-HYhW-124" style="shape=partialRectangle;html=1;whiteSpace=wrap;connectable=0;fillColor=none;top=0;left=0;bottom=0;right=0;overflow=hidden;" vertex="1" parent="C2qKAwBwFKPkLTs-HYhW-119">
          <mxGeometry x="71" width="15" height="15" as="geometry" />
        </mxCell>
        <mxCell id="C2qKAwBwFKPkLTs-HYhW-125" style="shape=partialRectangle;html=1;whiteSpace=wrap;connectable=0;fillColor=none;top=0;left=0;bottom=0;right=0;overflow=hidden;" vertex="1" parent="C2qKAwBwFKPkLTs-HYhW-119">
          <mxGeometry x="86" width="14" height="15" as="geometry" />
        </mxCell>
        <mxCell id="C2qKAwBwFKPkLTs-HYhW-91" style="shape=partialRectangle;html=1;whiteSpace=wrap;collapsible=0;dropTarget=0;pointerEvents=0;fillColor=none;top=0;left=0;bottom=0;right=0;points=[[0,0.5],[1,0.5]];portConstraint=eastwest;" vertex="1" parent="C2qKAwBwFKPkLTs-HYhW-2">
          <mxGeometry y="15" width="100" height="13" as="geometry" />
        </mxCell>
        <mxCell id="C2qKAwBwFKPkLTs-HYhW-135" style="shape=partialRectangle;html=1;whiteSpace=wrap;connectable=0;fillColor=none;top=0;left=0;bottom=0;right=0;overflow=hidden;" vertex="1" parent="C2qKAwBwFKPkLTs-HYhW-91">
          <mxGeometry width="14" height="13" as="geometry" />
        </mxCell>
        <mxCell id="C2qKAwBwFKPkLTs-HYhW-114" style="shape=partialRectangle;html=1;whiteSpace=wrap;connectable=0;fillColor=none;top=0;left=0;bottom=0;right=0;overflow=hidden;" vertex="1" parent="C2qKAwBwFKPkLTs-HYhW-91">
          <mxGeometry x="14" width="15" height="13" as="geometry" />
        </mxCell>
        <mxCell id="C2qKAwBwFKPkLTs-HYhW-92" style="shape=partialRectangle;html=1;whiteSpace=wrap;connectable=0;fillColor=none;top=0;left=0;bottom=0;right=0;overflow=hidden;" vertex="1" parent="C2qKAwBwFKPkLTs-HYhW-91">
          <mxGeometry x="29" width="14" height="13" as="geometry" />
        </mxCell>
        <mxCell id="C2qKAwBwFKPkLTs-HYhW-93" style="shape=partialRectangle;html=1;whiteSpace=wrap;connectable=0;fillColor=none;top=0;left=0;bottom=0;right=0;overflow=hidden;" vertex="1" parent="C2qKAwBwFKPkLTs-HYhW-91">
          <mxGeometry x="43" width="16" height="13" as="geometry" />
        </mxCell>
        <mxCell id="C2qKAwBwFKPkLTs-HYhW-94" style="shape=partialRectangle;html=1;whiteSpace=wrap;connectable=0;fillColor=none;top=0;left=0;bottom=0;right=0;overflow=hidden;" vertex="1" parent="C2qKAwBwFKPkLTs-HYhW-91">
          <mxGeometry x="59" width="12" height="13" as="geometry" />
        </mxCell>
        <mxCell id="C2qKAwBwFKPkLTs-HYhW-95" style="shape=partialRectangle;html=1;whiteSpace=wrap;connectable=0;fillColor=none;top=0;left=0;bottom=0;right=0;overflow=hidden;" vertex="1" parent="C2qKAwBwFKPkLTs-HYhW-91">
          <mxGeometry x="71" width="15" height="13" as="geometry" />
        </mxCell>
        <mxCell id="C2qKAwBwFKPkLTs-HYhW-96" style="shape=partialRectangle;html=1;whiteSpace=wrap;connectable=0;fillColor=none;top=0;left=0;bottom=0;right=0;overflow=hidden;" vertex="1" parent="C2qKAwBwFKPkLTs-HYhW-91">
          <mxGeometry x="86" width="14" height="13" as="geometry" />
        </mxCell>
        <mxCell id="C2qKAwBwFKPkLTs-HYhW-3" value="" style="shape=partialRectangle;html=1;whiteSpace=wrap;collapsible=0;dropTarget=0;pointerEvents=0;fillColor=none;top=0;left=0;bottom=0;right=0;points=[[0,0.5],[1,0.5]];portConstraint=eastwest;" vertex="1" parent="C2qKAwBwFKPkLTs-HYhW-2">
          <mxGeometry y="28" width="100" height="15" as="geometry" />
        </mxCell>
        <mxCell id="C2qKAwBwFKPkLTs-HYhW-136" style="shape=partialRectangle;html=1;whiteSpace=wrap;connectable=0;fillColor=none;top=0;left=0;bottom=0;right=0;overflow=hidden;" vertex="1" parent="C2qKAwBwFKPkLTs-HYhW-3">
          <mxGeometry width="14" height="15" as="geometry" />
        </mxCell>
        <mxCell id="C2qKAwBwFKPkLTs-HYhW-115" style="shape=partialRectangle;html=1;whiteSpace=wrap;connectable=0;fillColor=none;top=0;left=0;bottom=0;right=0;overflow=hidden;" vertex="1" parent="C2qKAwBwFKPkLTs-HYhW-3">
          <mxGeometry x="14" width="15" height="15" as="geometry" />
        </mxCell>
        <mxCell id="C2qKAwBwFKPkLTs-HYhW-4" value="" style="shape=partialRectangle;html=1;whiteSpace=wrap;connectable=0;fillColor=none;top=0;left=0;bottom=0;right=0;overflow=hidden;" vertex="1" parent="C2qKAwBwFKPkLTs-HYhW-3">
          <mxGeometry x="29" width="14" height="15" as="geometry" />
        </mxCell>
        <mxCell id="C2qKAwBwFKPkLTs-HYhW-5" value="" style="shape=partialRectangle;html=1;whiteSpace=wrap;connectable=0;fillColor=none;top=0;left=0;bottom=0;right=0;overflow=hidden;" vertex="1" parent="C2qKAwBwFKPkLTs-HYhW-3">
          <mxGeometry x="43" width="16" height="15" as="geometry" />
        </mxCell>
        <mxCell id="C2qKAwBwFKPkLTs-HYhW-6" value="" style="shape=partialRectangle;html=1;whiteSpace=wrap;connectable=0;fillColor=none;top=0;left=0;bottom=0;right=0;overflow=hidden;" vertex="1" parent="C2qKAwBwFKPkLTs-HYhW-3">
          <mxGeometry x="59" width="12" height="15" as="geometry" />
        </mxCell>
        <mxCell id="C2qKAwBwFKPkLTs-HYhW-28" style="shape=partialRectangle;html=1;whiteSpace=wrap;connectable=0;fillColor=none;top=0;left=0;bottom=0;right=0;overflow=hidden;" vertex="1" parent="C2qKAwBwFKPkLTs-HYhW-3">
          <mxGeometry x="71" width="15" height="15" as="geometry" />
        </mxCell>
        <mxCell id="C2qKAwBwFKPkLTs-HYhW-31" style="shape=partialRectangle;html=1;whiteSpace=wrap;connectable=0;fillColor=none;top=0;left=0;bottom=0;right=0;overflow=hidden;" vertex="1" parent="C2qKAwBwFKPkLTs-HYhW-3">
          <mxGeometry x="86" width="14" height="15" as="geometry" />
        </mxCell>
        <mxCell id="C2qKAwBwFKPkLTs-HYhW-7" value="" style="shape=partialRectangle;html=1;whiteSpace=wrap;collapsible=0;dropTarget=0;pointerEvents=0;fillColor=none;top=0;left=0;bottom=0;right=0;points=[[0,0.5],[1,0.5]];portConstraint=eastwest;" vertex="1" parent="C2qKAwBwFKPkLTs-HYhW-2">
          <mxGeometry y="43" width="100" height="14" as="geometry" />
        </mxCell>
        <mxCell id="C2qKAwBwFKPkLTs-HYhW-137" style="shape=partialRectangle;html=1;whiteSpace=wrap;connectable=0;fillColor=none;top=0;left=0;bottom=0;right=0;overflow=hidden;" vertex="1" parent="C2qKAwBwFKPkLTs-HYhW-7">
          <mxGeometry width="14" height="14" as="geometry" />
        </mxCell>
        <mxCell id="C2qKAwBwFKPkLTs-HYhW-116" style="shape=partialRectangle;html=1;whiteSpace=wrap;connectable=0;fillColor=none;top=0;left=0;bottom=0;right=0;overflow=hidden;" vertex="1" parent="C2qKAwBwFKPkLTs-HYhW-7">
          <mxGeometry x="14" width="15" height="14" as="geometry" />
        </mxCell>
        <mxCell id="C2qKAwBwFKPkLTs-HYhW-8" value="" style="shape=partialRectangle;html=1;whiteSpace=wrap;connectable=0;fillColor=none;top=0;left=0;bottom=0;right=0;overflow=hidden;" vertex="1" parent="C2qKAwBwFKPkLTs-HYhW-7">
          <mxGeometry x="29" width="14" height="14" as="geometry" />
        </mxCell>
        <mxCell id="C2qKAwBwFKPkLTs-HYhW-9" value="" style="shape=partialRectangle;html=1;whiteSpace=wrap;connectable=0;fillColor=#ffe6cc;top=0;left=0;bottom=0;right=0;overflow=hidden;strokeColor=#d79b00;" vertex="1" parent="C2qKAwBwFKPkLTs-HYhW-7">
          <mxGeometry x="43" width="16" height="14" as="geometry" />
        </mxCell>
        <mxCell id="C2qKAwBwFKPkLTs-HYhW-10" value="" style="shape=partialRectangle;html=1;whiteSpace=wrap;connectable=0;fillColor=none;top=0;left=0;bottom=0;right=0;overflow=hidden;" vertex="1" parent="C2qKAwBwFKPkLTs-HYhW-7">
          <mxGeometry x="59" width="12" height="14" as="geometry" />
        </mxCell>
        <mxCell id="C2qKAwBwFKPkLTs-HYhW-29" style="shape=partialRectangle;html=1;whiteSpace=wrap;connectable=0;fillColor=none;top=0;left=0;bottom=0;right=0;overflow=hidden;" vertex="1" parent="C2qKAwBwFKPkLTs-HYhW-7">
          <mxGeometry x="71" width="15" height="14" as="geometry" />
        </mxCell>
        <mxCell id="C2qKAwBwFKPkLTs-HYhW-32" style="shape=partialRectangle;html=1;whiteSpace=wrap;connectable=0;fillColor=none;top=0;left=0;bottom=0;right=0;overflow=hidden;" vertex="1" parent="C2qKAwBwFKPkLTs-HYhW-7">
          <mxGeometry x="86" width="14" height="14" as="geometry" />
        </mxCell>
        <mxCell id="C2qKAwBwFKPkLTs-HYhW-11" value="" style="shape=partialRectangle;html=1;whiteSpace=wrap;collapsible=0;dropTarget=0;pointerEvents=0;fillColor=none;top=0;left=0;bottom=0;right=0;points=[[0,0.5],[1,0.5]];portConstraint=eastwest;" vertex="1" parent="C2qKAwBwFKPkLTs-HYhW-2">
          <mxGeometry y="57" width="100" height="15" as="geometry" />
        </mxCell>
        <mxCell id="C2qKAwBwFKPkLTs-HYhW-138" style="shape=partialRectangle;html=1;whiteSpace=wrap;connectable=0;fillColor=none;top=0;left=0;bottom=0;right=0;overflow=hidden;" vertex="1" parent="C2qKAwBwFKPkLTs-HYhW-11">
          <mxGeometry width="14" height="15" as="geometry" />
        </mxCell>
        <mxCell id="C2qKAwBwFKPkLTs-HYhW-117" style="shape=partialRectangle;html=1;whiteSpace=wrap;connectable=0;fillColor=none;top=0;left=0;bottom=0;right=0;overflow=hidden;" vertex="1" parent="C2qKAwBwFKPkLTs-HYhW-11">
          <mxGeometry x="14" width="15" height="15" as="geometry" />
        </mxCell>
        <mxCell id="C2qKAwBwFKPkLTs-HYhW-12" value="" style="shape=partialRectangle;html=1;whiteSpace=wrap;connectable=0;fillColor=none;top=0;left=0;bottom=0;right=0;overflow=hidden;" vertex="1" parent="C2qKAwBwFKPkLTs-HYhW-11">
          <mxGeometry x="29" width="14" height="15" as="geometry" />
        </mxCell>
        <mxCell id="C2qKAwBwFKPkLTs-HYhW-13" value="" style="shape=partialRectangle;html=1;whiteSpace=wrap;connectable=0;fillColor=none;top=0;left=0;bottom=0;right=0;overflow=hidden;" vertex="1" parent="C2qKAwBwFKPkLTs-HYhW-11">
          <mxGeometry x="43" width="16" height="15" as="geometry" />
        </mxCell>
        <mxCell id="C2qKAwBwFKPkLTs-HYhW-14" value="" style="shape=partialRectangle;html=1;whiteSpace=wrap;connectable=0;fillColor=none;top=0;left=0;bottom=0;right=0;overflow=hidden;" vertex="1" parent="C2qKAwBwFKPkLTs-HYhW-11">
          <mxGeometry x="59" width="12" height="15" as="geometry" />
        </mxCell>
        <mxCell id="C2qKAwBwFKPkLTs-HYhW-30" style="shape=partialRectangle;html=1;whiteSpace=wrap;connectable=0;fillColor=none;top=0;left=0;bottom=0;right=0;overflow=hidden;" vertex="1" parent="C2qKAwBwFKPkLTs-HYhW-11">
          <mxGeometry x="71" width="15" height="15" as="geometry" />
        </mxCell>
        <mxCell id="C2qKAwBwFKPkLTs-HYhW-33" style="shape=partialRectangle;html=1;whiteSpace=wrap;connectable=0;fillColor=none;top=0;left=0;bottom=0;right=0;overflow=hidden;" vertex="1" parent="C2qKAwBwFKPkLTs-HYhW-11">
          <mxGeometry x="86" width="14" height="15" as="geometry" />
        </mxCell>
        <mxCell id="C2qKAwBwFKPkLTs-HYhW-100" style="shape=partialRectangle;html=1;whiteSpace=wrap;collapsible=0;dropTarget=0;pointerEvents=0;fillColor=none;top=0;left=0;bottom=0;right=0;points=[[0,0.5],[1,0.5]];portConstraint=eastwest;" vertex="1" parent="C2qKAwBwFKPkLTs-HYhW-2">
          <mxGeometry y="72" width="100" height="13" as="geometry" />
        </mxCell>
        <mxCell id="C2qKAwBwFKPkLTs-HYhW-139" style="shape=partialRectangle;html=1;whiteSpace=wrap;connectable=0;fillColor=none;top=0;left=0;bottom=0;right=0;overflow=hidden;" vertex="1" parent="C2qKAwBwFKPkLTs-HYhW-100">
          <mxGeometry width="14" height="13" as="geometry" />
        </mxCell>
        <mxCell id="C2qKAwBwFKPkLTs-HYhW-118" style="shape=partialRectangle;html=1;whiteSpace=wrap;connectable=0;fillColor=none;top=0;left=0;bottom=0;right=0;overflow=hidden;" vertex="1" parent="C2qKAwBwFKPkLTs-HYhW-100">
          <mxGeometry x="14" width="15" height="13" as="geometry" />
        </mxCell>
        <mxCell id="C2qKAwBwFKPkLTs-HYhW-101" style="shape=partialRectangle;html=1;whiteSpace=wrap;connectable=0;fillColor=none;top=0;left=0;bottom=0;right=0;overflow=hidden;" vertex="1" parent="C2qKAwBwFKPkLTs-HYhW-100">
          <mxGeometry x="29" width="14" height="13" as="geometry" />
        </mxCell>
        <mxCell id="C2qKAwBwFKPkLTs-HYhW-102" style="shape=partialRectangle;html=1;whiteSpace=wrap;connectable=0;fillColor=none;top=0;left=0;bottom=0;right=0;overflow=hidden;" vertex="1" parent="C2qKAwBwFKPkLTs-HYhW-100">
          <mxGeometry x="43" width="16" height="13" as="geometry" />
        </mxCell>
        <mxCell id="C2qKAwBwFKPkLTs-HYhW-103" style="shape=partialRectangle;html=1;whiteSpace=wrap;connectable=0;fillColor=none;top=0;left=0;bottom=0;right=0;overflow=hidden;" vertex="1" parent="C2qKAwBwFKPkLTs-HYhW-100">
          <mxGeometry x="59" width="12" height="13" as="geometry" />
        </mxCell>
        <mxCell id="C2qKAwBwFKPkLTs-HYhW-104" style="shape=partialRectangle;html=1;whiteSpace=wrap;connectable=0;fillColor=none;top=0;left=0;bottom=0;right=0;overflow=hidden;" vertex="1" parent="C2qKAwBwFKPkLTs-HYhW-100">
          <mxGeometry x="71" width="15" height="13" as="geometry" />
        </mxCell>
        <mxCell id="C2qKAwBwFKPkLTs-HYhW-105" style="shape=partialRectangle;html=1;whiteSpace=wrap;connectable=0;fillColor=none;top=0;left=0;bottom=0;right=0;overflow=hidden;" vertex="1" parent="C2qKAwBwFKPkLTs-HYhW-100">
          <mxGeometry x="86" width="14" height="13" as="geometry" />
        </mxCell>
        <mxCell id="C2qKAwBwFKPkLTs-HYhW-140" style="shape=partialRectangle;html=1;whiteSpace=wrap;collapsible=0;dropTarget=0;pointerEvents=0;fillColor=none;top=0;left=0;bottom=0;right=0;points=[[0,0.5],[1,0.5]];portConstraint=eastwest;" vertex="1" parent="C2qKAwBwFKPkLTs-HYhW-2">
          <mxGeometry y="85" width="100" height="15" as="geometry" />
        </mxCell>
        <mxCell id="C2qKAwBwFKPkLTs-HYhW-141" style="shape=partialRectangle;html=1;whiteSpace=wrap;connectable=0;fillColor=none;top=0;left=0;bottom=0;right=0;overflow=hidden;" vertex="1" parent="C2qKAwBwFKPkLTs-HYhW-140">
          <mxGeometry width="14" height="15" as="geometry" />
        </mxCell>
        <mxCell id="C2qKAwBwFKPkLTs-HYhW-142" style="shape=partialRectangle;html=1;whiteSpace=wrap;connectable=0;fillColor=none;top=0;left=0;bottom=0;right=0;overflow=hidden;" vertex="1" parent="C2qKAwBwFKPkLTs-HYhW-140">
          <mxGeometry x="14" width="15" height="15" as="geometry" />
        </mxCell>
        <mxCell id="C2qKAwBwFKPkLTs-HYhW-143" style="shape=partialRectangle;html=1;whiteSpace=wrap;connectable=0;fillColor=none;top=0;left=0;bottom=0;right=0;overflow=hidden;" vertex="1" parent="C2qKAwBwFKPkLTs-HYhW-140">
          <mxGeometry x="29" width="14" height="15" as="geometry" />
        </mxCell>
        <mxCell id="C2qKAwBwFKPkLTs-HYhW-144" style="shape=partialRectangle;html=1;whiteSpace=wrap;connectable=0;fillColor=none;top=0;left=0;bottom=0;right=0;overflow=hidden;" vertex="1" parent="C2qKAwBwFKPkLTs-HYhW-140">
          <mxGeometry x="43" width="16" height="15" as="geometry" />
        </mxCell>
        <mxCell id="C2qKAwBwFKPkLTs-HYhW-145" style="shape=partialRectangle;html=1;whiteSpace=wrap;connectable=0;fillColor=none;top=0;left=0;bottom=0;right=0;overflow=hidden;" vertex="1" parent="C2qKAwBwFKPkLTs-HYhW-140">
          <mxGeometry x="59" width="12" height="15" as="geometry" />
        </mxCell>
        <mxCell id="C2qKAwBwFKPkLTs-HYhW-146" style="shape=partialRectangle;html=1;whiteSpace=wrap;connectable=0;fillColor=none;top=0;left=0;bottom=0;right=0;overflow=hidden;" vertex="1" parent="C2qKAwBwFKPkLTs-HYhW-140">
          <mxGeometry x="71" width="15" height="15" as="geometry" />
        </mxCell>
        <mxCell id="C2qKAwBwFKPkLTs-HYhW-147" style="shape=partialRectangle;html=1;whiteSpace=wrap;connectable=0;fillColor=none;top=0;left=0;bottom=0;right=0;overflow=hidden;" vertex="1" parent="C2qKAwBwFKPkLTs-HYhW-140">
          <mxGeometry x="86" width="14" height="15" as="geometry" />
        </mxCell>
        <mxCell id="C2qKAwBwFKPkLTs-HYhW-290" value="" style="whiteSpace=wrap;html=1;aspect=fixed;" vertex="1" parent="C2qKAwBwFKPkLTs-HYhW-293">
          <mxGeometry y="50" width="20" height="20" as="geometry" />
        </mxCell>
        <mxCell id="C2qKAwBwFKPkLTs-HYhW-291" value="" style="endArrow=none;html=1;exitX=1;exitY=0;exitDx=0;exitDy=0;" edge="1" parent="C2qKAwBwFKPkLTs-HYhW-293" source="C2qKAwBwFKPkLTs-HYhW-290">
          <mxGeometry width="50" height="50" relative="1" as="geometry">
            <mxPoint x="60" y="60" as="sourcePoint" />
            <mxPoint x="160" as="targetPoint" />
          </mxGeometry>
        </mxCell>
        <mxCell id="C2qKAwBwFKPkLTs-HYhW-292" value="" style="endArrow=none;html=1;exitX=1;exitY=1;exitDx=0;exitDy=0;entryX=0;entryY=0.999;entryDx=0;entryDy=0;entryPerimeter=0;" edge="1" parent="C2qKAwBwFKPkLTs-HYhW-293" source="C2qKAwBwFKPkLTs-HYhW-290" target="C2qKAwBwFKPkLTs-HYhW-140">
          <mxGeometry width="50" height="50" relative="1" as="geometry">
            <mxPoint x="60" y="60" as="sourcePoint" />
            <mxPoint x="110" y="10" as="targetPoint" />
          </mxGeometry>
        </mxCell>
        <mxCell id="C2qKAwBwFKPkLTs-HYhW-294" value="" style="group" vertex="1" connectable="0" parent="1">
          <mxGeometry x="157" y="130" width="260" height="100" as="geometry" />
        </mxCell>
        <mxCell id="C2qKAwBwFKPkLTs-HYhW-352" value="" style="whiteSpace=wrap;html=1;aspect=fixed;" vertex="1" parent="C2qKAwBwFKPkLTs-HYhW-294">
          <mxGeometry y="50" width="20" height="20" as="geometry" />
        </mxCell>
        <mxCell id="C2qKAwBwFKPkLTs-HYhW-353" value="" style="endArrow=none;html=1;exitX=1;exitY=0;exitDx=0;exitDy=0;" edge="1" parent="C2qKAwBwFKPkLTs-HYhW-294" source="C2qKAwBwFKPkLTs-HYhW-352">
          <mxGeometry width="50" height="50" relative="1" as="geometry">
            <mxPoint x="60" y="60" as="sourcePoint" />
            <mxPoint x="160" as="targetPoint" />
          </mxGeometry>
        </mxCell>
        <mxCell id="C2qKAwBwFKPkLTs-HYhW-354" value="" style="endArrow=none;html=1;exitX=1;exitY=1;exitDx=0;exitDy=0;entryX=0;entryY=0.999;entryDx=0;entryDy=0;entryPerimeter=0;" edge="1" parent="C2qKAwBwFKPkLTs-HYhW-294" source="C2qKAwBwFKPkLTs-HYhW-352" target="C2qKAwBwFKPkLTs-HYhW-344">
          <mxGeometry width="50" height="50" relative="1" as="geometry">
            <mxPoint x="60" y="60" as="sourcePoint" />
            <mxPoint x="110" y="10" as="targetPoint" />
          </mxGeometry>
        </mxCell>
        <mxCell id="C2qKAwBwFKPkLTs-HYhW-295" value="" style="shape=table;html=1;whiteSpace=wrap;startSize=0;container=1;collapsible=0;childLayout=tableLayout;" vertex="1" parent="C2qKAwBwFKPkLTs-HYhW-294">
          <mxGeometry x="160" y="0.010000000000005116" width="100" height="99.99" as="geometry" />
        </mxCell>
        <mxCell id="C2qKAwBwFKPkLTs-HYhW-296" style="shape=partialRectangle;html=1;whiteSpace=wrap;collapsible=0;dropTarget=0;pointerEvents=0;fillColor=none;top=0;left=0;bottom=0;right=0;points=[[0,0.5],[1,0.5]];portConstraint=eastwest;" vertex="1" parent="C2qKAwBwFKPkLTs-HYhW-295">
          <mxGeometry width="100" height="15" as="geometry" />
        </mxCell>
        <mxCell id="C2qKAwBwFKPkLTs-HYhW-297" style="shape=partialRectangle;html=1;whiteSpace=wrap;connectable=0;fillColor=none;top=0;left=0;bottom=0;right=0;overflow=hidden;" vertex="1" parent="C2qKAwBwFKPkLTs-HYhW-296">
          <mxGeometry width="14" height="15" as="geometry" />
        </mxCell>
        <mxCell id="C2qKAwBwFKPkLTs-HYhW-298" style="shape=partialRectangle;html=1;whiteSpace=wrap;connectable=0;fillColor=none;top=0;left=0;bottom=0;right=0;overflow=hidden;" vertex="1" parent="C2qKAwBwFKPkLTs-HYhW-296">
          <mxGeometry x="14" width="15" height="15" as="geometry" />
        </mxCell>
        <mxCell id="C2qKAwBwFKPkLTs-HYhW-299" style="shape=partialRectangle;html=1;whiteSpace=wrap;connectable=0;fillColor=none;top=0;left=0;bottom=0;right=0;overflow=hidden;" vertex="1" parent="C2qKAwBwFKPkLTs-HYhW-296">
          <mxGeometry x="29" width="14" height="15" as="geometry" />
        </mxCell>
        <mxCell id="C2qKAwBwFKPkLTs-HYhW-300" style="shape=partialRectangle;html=1;whiteSpace=wrap;connectable=0;fillColor=none;top=0;left=0;bottom=0;right=0;overflow=hidden;" vertex="1" parent="C2qKAwBwFKPkLTs-HYhW-296">
          <mxGeometry x="43" width="16" height="15" as="geometry" />
        </mxCell>
        <mxCell id="C2qKAwBwFKPkLTs-HYhW-301" style="shape=partialRectangle;html=1;whiteSpace=wrap;connectable=0;fillColor=none;top=0;left=0;bottom=0;right=0;overflow=hidden;" vertex="1" parent="C2qKAwBwFKPkLTs-HYhW-296">
          <mxGeometry x="59" width="12" height="15" as="geometry" />
        </mxCell>
        <mxCell id="C2qKAwBwFKPkLTs-HYhW-302" style="shape=partialRectangle;html=1;whiteSpace=wrap;connectable=0;fillColor=none;top=0;left=0;bottom=0;right=0;overflow=hidden;" vertex="1" parent="C2qKAwBwFKPkLTs-HYhW-296">
          <mxGeometry x="71" width="15" height="15" as="geometry" />
        </mxCell>
        <mxCell id="C2qKAwBwFKPkLTs-HYhW-303" style="shape=partialRectangle;html=1;whiteSpace=wrap;connectable=0;fillColor=none;top=0;left=0;bottom=0;right=0;overflow=hidden;" vertex="1" parent="C2qKAwBwFKPkLTs-HYhW-296">
          <mxGeometry x="86" width="14" height="15" as="geometry" />
        </mxCell>
        <mxCell id="C2qKAwBwFKPkLTs-HYhW-304" style="shape=partialRectangle;html=1;whiteSpace=wrap;collapsible=0;dropTarget=0;pointerEvents=0;fillColor=none;top=0;left=0;bottom=0;right=0;points=[[0,0.5],[1,0.5]];portConstraint=eastwest;" vertex="1" parent="C2qKAwBwFKPkLTs-HYhW-295">
          <mxGeometry y="15" width="100" height="13" as="geometry" />
        </mxCell>
        <mxCell id="C2qKAwBwFKPkLTs-HYhW-305" style="shape=partialRectangle;html=1;whiteSpace=wrap;connectable=0;fillColor=none;top=0;left=0;bottom=0;right=0;overflow=hidden;" vertex="1" parent="C2qKAwBwFKPkLTs-HYhW-304">
          <mxGeometry width="14" height="13" as="geometry" />
        </mxCell>
        <mxCell id="C2qKAwBwFKPkLTs-HYhW-306" style="shape=partialRectangle;html=1;whiteSpace=wrap;connectable=0;fillColor=none;top=0;left=0;bottom=0;right=0;overflow=hidden;" vertex="1" parent="C2qKAwBwFKPkLTs-HYhW-304">
          <mxGeometry x="14" width="15" height="13" as="geometry" />
        </mxCell>
        <mxCell id="C2qKAwBwFKPkLTs-HYhW-307" style="shape=partialRectangle;html=1;whiteSpace=wrap;connectable=0;fillColor=none;top=0;left=0;bottom=0;right=0;overflow=hidden;" vertex="1" parent="C2qKAwBwFKPkLTs-HYhW-304">
          <mxGeometry x="29" width="14" height="13" as="geometry" />
        </mxCell>
        <mxCell id="C2qKAwBwFKPkLTs-HYhW-308" style="shape=partialRectangle;html=1;whiteSpace=wrap;connectable=0;fillColor=none;top=0;left=0;bottom=0;right=0;overflow=hidden;" vertex="1" parent="C2qKAwBwFKPkLTs-HYhW-304">
          <mxGeometry x="43" width="16" height="13" as="geometry" />
        </mxCell>
        <mxCell id="C2qKAwBwFKPkLTs-HYhW-309" style="shape=partialRectangle;html=1;whiteSpace=wrap;connectable=0;fillColor=none;top=0;left=0;bottom=0;right=0;overflow=hidden;" vertex="1" parent="C2qKAwBwFKPkLTs-HYhW-304">
          <mxGeometry x="59" width="12" height="13" as="geometry" />
        </mxCell>
        <mxCell id="C2qKAwBwFKPkLTs-HYhW-310" style="shape=partialRectangle;html=1;whiteSpace=wrap;connectable=0;fillColor=none;top=0;left=0;bottom=0;right=0;overflow=hidden;" vertex="1" parent="C2qKAwBwFKPkLTs-HYhW-304">
          <mxGeometry x="71" width="15" height="13" as="geometry" />
        </mxCell>
        <mxCell id="C2qKAwBwFKPkLTs-HYhW-311" style="shape=partialRectangle;html=1;whiteSpace=wrap;connectable=0;fillColor=none;top=0;left=0;bottom=0;right=0;overflow=hidden;" vertex="1" parent="C2qKAwBwFKPkLTs-HYhW-304">
          <mxGeometry x="86" width="14" height="13" as="geometry" />
        </mxCell>
        <mxCell id="C2qKAwBwFKPkLTs-HYhW-312" value="" style="shape=partialRectangle;html=1;whiteSpace=wrap;collapsible=0;dropTarget=0;pointerEvents=0;fillColor=none;top=0;left=0;bottom=0;right=0;points=[[0,0.5],[1,0.5]];portConstraint=eastwest;" vertex="1" parent="C2qKAwBwFKPkLTs-HYhW-295">
          <mxGeometry y="28" width="100" height="15" as="geometry" />
        </mxCell>
        <mxCell id="C2qKAwBwFKPkLTs-HYhW-313" style="shape=partialRectangle;html=1;whiteSpace=wrap;connectable=0;fillColor=none;top=0;left=0;bottom=0;right=0;overflow=hidden;" vertex="1" parent="C2qKAwBwFKPkLTs-HYhW-312">
          <mxGeometry width="14" height="15" as="geometry" />
        </mxCell>
        <mxCell id="C2qKAwBwFKPkLTs-HYhW-314" style="shape=partialRectangle;html=1;whiteSpace=wrap;connectable=0;fillColor=none;top=0;left=0;bottom=0;right=0;overflow=hidden;" vertex="1" parent="C2qKAwBwFKPkLTs-HYhW-312">
          <mxGeometry x="14" width="15" height="15" as="geometry" />
        </mxCell>
        <mxCell id="C2qKAwBwFKPkLTs-HYhW-315" value="" style="shape=partialRectangle;html=1;whiteSpace=wrap;connectable=0;fillColor=none;top=0;left=0;bottom=0;right=0;overflow=hidden;" vertex="1" parent="C2qKAwBwFKPkLTs-HYhW-312">
          <mxGeometry x="29" width="14" height="15" as="geometry" />
        </mxCell>
        <mxCell id="C2qKAwBwFKPkLTs-HYhW-316" value="" style="shape=partialRectangle;html=1;whiteSpace=wrap;connectable=0;fillColor=none;top=0;left=0;bottom=0;right=0;overflow=hidden;" vertex="1" parent="C2qKAwBwFKPkLTs-HYhW-312">
          <mxGeometry x="43" width="16" height="15" as="geometry" />
        </mxCell>
        <mxCell id="C2qKAwBwFKPkLTs-HYhW-317" value="" style="shape=partialRectangle;html=1;whiteSpace=wrap;connectable=0;fillColor=none;top=0;left=0;bottom=0;right=0;overflow=hidden;" vertex="1" parent="C2qKAwBwFKPkLTs-HYhW-312">
          <mxGeometry x="59" width="12" height="15" as="geometry" />
        </mxCell>
        <mxCell id="C2qKAwBwFKPkLTs-HYhW-318" style="shape=partialRectangle;html=1;whiteSpace=wrap;connectable=0;fillColor=none;top=0;left=0;bottom=0;right=0;overflow=hidden;" vertex="1" parent="C2qKAwBwFKPkLTs-HYhW-312">
          <mxGeometry x="71" width="15" height="15" as="geometry" />
        </mxCell>
        <mxCell id="C2qKAwBwFKPkLTs-HYhW-319" style="shape=partialRectangle;html=1;whiteSpace=wrap;connectable=0;fillColor=none;top=0;left=0;bottom=0;right=0;overflow=hidden;" vertex="1" parent="C2qKAwBwFKPkLTs-HYhW-312">
          <mxGeometry x="86" width="14" height="15" as="geometry" />
        </mxCell>
        <mxCell id="C2qKAwBwFKPkLTs-HYhW-320" value="" style="shape=partialRectangle;html=1;whiteSpace=wrap;collapsible=0;dropTarget=0;pointerEvents=0;fillColor=none;top=0;left=0;bottom=0;right=0;points=[[0,0.5],[1,0.5]];portConstraint=eastwest;" vertex="1" parent="C2qKAwBwFKPkLTs-HYhW-295">
          <mxGeometry y="43" width="100" height="14" as="geometry" />
        </mxCell>
        <mxCell id="C2qKAwBwFKPkLTs-HYhW-321" style="shape=partialRectangle;html=1;whiteSpace=wrap;connectable=0;fillColor=none;top=0;left=0;bottom=0;right=0;overflow=hidden;" vertex="1" parent="C2qKAwBwFKPkLTs-HYhW-320">
          <mxGeometry width="14" height="14" as="geometry" />
        </mxCell>
        <mxCell id="C2qKAwBwFKPkLTs-HYhW-322" style="shape=partialRectangle;html=1;whiteSpace=wrap;connectable=0;fillColor=none;top=0;left=0;bottom=0;right=0;overflow=hidden;" vertex="1" parent="C2qKAwBwFKPkLTs-HYhW-320">
          <mxGeometry x="14" width="15" height="14" as="geometry" />
        </mxCell>
        <mxCell id="C2qKAwBwFKPkLTs-HYhW-323" value="" style="shape=partialRectangle;html=1;whiteSpace=wrap;connectable=0;fillColor=none;top=0;left=0;bottom=0;right=0;overflow=hidden;" vertex="1" parent="C2qKAwBwFKPkLTs-HYhW-320">
          <mxGeometry x="29" width="14" height="14" as="geometry" />
        </mxCell>
        <mxCell id="C2qKAwBwFKPkLTs-HYhW-324" value="" style="shape=partialRectangle;html=1;whiteSpace=wrap;connectable=0;fillColor=#ffe6cc;top=0;left=0;bottom=0;right=0;overflow=hidden;strokeColor=#d79b00;" vertex="1" parent="C2qKAwBwFKPkLTs-HYhW-320">
          <mxGeometry x="43" width="16" height="14" as="geometry" />
        </mxCell>
        <mxCell id="C2qKAwBwFKPkLTs-HYhW-325" value="" style="shape=partialRectangle;html=1;whiteSpace=wrap;connectable=0;fillColor=none;top=0;left=0;bottom=0;right=0;overflow=hidden;" vertex="1" parent="C2qKAwBwFKPkLTs-HYhW-320">
          <mxGeometry x="59" width="12" height="14" as="geometry" />
        </mxCell>
        <mxCell id="C2qKAwBwFKPkLTs-HYhW-326" style="shape=partialRectangle;html=1;whiteSpace=wrap;connectable=0;fillColor=none;top=0;left=0;bottom=0;right=0;overflow=hidden;" vertex="1" parent="C2qKAwBwFKPkLTs-HYhW-320">
          <mxGeometry x="71" width="15" height="14" as="geometry" />
        </mxCell>
        <mxCell id="C2qKAwBwFKPkLTs-HYhW-327" style="shape=partialRectangle;html=1;whiteSpace=wrap;connectable=0;fillColor=none;top=0;left=0;bottom=0;right=0;overflow=hidden;" vertex="1" parent="C2qKAwBwFKPkLTs-HYhW-320">
          <mxGeometry x="86" width="14" height="14" as="geometry" />
        </mxCell>
        <mxCell id="C2qKAwBwFKPkLTs-HYhW-328" value="" style="shape=partialRectangle;html=1;whiteSpace=wrap;collapsible=0;dropTarget=0;pointerEvents=0;fillColor=none;top=0;left=0;bottom=0;right=0;points=[[0,0.5],[1,0.5]];portConstraint=eastwest;" vertex="1" parent="C2qKAwBwFKPkLTs-HYhW-295">
          <mxGeometry y="57" width="100" height="15" as="geometry" />
        </mxCell>
        <mxCell id="C2qKAwBwFKPkLTs-HYhW-329" style="shape=partialRectangle;html=1;whiteSpace=wrap;connectable=0;fillColor=none;top=0;left=0;bottom=0;right=0;overflow=hidden;" vertex="1" parent="C2qKAwBwFKPkLTs-HYhW-328">
          <mxGeometry width="14" height="15" as="geometry" />
        </mxCell>
        <mxCell id="C2qKAwBwFKPkLTs-HYhW-330" style="shape=partialRectangle;html=1;whiteSpace=wrap;connectable=0;fillColor=none;top=0;left=0;bottom=0;right=0;overflow=hidden;" vertex="1" parent="C2qKAwBwFKPkLTs-HYhW-328">
          <mxGeometry x="14" width="15" height="15" as="geometry" />
        </mxCell>
        <mxCell id="C2qKAwBwFKPkLTs-HYhW-331" value="" style="shape=partialRectangle;html=1;whiteSpace=wrap;connectable=0;fillColor=none;top=0;left=0;bottom=0;right=0;overflow=hidden;" vertex="1" parent="C2qKAwBwFKPkLTs-HYhW-328">
          <mxGeometry x="29" width="14" height="15" as="geometry" />
        </mxCell>
        <mxCell id="C2qKAwBwFKPkLTs-HYhW-332" value="" style="shape=partialRectangle;html=1;whiteSpace=wrap;connectable=0;fillColor=none;top=0;left=0;bottom=0;right=0;overflow=hidden;" vertex="1" parent="C2qKAwBwFKPkLTs-HYhW-328">
          <mxGeometry x="43" width="16" height="15" as="geometry" />
        </mxCell>
        <mxCell id="C2qKAwBwFKPkLTs-HYhW-333" value="" style="shape=partialRectangle;html=1;whiteSpace=wrap;connectable=0;fillColor=none;top=0;left=0;bottom=0;right=0;overflow=hidden;" vertex="1" parent="C2qKAwBwFKPkLTs-HYhW-328">
          <mxGeometry x="59" width="12" height="15" as="geometry" />
        </mxCell>
        <mxCell id="C2qKAwBwFKPkLTs-HYhW-334" style="shape=partialRectangle;html=1;whiteSpace=wrap;connectable=0;fillColor=none;top=0;left=0;bottom=0;right=0;overflow=hidden;" vertex="1" parent="C2qKAwBwFKPkLTs-HYhW-328">
          <mxGeometry x="71" width="15" height="15" as="geometry" />
        </mxCell>
        <mxCell id="C2qKAwBwFKPkLTs-HYhW-335" style="shape=partialRectangle;html=1;whiteSpace=wrap;connectable=0;fillColor=none;top=0;left=0;bottom=0;right=0;overflow=hidden;" vertex="1" parent="C2qKAwBwFKPkLTs-HYhW-328">
          <mxGeometry x="86" width="14" height="15" as="geometry" />
        </mxCell>
        <mxCell id="C2qKAwBwFKPkLTs-HYhW-336" style="shape=partialRectangle;html=1;whiteSpace=wrap;collapsible=0;dropTarget=0;pointerEvents=0;fillColor=none;top=0;left=0;bottom=0;right=0;points=[[0,0.5],[1,0.5]];portConstraint=eastwest;" vertex="1" parent="C2qKAwBwFKPkLTs-HYhW-295">
          <mxGeometry y="72" width="100" height="13" as="geometry" />
        </mxCell>
        <mxCell id="C2qKAwBwFKPkLTs-HYhW-337" style="shape=partialRectangle;html=1;whiteSpace=wrap;connectable=0;fillColor=none;top=0;left=0;bottom=0;right=0;overflow=hidden;" vertex="1" parent="C2qKAwBwFKPkLTs-HYhW-336">
          <mxGeometry width="14" height="13" as="geometry" />
        </mxCell>
        <mxCell id="C2qKAwBwFKPkLTs-HYhW-338" style="shape=partialRectangle;html=1;whiteSpace=wrap;connectable=0;fillColor=none;top=0;left=0;bottom=0;right=0;overflow=hidden;" vertex="1" parent="C2qKAwBwFKPkLTs-HYhW-336">
          <mxGeometry x="14" width="15" height="13" as="geometry" />
        </mxCell>
        <mxCell id="C2qKAwBwFKPkLTs-HYhW-339" style="shape=partialRectangle;html=1;whiteSpace=wrap;connectable=0;fillColor=none;top=0;left=0;bottom=0;right=0;overflow=hidden;" vertex="1" parent="C2qKAwBwFKPkLTs-HYhW-336">
          <mxGeometry x="29" width="14" height="13" as="geometry" />
        </mxCell>
        <mxCell id="C2qKAwBwFKPkLTs-HYhW-340" style="shape=partialRectangle;html=1;whiteSpace=wrap;connectable=0;fillColor=none;top=0;left=0;bottom=0;right=0;overflow=hidden;" vertex="1" parent="C2qKAwBwFKPkLTs-HYhW-336">
          <mxGeometry x="43" width="16" height="13" as="geometry" />
        </mxCell>
        <mxCell id="C2qKAwBwFKPkLTs-HYhW-341" style="shape=partialRectangle;html=1;whiteSpace=wrap;connectable=0;fillColor=none;top=0;left=0;bottom=0;right=0;overflow=hidden;" vertex="1" parent="C2qKAwBwFKPkLTs-HYhW-336">
          <mxGeometry x="59" width="12" height="13" as="geometry" />
        </mxCell>
        <mxCell id="C2qKAwBwFKPkLTs-HYhW-342" style="shape=partialRectangle;html=1;whiteSpace=wrap;connectable=0;fillColor=none;top=0;left=0;bottom=0;right=0;overflow=hidden;" vertex="1" parent="C2qKAwBwFKPkLTs-HYhW-336">
          <mxGeometry x="71" width="15" height="13" as="geometry" />
        </mxCell>
        <mxCell id="C2qKAwBwFKPkLTs-HYhW-343" style="shape=partialRectangle;html=1;whiteSpace=wrap;connectable=0;fillColor=none;top=0;left=0;bottom=0;right=0;overflow=hidden;" vertex="1" parent="C2qKAwBwFKPkLTs-HYhW-336">
          <mxGeometry x="86" width="14" height="13" as="geometry" />
        </mxCell>
        <mxCell id="C2qKAwBwFKPkLTs-HYhW-344" style="shape=partialRectangle;html=1;whiteSpace=wrap;collapsible=0;dropTarget=0;pointerEvents=0;fillColor=none;top=0;left=0;bottom=0;right=0;points=[[0,0.5],[1,0.5]];portConstraint=eastwest;" vertex="1" parent="C2qKAwBwFKPkLTs-HYhW-295">
          <mxGeometry y="85" width="100" height="15" as="geometry" />
        </mxCell>
        <mxCell id="C2qKAwBwFKPkLTs-HYhW-345" style="shape=partialRectangle;html=1;whiteSpace=wrap;connectable=0;fillColor=none;top=0;left=0;bottom=0;right=0;overflow=hidden;" vertex="1" parent="C2qKAwBwFKPkLTs-HYhW-344">
          <mxGeometry width="14" height="15" as="geometry" />
        </mxCell>
        <mxCell id="C2qKAwBwFKPkLTs-HYhW-346" style="shape=partialRectangle;html=1;whiteSpace=wrap;connectable=0;fillColor=none;top=0;left=0;bottom=0;right=0;overflow=hidden;" vertex="1" parent="C2qKAwBwFKPkLTs-HYhW-344">
          <mxGeometry x="14" width="15" height="15" as="geometry" />
        </mxCell>
        <mxCell id="C2qKAwBwFKPkLTs-HYhW-347" style="shape=partialRectangle;html=1;whiteSpace=wrap;connectable=0;fillColor=none;top=0;left=0;bottom=0;right=0;overflow=hidden;" vertex="1" parent="C2qKAwBwFKPkLTs-HYhW-344">
          <mxGeometry x="29" width="14" height="15" as="geometry" />
        </mxCell>
        <mxCell id="C2qKAwBwFKPkLTs-HYhW-348" style="shape=partialRectangle;html=1;whiteSpace=wrap;connectable=0;fillColor=none;top=0;left=0;bottom=0;right=0;overflow=hidden;" vertex="1" parent="C2qKAwBwFKPkLTs-HYhW-344">
          <mxGeometry x="43" width="16" height="15" as="geometry" />
        </mxCell>
        <mxCell id="C2qKAwBwFKPkLTs-HYhW-349" style="shape=partialRectangle;html=1;whiteSpace=wrap;connectable=0;fillColor=none;top=0;left=0;bottom=0;right=0;overflow=hidden;" vertex="1" parent="C2qKAwBwFKPkLTs-HYhW-344">
          <mxGeometry x="59" width="12" height="15" as="geometry" />
        </mxCell>
        <mxCell id="C2qKAwBwFKPkLTs-HYhW-350" style="shape=partialRectangle;html=1;whiteSpace=wrap;connectable=0;fillColor=none;top=0;left=0;bottom=0;right=0;overflow=hidden;" vertex="1" parent="C2qKAwBwFKPkLTs-HYhW-344">
          <mxGeometry x="71" width="15" height="15" as="geometry" />
        </mxCell>
        <mxCell id="C2qKAwBwFKPkLTs-HYhW-351" style="shape=partialRectangle;html=1;whiteSpace=wrap;connectable=0;fillColor=none;top=0;left=0;bottom=0;right=0;overflow=hidden;" vertex="1" parent="C2qKAwBwFKPkLTs-HYhW-344">
          <mxGeometry x="86" width="14" height="15" as="geometry" />
        </mxCell>
        <mxCell id="C2qKAwBwFKPkLTs-HYhW-356" value="" style="shape=table;html=1;whiteSpace=wrap;startSize=0;container=1;collapsible=0;childLayout=tableLayout;" vertex="1" parent="1">
          <mxGeometry x="560" y="110" width="160" height="20" as="geometry" />
        </mxCell>
        <mxCell id="C2qKAwBwFKPkLTs-HYhW-357" value="" style="shape=partialRectangle;html=1;whiteSpace=wrap;collapsible=0;dropTarget=0;pointerEvents=0;fillColor=none;top=0;left=0;bottom=0;right=0;points=[[0,0.5],[1,0.5]];portConstraint=eastwest;" vertex="1" parent="C2qKAwBwFKPkLTs-HYhW-356">
          <mxGeometry width="160" height="20" as="geometry" />
        </mxCell>
        <mxCell id="C2qKAwBwFKPkLTs-HYhW-358" value="" style="shape=partialRectangle;html=1;whiteSpace=wrap;connectable=0;overflow=hidden;fillColor=none;top=0;left=0;bottom=0;right=0;" vertex="1" parent="C2qKAwBwFKPkLTs-HYhW-357">
          <mxGeometry width="27" height="20" as="geometry" />
        </mxCell>
        <mxCell id="C2qKAwBwFKPkLTs-HYhW-359" value="" style="shape=partialRectangle;html=1;whiteSpace=wrap;connectable=0;overflow=hidden;fillColor=none;top=0;left=0;bottom=0;right=0;" vertex="1" parent="C2qKAwBwFKPkLTs-HYhW-357">
          <mxGeometry x="27" width="26" height="20" as="geometry" />
        </mxCell>
        <mxCell id="C2qKAwBwFKPkLTs-HYhW-360" value="" style="shape=partialRectangle;html=1;whiteSpace=wrap;connectable=0;overflow=hidden;fillColor=none;top=0;left=0;bottom=0;right=0;" vertex="1" parent="C2qKAwBwFKPkLTs-HYhW-357">
          <mxGeometry x="53" width="27" height="20" as="geometry" />
        </mxCell>
        <mxCell id="C2qKAwBwFKPkLTs-HYhW-361" value="···" style="shape=partialRectangle;html=1;whiteSpace=wrap;connectable=0;overflow=hidden;fillColor=none;top=0;left=0;bottom=0;right=0;" vertex="1" parent="C2qKAwBwFKPkLTs-HYhW-357">
          <mxGeometry x="80" width="27" height="20" as="geometry" />
        </mxCell>
        <mxCell id="C2qKAwBwFKPkLTs-HYhW-362" value="" style="shape=partialRectangle;html=1;whiteSpace=wrap;connectable=0;overflow=hidden;fillColor=none;top=0;left=0;bottom=0;right=0;" vertex="1" parent="C2qKAwBwFKPkLTs-HYhW-357">
          <mxGeometry x="107" width="26" height="20" as="geometry" />
        </mxCell>
        <mxCell id="C2qKAwBwFKPkLTs-HYhW-363" value="" style="shape=partialRectangle;html=1;whiteSpace=wrap;connectable=0;overflow=hidden;fillColor=none;top=0;left=0;bottom=0;right=0;" vertex="1" parent="C2qKAwBwFKPkLTs-HYhW-357">
          <mxGeometry x="133" width="27" height="20" as="geometry" />
        </mxCell>
        <mxCell id="C2qKAwBwFKPkLTs-HYhW-364" value="" style="shape=table;html=1;whiteSpace=wrap;startSize=0;container=1;collapsible=0;childLayout=tableLayout;" vertex="1" parent="1">
          <mxGeometry x="560" y="210" width="160" height="20" as="geometry" />
        </mxCell>
        <mxCell id="C2qKAwBwFKPkLTs-HYhW-365" value="" style="shape=partialRectangle;html=1;whiteSpace=wrap;collapsible=0;dropTarget=0;pointerEvents=0;fillColor=none;top=0;left=0;bottom=0;right=0;points=[[0,0.5],[1,0.5]];portConstraint=eastwest;" vertex="1" parent="C2qKAwBwFKPkLTs-HYhW-364">
          <mxGeometry width="160" height="20" as="geometry" />
        </mxCell>
        <mxCell id="C2qKAwBwFKPkLTs-HYhW-366" value="" style="shape=partialRectangle;html=1;whiteSpace=wrap;connectable=0;overflow=hidden;fillColor=none;top=0;left=0;bottom=0;right=0;" vertex="1" parent="C2qKAwBwFKPkLTs-HYhW-365">
          <mxGeometry width="27" height="20" as="geometry" />
        </mxCell>
        <mxCell id="C2qKAwBwFKPkLTs-HYhW-367" value="" style="shape=partialRectangle;html=1;whiteSpace=wrap;connectable=0;overflow=hidden;fillColor=none;top=0;left=0;bottom=0;right=0;" vertex="1" parent="C2qKAwBwFKPkLTs-HYhW-365">
          <mxGeometry x="27" width="26" height="20" as="geometry" />
        </mxCell>
        <mxCell id="C2qKAwBwFKPkLTs-HYhW-368" value="" style="shape=partialRectangle;html=1;whiteSpace=wrap;connectable=0;overflow=hidden;fillColor=none;top=0;left=0;bottom=0;right=0;" vertex="1" parent="C2qKAwBwFKPkLTs-HYhW-365">
          <mxGeometry x="53" width="27" height="20" as="geometry" />
        </mxCell>
        <mxCell id="C2qKAwBwFKPkLTs-HYhW-369" value="···" style="shape=partialRectangle;html=1;whiteSpace=wrap;connectable=0;overflow=hidden;fillColor=none;top=0;left=0;bottom=0;right=0;" vertex="1" parent="C2qKAwBwFKPkLTs-HYhW-365">
          <mxGeometry x="80" width="27" height="20" as="geometry" />
        </mxCell>
        <mxCell id="C2qKAwBwFKPkLTs-HYhW-370" value="" style="shape=partialRectangle;html=1;whiteSpace=wrap;connectable=0;overflow=hidden;fillColor=none;top=0;left=0;bottom=0;right=0;" vertex="1" parent="C2qKAwBwFKPkLTs-HYhW-365">
          <mxGeometry x="107" width="26" height="20" as="geometry" />
        </mxCell>
        <mxCell id="C2qKAwBwFKPkLTs-HYhW-371" value="" style="shape=partialRectangle;html=1;whiteSpace=wrap;connectable=0;overflow=hidden;fillColor=none;top=0;left=0;bottom=0;right=0;" vertex="1" parent="C2qKAwBwFKPkLTs-HYhW-365">
          <mxGeometry x="133" width="27" height="20" as="geometry" />
        </mxCell>
        <mxCell id="C2qKAwBwFKPkLTs-HYhW-389" value="" style="shape=curlyBracket;whiteSpace=wrap;html=1;rounded=1;rotation=-90;" vertex="1" parent="1">
          <mxGeometry x="630" y="210" width="20" height="160" as="geometry" />
        </mxCell>
        <mxCell id="C2qKAwBwFKPkLTs-HYhW-392" value="大小为7x7的采样快" style="text;html=1;align=center;verticalAlign=middle;resizable=0;points=[];autosize=1;" vertex="1" parent="1">
          <mxGeometry x="294" y="250" width="120" height="20" as="geometry" />
        </mxCell>
        <mxCell id="C2qKAwBwFKPkLTs-HYhW-393" value="49维的向量" style="text;html=1;align=center;verticalAlign=middle;resizable=0;points=[];autosize=1;" vertex="1" parent="1">
          <mxGeometry x="600" y="270" width="80" height="20" as="geometry" />
        </mxCell>
        <mxCell id="C2qKAwBwFKPkLTs-HYhW-394" value="" style="endArrow=none;html=1;entryX=-0.008;entryY=1.01;entryDx=0;entryDy=0;entryPerimeter=0;" edge="1" parent="1" target="C2qKAwBwFKPkLTs-HYhW-365">
          <mxGeometry width="50" height="50" relative="1" as="geometry">
            <mxPoint x="417" y="230" as="sourcePoint" />
            <mxPoint x="420" y="200" as="targetPoint" />
          </mxGeometry>
        </mxCell>
        <mxCell id="C2qKAwBwFKPkLTs-HYhW-395" value="" style="endArrow=none;html=1;entryX=-0.012;entryY=0.01;entryDx=0;entryDy=0;entryPerimeter=0;" edge="1" parent="1" target="C2qKAwBwFKPkLTs-HYhW-365">
          <mxGeometry width="50" height="50" relative="1" as="geometry">
            <mxPoint x="414" y="130" as="sourcePoint" />
            <mxPoint x="464" y="80" as="targetPoint" />
          </mxGeometry>
        </mxCell>
        <mxCell id="C2qKAwBwFKPkLTs-HYhW-397" value="" style="endArrow=none;html=1;entryX=0;entryY=0;entryDx=0;entryDy=0;entryPerimeter=0;" edge="1" parent="1" target="C2qKAwBwFKPkLTs-HYhW-357">
          <mxGeometry width="50" height="50" relative="1" as="geometry">
            <mxPoint x="400" y="80" as="sourcePoint" />
            <mxPoint x="550" y="110" as="targetPoint" />
          </mxGeometry>
        </mxCell>
        <mxCell id="C2qKAwBwFKPkLTs-HYhW-406" value="" style="rounded=1;whiteSpace=wrap;html=1;fillColor=none;" vertex="1" parent="1">
          <mxGeometry x="37" y="50" width="403" height="290" as="geometry" />
        </mxCell>
        <mxCell id="C2qKAwBwFKPkLTs-HYhW-407" value="" style="rounded=1;whiteSpace=wrap;html=1;fillColor=none;" vertex="1" parent="1">
          <mxGeometry x="290" y="30" width="470" height="290" as="geometry" />
        </mxCell>
        <mxCell id="C2qKAwBwFKPkLTs-HYhW-408" value="块采样" style="text;html=1;align=center;verticalAlign=middle;resizable=0;points=[];autosize=1;" vertex="1" parent="1">
          <mxGeometry x="195" y="350" width="50" height="20" as="geometry" />
        </mxCell>
        <mxCell id="C2qKAwBwFKPkLTs-HYhW-409" value="去均值化" style="text;html=1;align=center;verticalAlign=middle;resizable=0;points=[];autosize=1;" vertex="1" parent="1">
          <mxGeometry x="500" y="350" width="60" height="20" as="geometry" />
        </mxCell>
      </root>
    </mxGraphModel>
  </diagram>
</mxfile>
